<?xml version="1.0" encoding="utf-8"?>
<!-- Generator: Adobe Illustrator 24.1.2, SVG Export Plug-In . SVG Version: 6.00 Build 0)  -->
<svg version="1.1" id="THU_Logo_Subline_deutsch_CMYK"
	 xmlns="http://www.w3.org/2000/svg" xmlns:xlink="http://www.w3.org/1999/xlink" x="0px" y="0px" viewBox="0 0 1094.7 347.4"
	 style="enable-background:new 0 0 1094.7 347.4;" xml:space="preserve">
<style type="text/css">
	.st0{fill:#0055A3;}
	.st1{fill:#1D1D1B;}
</style>
<path class="st0" d="M341.3,141.5c-0.6,0.2-1.3-0.2-1.4-0.8c0,0,0,0,0,0c-8.6-32-37-55.4-70.7-55.4c-16.1,0-31.8,5.4-44.4,15.4
	c-0.2,0.2-0.5,0.3-0.8,0.3l-31-1.9c-0.6,0-1.1-0.6-1.1-1.3c0-0.2,0.1-0.5,0.3-0.7c16-19.7,40-31.2,65.4-31.3
	c42.7,0,78.1,32.2,84.6,74.3C342.3,141.1,341.8,141.4,341.3,141.5z M310.7,69.6c-24.1-35.1-70-48.8-108.5-30.3
	c-22.8,11.1-39.5,31.8-45.4,56.5c-0.2,0.6,0.2,1.3,0.9,1.4c0.2,0.1,0.5,0,0.7,0l28.8-11.7c0.3-0.1,0.5-0.3,0.6-0.6
	c7.1-14.5,18.8-26.2,33.3-33.2c30.4-14.6,66.2-5.8,87.8,19.3c0.4,0.5,1.1,0.6,1.6,0.2c0,0,0,0,0,0c0.5-0.3,0.6-0.9,0.3-1.4
	C310.8,69.7,310.8,69.6,310.7,69.6z M251.8,19.7c-37-21.2-84.3-13.6-110.9,19.8c-15.8,19.9-21.8,45.8-16.3,70.6
	c0.2,0.6,0.8,1,1.4,0.9c0.2-0.1,0.4-0.2,0.6-0.3l20.9-23.1c0.2-0.2,0.3-0.5,0.3-0.8c0.1-16.1,5.6-31.8,15.6-44.4
	c21-26.4,57.1-33.9,87.4-20.7c0.6,0.3,1.3,0,1.5-0.6c0,0,0,0,0,0C252.5,20.7,252.6,20.1,251.8,19.7z M177.1,0.2
	c-42.5-3-81.8,24.3-91.3,66c-5.6,24.8,0.3,50.7,15.9,70.7c0.4,0.5,1.1,0.6,1.7,0.2c0.2-0.1,0.3-0.4,0.4-0.6l8.8-29.8
	c0.1-0.3,0.1-0.6-0.1-0.9c-6.9-14.6-8.8-31-5.2-46.7C114.8,26.2,144,3.8,177,2.5c0.6,0,1.1-0.5,1.1-1.2c0,0,0,0,0,0
	C178.2,0.9,178,0.3,177.1,0.2z M101.3,15.1c-39.6,15.7-63.1,57.4-53.6,99.1c5.7,24.7,22.2,45.6,45,56.8c0.6,0.3,1.3,0.1,1.6-0.5
	c0.1-0.2,0.1-0.5,0.1-0.7l-5-30.7c-0.1-0.3-0.2-0.6-0.4-0.7C76.3,128.2,67.5,114.2,64,98.4c-7.5-32.9,9-65.8,38.3-81.3
	c0.6-0.3,0.8-1,0.5-1.6c0,0,0,0,0,0c-0.2-0.5-0.8-0.8-1.3-0.6C101.4,15,101.3,15.1,101.3,15.1z M39.5,61.5
	c-28.9,31.4-32,79.1-5.4,112.5c15.9,19.8,39.8,31.4,65.2,31.6c0.7,0,1.2-0.5,1.2-1.2c0-0.2-0.1-0.5-0.2-0.7l-17.9-25.4
	c-0.2-0.2-0.4-0.4-0.7-0.5c-15.7-3.7-29.7-12.5-39.7-25.1c-21-26.4-20.4-63.2-0.8-89.8c0.4-0.5,0.3-1.2-0.2-1.6
	c-0.4-0.4-1-0.4-1.4,0C39.6,61.3,39.5,61.4,39.5,61.5L39.5,61.5z M3.9,130c-12.4,40.8,5.5,85.2,44,103.7c22.9,11,49.5,11,72.5,0.2
	c0.6-0.3,0.8-1,0.6-1.6c-0.1-0.2-0.3-0.4-0.5-0.5l-27.1-15.2c-0.3-0.1-0.6-0.2-0.8-0.1c-15.7,3.5-32.2,1.6-46.7-5.4
	C15.4,196.5,0,163,6.1,130.5c0.1-0.6-0.3-1.2-0.9-1.4c0,0,0,0,0,0C4.8,129.1,4.2,129.1,3.9,130L3.9,130z M1.6,207.2
	c6.5,42.1,41.9,74.3,84.6,74.3c25.4-0.1,49.4-11.5,65.4-31.3c0.4-0.5,0.3-1.2-0.2-1.7c-0.2-0.2-0.4-0.2-0.7-0.3l-31-1.9
	c-0.3,0-0.6,0.1-0.8,0.3c-12.7,10-28.3,15.4-44.4,15.4c-33.7,0-62.1-23.5-70.7-55.4c-0.2-0.6-0.8-1-1.4-0.9
	C1.9,206,1.4,206.3,1.6,207.2L1.6,207.2z M33.1,277.8c24.1,35.1,70,48.8,108.5,30.3c22.8-11.1,39.5-31.8,45.4-56.5
	c0.2-0.6-0.2-1.3-0.9-1.4c-0.2-0.1-0.5,0-0.7,0l-28.8,11.7c-0.3,0.1-0.5,0.3-0.6,0.6c-7.1,14.5-18.8,26.2-33.3,33.2
	c-30.4,14.6-66.2,5.8-87.7-19.3c-0.4-0.5-1.2-0.6-1.6-0.1c0,0,0,0,0,0c-0.5,0.3-0.6,0.9-0.3,1.4C33,277.7,33,277.7,33.1,277.8z
	 M92,327.7c37,21.2,84.2,13.6,110.9-19.8c15.8-19.9,21.8-45.8,16.3-70.6c-0.1-0.6-0.8-1-1.4-0.9c-0.2,0.1-0.4,0.2-0.6,0.3
	l-20.9,23.1c-0.2,0.2-0.3,0.5-0.3,0.8c-0.1,16.1-5.6,31.7-15.6,44.3c-21,26.4-57.1,34-87.4,20.7c-0.6-0.3-1.3,0-1.5,0.6
	c-0.3,0.5-0.1,1.1,0.4,1.4C91.8,327.7,91.9,327.7,92,327.7L92,327.7z M166.7,347.1c42.5,3,81.8-24.3,91.3-66
	c5.6-24.7-0.3-50.7-15.9-70.6c-0.4-0.5-1.1-0.6-1.7-0.2c-0.2,0.1-0.3,0.4-0.4,0.6l-8.8,29.8c-0.1,0.3-0.1,0.6,0,0.9
	c6.9,14.6,8.8,31,5.2,46.7c-7.5,32.9-36.7,55.4-69.8,56.6c-0.6,0-1.2,0.6-1.1,1.2c0,0,0,0,0,0C165.5,346.5,165.7,347.1,166.7,347.1z
	 M242.5,332.2c39.6-15.7,63.1-57.4,53.6-99c-5.7-24.7-22.2-45.6-45-56.8c-0.6-0.3-1.3-0.1-1.6,0.5c-0.1,0.2-0.1,0.5-0.1,0.7l5,30.7
	c0,0.3,0.2,0.6,0.4,0.7c12.6,10.1,21.3,24.1,24.9,39.9c7.5,32.9-9,65.8-38.3,81.3c-0.6,0.3-0.8,1-0.5,1.6c0.2,0.5,0.7,0.8,1.3,0.6
	C242.3,332.3,242.4,332.3,242.5,332.2L242.5,332.2z M304.3,285.9c28.9-31.4,32-79.1,5.4-112.5c-15.9-19.8-39.8-31.4-65.2-31.6
	c-0.7,0-1.2,0.5-1.2,1.2c0,0.2,0.1,0.5,0.2,0.7l17.9,25.5c0.2,0.2,0.4,0.4,0.7,0.5c15.7,3.7,29.7,12.5,39.8,25.1
	c21,26.4,20.4,63.2,0.8,89.8c-0.4,0.5-0.3,1.2,0.2,1.6c0,0,0,0,0,0c0.4,0.4,1,0.4,1.4,0C304.2,286,304.2,286,304.3,285.9
	L304.3,285.9z M339.8,217.3c12.4-40.8-5.5-85.2-44-103.7c-22.9-11-49.5-11-72.5-0.2c-0.6,0.3-0.8,1-0.6,1.6c0.1,0.2,0.3,0.4,0.5,0.5
	l27.1,15.2c0.3,0.1,0.6,0.2,0.9,0.1c15.7-3.5,32.2-1.6,46.7,5.4c30.4,14.6,45.8,48.1,39.7,80.6c-0.1,0.6,0.3,1.2,0.9,1.4
	C339,218.3,339.6,218.3,339.8,217.3L339.8,217.3z"/>
<path class="st1" d="M776.6,51.4h59.8v244.3h-59.8v-95.7h-88.8v95.7h-59.8V102.7h-76.6v193.1h-59.8V102.7h-85.8V51.4h282v97.7h88.8
	V51.4z M1021.8,51.4v172.4c0,11.6-7.6,17.8-19.2,17.8h-41.9c-11.6,0-19.2-6.2-19.2-17.8V51.4h-59.9v182.2c0,40.4,26.4,62,66.9,62
	h66.3c40.4,0,66.8-21.6,66.8-62V51.4L1021.8,51.4z"/>
</svg>
