<?xml version="1.0" encoding="utf-8"?>
<!-- Generator: Adobe Illustrator 24.1.2, SVG Export Plug-In . SVG Version: 6.00 Build 0)  -->
<svg version="1.1" id="svg3460" xmlns:svg="http://www.w3.org/2000/svg"
	 xmlns="http://www.w3.org/2000/svg" xmlns:xlink="http://www.w3.org/1999/xlink" x="0px" y="0px" viewBox="0 0 678 198"
	 style="enable-background:new 0 0 678 198;" xml:space="preserve">
<style type="text/css">
	.st0{opacity:0.85;fill:#91ACBC;enable-background:new    ;}
</style>
<g id="layer1" transform="translate(-233.26812,-504.90237)">
	<path id="path2608" class="st0" d="M331.3,504.9v1.5h1.7v10.7h-1.8v1.5h5.5l0.1-1.5H335l0.1-10.7l1.7,0.1v-1.6H331.3z M340.9,505
		l-0.5,3.5l1.7,0.2l0.2-2l2.6,0.3l-1.4,10.6l-1.8-0.2l-0.2,1.5l5.6,0.7l0.2-1.5l-1.8-0.2l1.4-10.5l2.6,0.3l-0.2,2l1.7,0.2l0.5-3.5
		L340.9,505z M326.1,505.1l-1.7,0.1l0.1,1c-1-0.8-1.8-1.1-3.2-0.9c-2.3,0.3-3.8,1.9-3.6,4.1c0.1,0.9,0.5,1.6,1.2,2.1
		c0.6,0.5,1.2,0.8,2.9,1.2c2.1,0.5,2.6,0.7,3,1c0.4,0.3,0.6,0.9,0.7,1.5c0.2,1.4-0.6,2.4-2.3,2.6c-1.1,0.1-2.1-0.2-2.7-0.9
		c-0.4-0.4-0.6-0.9-0.8-1.9l-1.7,0.1l0.5,4.5l1.7-0.2l-0.1-1.1c1.1,0.9,2.2,1.2,3.6,1c2.6-0.3,4.2-2.2,3.9-4.5
		c-0.1-1-0.5-1.8-1.2-2.4c-0.7-0.6-1.3-0.9-3.6-1.5c-2.4-0.6-3-0.9-3.2-1.9c-0.1-1.2,0.8-2.1,2.3-2.3c1.7-0.2,2.6,0.6,2.9,2.4
		l1.6-0.2L326.1,505.1z M357,507.6l-0.8,2.5l2.4,0.7l0.7-2.5L357,507.6z M308.1,508.4c-0.7,0.1-1.6,0.3-2.9,0.7l-4.6,1.4l0.3,1.5
		l1.7-0.6l2.8,10.4l-1.7,0.5l0.5,1.4l5.1-1.4l-0.3-1.5l-1.6,0.5l-1.2-4.5l2.6-0.7l4.3,5.2l3.2-0.9l-0.5-1.5l-1.6,0.5l-3.7-3.9
		c1.9-1.1,2.5-2.5,2-4.3c-0.4-1.3-1.3-2.2-2.6-2.5C309.2,508.4,308.8,508.3,308.1,508.4z M361.1,508.8l-7.7,10.6l-1.6-0.6l-0.5,1.5
		l4.8,1.4l0.3-1.2l-1.5-0.5l1.7-2.4l4.5,1.4v2.8l-1.5-0.5l-0.5,1.4l5.4,1.6l0.3-1.5l-1.7-0.5l-0.5-13L361.1,508.8z M307.7,510
		c0.4-0.1,0.6,0,0.9,0c0.8,0.1,1.4,0.7,1.7,1.6c0.2,0.8,0.1,1.5-0.5,2c-0.4,0.5-0.9,0.7-2.5,1.1l-1.7,0.5l-1.2-4.3l1.7-0.5
		C306.9,510.2,307.4,510,307.7,510z M365,510.2l-0.7,2.5l2.3,0.7l0.8-2.5L365,510.2z M361.4,510.9c-0.1,1.1-0.1,1.5-0.1,4.1l0.1,2.5
		l-3.6-1l1.4-1.9C360.3,512.6,361,511.6,361.4,510.9z M295.2,512.5l-8.9,4.3l0.7,1.4l1.6-0.8l4.5,9.6l-1.6,0.8l0.7,1.4l9-4.3
		l-1.6-3.4l-1.6,0.8l0.9,1.9L295,526l-2.1-4.4l4.5-2l-0.7-1.5l-4.5,2.1l-1.8-3.8l3.9-1.8l0.8,1.7l1.5-0.8L295.2,512.5z M372.6,513
		l-1.6,3.2l1.5,0.8l0.9-1.9l2.4,1.2l-4.7,9.5l-1.6-0.8l-0.7,1.4l5.1,2.5l0.7-1.2l-1.6-0.8l4.7-9.6l2.3,1.1l-0.9,1.9l1.6,0.7l1.6-3.2
		L372.6,513z M282.5,519l-4.2,2.8l0.8,1.2l1.2-0.8l1.4,4.8c0.1,0.4,0.7,2,0.9,2.7c0.4,1.2,0.6,2.1,0.8,2.7c-0.3-0.2-0.6-0.4-0.9-0.7
		c-1.8-1.5-2.2-1.9-3.4-2.8l-4.1-3.2l1.2-0.9l-0.8-1.2l-4.5,3.2l0.9,1.1l1.5-0.9l10.3,7.8l1.6-1.1l-3.3-12.6l1.4-0.9L282.5,519z
		 M536.3,519.5v4.2h3.2v-4.2H536.3z M629.9,519.5v4.2h3v-4.2H629.9z M659.8,522.1v4.2h3.7v-4.2H659.8z M668.2,522.1v4.2h3.7v-4.2
		H668.2z M390.7,522.9l-1,1.2l1.4,1l-4.1,5c-1.6,1.9-1.9,2.4-2,3.3c-0.3,1.6,0.5,3.3,2,4.6c1.4,1.1,2.9,1.6,4.3,1.2
		c1-0.2,1.8-0.9,3.3-2.7l4.2-5l1.4,1l1-1.1l-4.2-3.4l-0.9,1.2l1.4,1.1l-4.2,5c-1.3,1.6-1.5,1.8-1.9,2c-0.9,0.5-2.1,0.3-3.2-0.6
		c-1-0.8-1.4-1.8-1.2-2.7c0.1-0.6,0-0.7,1.7-2.7l4.1-5l1.5,1.1l0.9-1.1L390.7,522.9z M646,523.3l-3.2,1.1v6.1h-5v2.7h5v14.8
		c0,4.6,0.2,8.4,5.7,8.4c1.5,0,3.1-0.4,3.8-0.7l-0.2-2.6c-0.9,0.3-1.6,0.6-2.8,0.6c-2.5,0-3.4-1.9-3.4-4.2v-16.3h5.7v-2.7H646V523.3
		z M687.3,523.3l-3,1.1v6.1h-5v2.7h5v14.8c0,4.6,0.2,8.4,5.7,8.4c1.5,0,3.1-0.4,3.8-0.7l-0.2-2.6c-0.9,0.3-1.7,0.6-2.9,0.6
		c-2.5,0-3.4-1.9-3.4-4.2v-16.3h5.7v-2.7h-5.7V523.3z M722.5,523.5v160h13.1v-160H722.5z M333.7,524.1c-44,0-79.8,35.7-79.8,79.8
		c0,44.1,35.7,79.9,79.8,79.9c44,0,79.7-35.8,79.7-79.9C413.3,559.8,377.7,524.1,333.7,524.1z M333.7,528.1
		c9.3,0,16.5,9.1,21.4,23.8c3.6-1.8,7-3.2,10.3-4.2c0.1-0.7,0.5-1.4,1-1.9c1.5-1.5,3.8-1.5,5.3,0c0.1,0.1,0.2,0.2,0.3,0.3
		c6.3-0.8,11.6,0.4,15.2,4.1c6.6,6.6,5.3,18.3-1.7,32.1c4,1.3,7.7,2.9,10.8,4.6c0.6-0.3,1.2-0.6,1.9-0.6c2.1,0,3.7,1.7,3.7,3.8
		c0,0.2,0,0.3,0,0.5c4.7,3.8,7.4,8.2,7.4,13.2c0,9.3-9.2,16.6-23.9,21.5c2,3.9,3.5,7.7,4.5,11.2c0.6,0.2,1.2,0.5,1.7,1
		c1.5,1.5,1.5,3.8,0,5.3c-0.1,0.1-0.2,0.2-0.3,0.3c0.6,5.9-0.7,10.8-4.2,14.3c-6.6,6.6-18.3,5.3-32.1-1.7c-1.4,4.1-2.9,7.8-4.6,10.9
		c0.5,0.7,0.9,1.6,0.9,2.5c0,2.1-1.7,3.7-3.8,3.7c-0.4,0-0.7,0-1-0.1c-3.7,4.4-8,6.9-12.8,6.9c-9.3,0-16.7-9.2-21.5-23.9
		c-3.9,1.9-7.6,3.5-11,4.5c0,1-0.4,2-1.1,2.8c-1.5,1.5-3.8,1.5-5.3,0c-0.4-0.4-0.7-1-0.9-1.5c-5.6,0.5-10.4-0.8-13.7-4.2
		c-6.6-6.6-5.2-18.3,1.7-32.1c-3.9-1.3-7.3-2.7-10.4-4.3c-0.7,0.8-1.8,1.2-2.9,1.2c-2.1,0-3.7-1.6-3.7-3.7c0-0.6,0.1-1.2,0.3-1.7
		c-4.6-3.7-7.2-8.1-7.2-13.1c0-9.3,9.2-16.6,23.9-21.5c-1.8-3.5-3.2-6.8-4.2-10c-1.1,0.1-2.2-0.3-3-1.1c-1.5-1.5-1.5-3.9,0-5.4
		c0.4-0.4,1-0.7,1.5-0.9c-0.7-6,0.5-11,4.1-14.5c6.6-6.6,18.3-5.3,32.1,1.7c1.2-3.8,2.6-7.2,4.2-10.1c-0.6-0.7-0.9-1.6-0.9-2.6
		c0-2.1,1.6-3.7,3.7-3.7c0.4,0,0.8,0,1.1,0.1C324.1,530.8,328.6,528.1,333.7,528.1z M267.6,529.8l-3.9,3.8l1,1l1.2-1.1l7.3,7.8
		l-1.2,1.1l1,1.1l4.1-3.8l-1-1.1l-1.4,1.2l-7.3-7.8l1.2-1.1L267.6,529.8z M519.8,529.9c-5.3,0-7.1,2.8-8.1,5.1h-0.1v-4.5h-3
		c0.2,2,0.2,4,0.2,6v19.4h3.2v-14.1c0-4.2,1.7-9.1,7.4-9.1c4.3,0,6,3,6,7.8v15.4h3.2v-16.2C528.5,534.1,526.1,529.9,519.8,529.9z
		 M578.1,529.9c-6.4,0-10.6,5.5-10.6,13.2c0,7.6,3.1,13.3,11.5,13.3c2.3,0,5.1-0.6,7.3-1.5v-3.2c-1.5,0.9-4.8,1.9-7.1,1.9
		c-5.5,0-8.3-4.3-8.3-9.7h17.4v-1.6C588.2,535.6,585.2,529.9,578.1,529.9z M603.7,529.9c-3.2,0-5.4,2.6-6.5,5.4H597v-4.8h-3
		c0.2,1.8,0.1,2.9,0.1,5.6v19.7h3.2v-12.5c0-4.6,1.4-10.1,6.3-10.1c0.8,0,1.6,0.1,2.3,0.3v-3.3C605.3,530.1,604.4,529.9,603.7,529.9
		z M617,529.9c-4.2,0-8.2,1.9-8.2,6.9c0,7.3,12.2,6.4,12.2,12.4c0,2.9-2.7,4.5-5.6,4.5c-2.4,0-4.8-0.6-6.6-1.6l-0.2,3
		c2.2,0.9,4.7,1.2,7.1,1.2c3.8,0,8.8-1.9,8.8-7.2c0-8.3-12.4-7.7-12.4-12.4c0-3.2,2.2-4.2,5.4-4.2c1.7,0,4,0.4,5.6,1.1l0.2-2.7
		C620.9,530.2,618.3,529.9,617,529.9z M665.9,529.9c-2.2,0-5.5,0.7-7.4,1.7v3c2.3-1.5,4.8-2,7.4-2c4.2,0,5.7,2.1,5.7,6.4v1.4H671
		c-6.5,0-15.7,0.3-15.7,8.8c0,2.3,1.1,7.2,8.3,7.2c3.1,0,6.7-1.7,8.1-4.7v4.2h3.2c-0.3-1.7-0.2-3.4-0.2-5.4v-11.2
		C674.8,532.7,672.1,529.9,665.9,529.9z M479.7,530.5v16.2c0,5.6,2.4,9.7,8.7,9.7c5.3,0,7.1-2.8,8.1-5.1h0.1v4.5h3
		c-0.2-2-0.2-4-0.2-6v-19.4h-3.2v14c0,4.2-1.7,9.2-7.4,9.2c-4.3,0-6-3-6-7.8v-15.4H479.7z M536.3,530.5v25.3h3.2v-25.3H536.3z
		 M543.8,530.5l8.6,25.3h3.7l8.9-25.3h-3.3l-7.3,21.9h-0.1l-7-21.9H543.8z M629.9,530.5v25.3h3v-25.3H629.9z M333.7,531.8
		c-4.2,0-7.9,2-11.3,5.5c0.4,0.6,0.6,1.2,0.6,1.9c0,2.1-1.7,3.8-3.8,3.8c-0.3,0-0.6,0-0.9-0.1c-1.7,2.8-3.3,6.1-4.6,9.8
		c6.3,3.3,13,7.7,19.9,13.1c6.9-5.4,13.7-9.9,20.1-13.2C348.9,539.8,342.1,531.8,333.7,531.8z M578.3,532.6c4.7,0,6.4,4.3,6.4,8.7
		h-13.9C570.9,537.1,573.7,532.6,578.3,532.6z M404.7,535.3l-1.1,0.9l1.1,1.4l-8.1,7l-1.1-1.4l-1.1,0.9l6.5,7.8l2.8-2.5l-1.1-1.2
		l-1.7,1.4L398,546l8.1-6.9l1.1,1.4l1.1-0.9L404.7,535.3z M260.3,536.9l-3.3,4.2l1.1,0.9l1.1-1.5l3.2,2.5c1.7,1.3,3.1,2.4,4.4,3.4
		c-2.2-0.5-5.4-1.1-7.3-1.5l-4.8-0.8l-2.6,3.3l1.1,0.9l1.1-1.4l8.2,6.6l-1,1.4l1.1,0.9l3.3-4.1l-1.1-0.9l-1.1,1.5l-3.4-2.7
		c-0.5-0.4-3.3-2.6-4.8-3.7c0.5,0.1,1.1,0.1,1.6,0.2c2.7,0.6,3.4,0.8,5.9,1.2l5.7,1l1.2-1.6l-9.5-7.5l1.1-1.4L260.3,536.9z
		 M670.7,543h0.9v1.6c0,2.7-0.2,9.1-7.5,9.1c-2.9,0-5.2-1.2-5.2-4.5C658.9,543.6,665.3,543,670.7,543z M414.4,546.9l-1.4,0.8l1,1.6
		l-9.2,5.4l-0.9-1.6l-1.2,0.8l2.7,4.5l1.2-0.7l-1-1.6l4.3-2.5c3.1-1.9,3.4-2.1,5-3c-1.3,1.4-2.8,3-4.4,4.7l-3.7,4.1l0.9,1.6l5.5-1.1
		c2.2-0.4,3.3-0.7,6.2-1.5l-1.8,1l-1,0.6l-1.1,0.7c-0.5,0.3-0.9,0.5-1,0.6l-4.3,2.5l-0.9-1.6l-1.2,0.8l2.8,4.7l1.2-0.7l-0.9-1.6
		l9.2-5.4l0.9,1.6l1.2-0.8l-2.4-4.1l-5.3,1.2c-2.8,0.6-3.5,0.7-6.1,1.4c1.9-1.9,2.7-2.6,4.3-4.3l3.7-3.9L414.4,546.9z M294.8,548.8
		c-4.9-0.2-9.1,1.1-12.1,4.1c-3,3-4.2,7.1-4.1,12.1c0.5,0.2,0.9,0.4,1.2,0.8c1.5,1.5,1.5,3.9,0,5.4l-0.3,0.2c0.8,3.3,2,6.8,3.7,10.5
		c6.8-2.1,14.9-3.8,23.5-4.8c1.1-8.7,2.6-16.7,4.7-23.5C305.4,550.6,299.7,549,294.8,548.8z M372.8,548.8c-0.1,0.9-0.5,1.7-1.1,2.4
		c-1.5,1.5-3.8,1.5-5.3,0c-0.4-0.4-0.7-0.9-0.9-1.4c-3.1,0.8-6.3,2.1-9.8,3.7c2.1,6.8,3.8,14.7,4.8,23.4c8.7,1.1,16.6,2.7,23.4,4.8
		c5.8-12.5,6.5-23,0.6-29C381.5,550,377.5,548.7,372.8,548.8z M249.2,551.9l-2.5,4.6l1.2,0.8l0.9-1.6l5.7,3c1.8,1,1.9,1.2,2.3,1.6
		c0.7,0.8,0.7,2,0,3.3c-0.6,1.1-1.4,1.7-2.4,1.7c-0.6,0-0.6,0-2.9-1.2l-5.6-3l0.8-1.6l-1.2-0.7l-2.7,5l1.4,0.7l0.8-1.6l5.6,3.2
		c2.2,1.2,2.7,1.3,3.6,1.4c1.6,0,3.1-1.1,4.1-2.9c0.8-1.6,1-3.2,0.5-4.5c-0.4-1-1.2-1.5-3.3-2.6l-5.7-3.2l0.9-1.6L249.2,551.9z
		 M313.2,554.2c-2.2,6.5-4,14.2-5.2,22.6c4.5-0.5,9.1-1,14-1.2c3.6-3.3,7.2-6.2,10.7-9C325.9,561.5,319.3,557.3,313.2,554.2z
		 M354.2,554.2c-6.2,3-12.8,7.2-19.6,12.4c3.5,2.8,7.1,5.8,10.7,9c4.8,0.2,9.6,0.7,14.1,1.2C358.2,568.4,356.4,560.8,354.2,554.2z
		 M333.7,567.3c-3.3,2.6-6.7,5.4-10,8.3c3.3-0.1,6.6-0.2,10-0.2c3.4,0,6.6,0.1,9.9,0.2C340.2,572.7,337,569.9,333.7,567.3z
		 M247.2,569.1c-0.5,0-0.9,0.2-1.2,0.6c-0.7,0.7-0.7,2,0,2.7c0.7,0.7,1.8,0.7,2.6,0c0.7-0.7,0.7-2,0-2.7
		C248.2,569.3,247.7,569.1,247.2,569.1z M418.7,569.1c-0.5,0-1,0.2-1.4,0.6c-0.7,0.7-0.7,2,0,2.7c0.7,0.7,2,0.7,2.7,0
		c0.7-0.7,0.7-2,0-2.7C419.7,569.3,419.2,569.1,418.7,569.1z M809.2,574.6c-22.7,0-29,13.3-33.1,20.6l-0.5-0.1v-18H763
		c0.8,8.5,0.8,17,0.8,25.1v81.2h13.2v-58.8c0-26.5,14.1-38.8,28.5-38.8c16.9,0,22.5,11.9,22.5,26.9v70.6H841v-58.8
		c0-26.5,14.2-38.8,28.6-38.8c16.9,0,22.4,11.9,22.4,26.9v70.6h13.2v-73.1c0-20.6-12.1-35.7-33.6-35.7c-16.7,0-29.1,10-33.9,22.5
		h-0.5C834,578.6,818.5,574.6,809.2,574.6z M424.5,575.4c-0.9,0.2-1.5,0.8-1.9,1.6c-0.4,0.7-0.6,1.4-0.8,3.2
		c-0.3,2.1-0.4,2.6-0.7,3.2c-0.2,0.4-0.7,0.7-1.2,0.9c-1.4,0.4-2.4-0.5-2.8-2c-0.3-1.1-0.1-2.1,0.5-2.8c0.4-0.5,0.8-0.7,1.8-1
		l-0.5-1.7l-4.3,1.1l0.5,1.7l1.1-0.2c-0.7,1.2-0.9,2.2-0.6,3.6c0.7,2.6,2.7,4,5,3.4c1-0.3,1.8-0.8,2.3-1.6c0.5-0.8,0.6-1.5,0.9-3.8
		c0.3-2.5,0.6-3.1,1.6-3.4c1.1-0.3,2,0.5,2.4,1.9c0.4,1.7-0.1,2.7-1.8,3.3l0.3,1.5l3.8-0.9l-0.5-1.6l-0.9,0.2
		c0.6-1.1,0.7-2.1,0.3-3.4C428.4,576.2,426.5,574.9,424.5,575.4z M242.4,575.9c-2.7,0.2-4.8,1.8-5.4,4.5c-0.8,3.5,1.4,6.6,5.4,7.5
		c4.2,1,7.5-0.6,8.3-4.2c0.8-3.5-1.3-6.6-5.4-7.5C244.3,576,243.3,575.8,242.4,575.9z M333.5,576.4c-3.8,0-7.5,0-11.2,0.2
		c-2.7,2.5-5.5,5.1-8.2,7.8c-2.7,2.7-5.2,5.4-7.7,8.1c-0.2,3.7-0.2,7.4-0.2,11.3c0,3.8,0,7.6,0.2,11.3c2.4,2.7,5.1,5.4,7.8,8.1
		c2.7,2.7,5.4,5.3,8.1,7.8c3.6,0.2,7.3,0.2,11.2,0.2c3.8,0,7.6,0,11.3-0.2c2.7-2.5,5.4-5.1,8.1-7.8c2.7-2.7,5.3-5.4,7.8-8.1
		c0.2-3.6,0.3-7.5,0.3-11.3c0-3.8-0.2-7.5-0.3-11.2c-2.5-2.7-5-5.5-7.7-8.2c-2.7-2.7-5.5-5.3-8.2-7.8
		C341.1,576.5,337.4,576.4,333.5,576.4z M333.5,576.7c0.7,0,1.2,0.6,1.2,1.2v15c5.7-0.4,10.6-3.3,10.6-6.2c0-1.8-1.9-3.6-4.6-4.8
		c-0.6,0.2-1.3,0.3-2.1,0.1c-1.6-0.3-2.7-1.1-2.6-1.9c0.1-0.8,1.5-1.3,3.2-1c1.2,0.2,2.1,0.8,2.5,1.4c4.1,1.3,6.8,3.7,6.8,6.3
		c0,3.2-3.9,5.9-9.5,7c4.7,1.1,8,3.3,8,6.1c0,2.9-3.5,5.3-8.6,6.3c4.3,0.9,7.2,3,7.2,5.5c0,2.6-3.2,4.7-7.7,5.6
		c3.8,0.9,6.4,2.9,6.4,5.1c0,2.6-3.6,4.8-8.6,5.3c0,0-0.2-0.2-0.2-0.5c0-0.2,0.2-0.5,0.2-0.5c3.6-0.6,6.4-2.5,6.4-4.4
		c0-2-3.5-4.1-7.4-4.5v11.6c0,0.6-0.6,1.1-1.2,1.1c-0.7,0-1.2-0.5-1.2-1.1v-11.6c-3.9,0.4-7.2,2.5-7.2,4.5c0,1.9,2.7,3.8,6.3,4.4
		c0,0,0.2,0.2,0.2,0.5c0,0.3-0.2,0.5-0.2,0.5c-4.9-0.5-8.6-2.7-8.6-5.3c0-2.2,2.6-4.2,6.4-5.1c-4.5-0.9-7.7-3.1-7.7-5.6
		c0-2.5,3-4.6,7.2-5.5c-5-1-8.6-3.5-8.6-6.3c0-2.7,3.3-5,8-6.1c-5.6-1.1-9.5-3.8-9.5-7c0-2.6,2.7-5,6.8-6.3c0.4-0.6,1.3-1.1,2.5-1.4
		c1.6-0.3,3.1,0.2,3.3,1c0.1,0.8-1.1,1.6-2.7,1.9c-0.8,0.1-1.6,0.1-2.1-0.1c-2.8,1.2-4.6,3.1-4.6,4.8c0,2.9,4.8,5.8,10.5,6.2v-15
		C332.3,577.3,332.9,576.7,333.5,576.7z M320.7,576.8c-4.5,0.3-8.7,0.7-12.8,1.2c-0.5,4.1-1,8.5-1.2,13c2.2-2.4,4.5-4.8,6.9-7.2
		C315.9,581.4,318.3,579,320.7,576.8z M346.5,576.8c2.4,2.2,4.8,4.6,7.2,7c2.4,2.4,4.8,4.8,7,7.2c-0.3-4.5-0.7-8.8-1.2-13
		C355.3,577.5,351,577,346.5,576.8z M609.9,576.9v68.2c0,23.4,10,40.9,36.3,40.9c22.1,0,30.1-11.9,34.5-21.5h0.5v19h12.7
		c-0.8-8.6-0.9-16.9-0.9-25v-81.6h-13.2v58.9c0,17.8-7.4,38.9-31.4,38.9c-18.2,0-25.3-13-25.3-33v-64.8H609.9z M479.5,577v67.3
		c0,24,11,41.7,36.2,41.7c14.5,0,26.5-6.6,34.9-16.9h0.5v14.4h26.1V577h-27.6v52.2c0,13.6-4.4,35.4-24.4,35.4
		c-17.8,0-17.9-17.6-17.9-30.6V577H479.5z M242.5,578c0.7,0,1.4,0.1,2.3,0.3c3.4,0.8,5.1,2.6,4.5,5c-0.6,2.4-2.8,3.3-6.3,2.5
		c-3.3-0.8-5-2.7-4.4-5.1C239,578.9,240.4,578,242.5,578z M306.6,578.1c-8.5,1.2-16,2.8-22.5,5.1c3,6.2,7.1,12.9,12.3,19.7
		c2.8-3.6,5.9-7.1,9.1-10.7C305.7,587.4,306.1,582.6,306.6,578.1z M360.6,578.1c0.5,4.5,0.9,9.2,1.1,14.1c3.2,3.6,6.3,7.2,9.1,10.7
		c5.2-6.8,9.4-13.4,12.4-19.6C376.7,581.1,369,579.3,360.6,578.1z M282.5,583.8c-12.9,4.7-20.8,11.6-20.8,20.1
		c0,4.2,1.9,7.9,5.4,11.3c0.4-0.2,0.8-0.3,1.4-0.3c2.1,0,3.8,1.7,3.8,3.8v0.5c2.9,1.8,6.3,3.4,10.3,4.8c3.3-6.3,7.8-13.1,13.2-20.1
		C290.3,596.9,285.8,590.1,282.5,583.8z M384.7,583.9c-3.3,6.3-7.8,13-13.2,19.9c5.4,6.9,9.9,13.7,13.2,20.1
		c12.9-4.7,20.8-11.6,20.8-20.1c0-4-1.8-7.5-5-10.7c-0.7,0.5-1.4,0.8-2.4,0.8c-2.1,0-3.8-1.6-3.8-3.7c0-0.6,0.1-1.2,0.3-1.7
		C391.9,586.8,388.5,585.3,384.7,583.9z M425.8,589.6c-0.5,0-1,0.1-1.6,0.1c-4.3,0.5-6.7,3-6.3,6.6c0.2,1.7,1,2.9,2.3,3.6
		c0.9,0.5,1.8,0.7,3.4,0.6l-0.2-1.8c-2.4,0.1-3.6-0.7-3.8-2.6c-0.3-2.3,1.6-3.9,5-4.3c3.5-0.4,5.7,0.8,6,3.2
		c0.2,1.8-0.6,2.9-2.6,3.3l0.2,1.7l4.2-0.6l-0.2-1.6l-1,0.1c0.8-1,1.2-2.1,1-3.4C431.7,591.6,429.3,589.7,425.8,589.6z M240,592.1
		c-1.6,0.2-3,1-3.9,2.1c-1,1.2-1.4,2.3-1.6,5.2l-0.2,4.4l1.5,0.1l0.1-1.7l10.6,0.6l-0.1,1.8l1.5,0.1l0.3-4.3c0.2-2.6,0-3.6-0.7-4.8
		c-1.1-2-3.1-3.3-5.7-3.5C241.1,592.1,240.6,592,240,592.1z M305.4,593.8c-3,3.4-5.7,6.7-8.2,10c2.6,3.3,5.2,6.7,8.2,10
		c-0.1-3.3-0.1-6.6-0.1-10C305.3,600.4,305.2,597.1,305.4,593.8z M361.8,593.8c0.1,3.3,0.2,6.6,0.2,10c0,3.4-0.1,6.8-0.2,10
		c3-3.3,5.8-6.7,8.3-10C367.6,600.5,364.8,597.1,361.8,593.8z M240.1,594.2c0.4-0.1,1,0,1.5,0c1.9,0.1,3.3,0.8,4.2,1.9
		c0.7,0.9,1,1.8,0.9,3.7l-0.1,0.9l-10.6-0.7l0.1-1c0.1-1.8,0.3-2.4,0.9-3.2C237.7,595.1,238.8,594.4,240.1,594.2z M332.3,594.2
		c-5,0.4-9.4,3-9.4,5.5c0,2.6,4.3,5.2,9.4,5.6V594.2z M334.8,594.2v11.2c5-0.4,9.5-3.1,9.5-5.6S339.8,594.7,334.8,594.2z
		 M296.4,604.7c-5.2,6.8-9.4,13.4-12.4,19.6c6.5,2.2,14.2,4,22.6,5.2c-0.5-4.5-0.9-9.1-1.1-14C302.2,611.9,299.2,608.3,296.4,604.7z
		 M370.8,604.7c-2.8,3.5-5.9,7.1-9.1,10.7c-0.2,4.8-0.6,9.6-1.1,14.1c8.4-1.2,16.2-2.8,22.6-5.1C380.2,618.3,376,611.5,370.8,604.7z
		 M418.5,604.8l-0.2,5.5h1.5l0.1-1.7l10.6,0.5l-0.1,1.7l1.6,0.1l0.2-5.5l-1.5-0.1l-0.1,1.7l-10.6-0.5v-1.7H418.5z M332.3,606.6
		c-4.5,0.4-8.2,2.7-8.2,5c0,2.3,3.8,4.7,8.2,5.1V606.6z M334.8,606.6v10c4.5-0.4,8.3-2.8,8.3-5.1C343.1,609.3,339.2,607,334.8,606.6
		z M236,609.5l-1.6,0.2l0.8,5.2l1.4-0.1l-0.2-1.8l3.9-0.6c2.1-0.3,3.9-0.6,5.5-0.9c-1.9,1.3-4.7,3.2-6.2,4.3l-3.9,3l0.6,4.1l1.5-0.1
		l-0.2-1.8l10.6-1.4l0.2,1.7l1.5-0.1l-0.8-5.3l-1.4,0.2l0.2,1.8l-4.3,0.6c-0.6,0.1-4.1,0.6-6,0.9c0.4-0.3,0.8-0.6,1.2-0.9
		c2.3-1.5,3-1.9,5-3.4l4.6-3.5l-0.2-1.9l-11.9,1.6L236,609.5z M418,613.7l-1.7,9.8l3.6,0.7l0.3-1.7l-2.1-0.5l0.7-4.3l4.8,0.8
		l-0.8,4.8l1.5,0.2l0.8-4.8l4.2,0.7l-0.7,4.3l-1.8-0.3l-0.3,1.7l3.3,0.6l1.7-9.7l-1.5-0.2l-0.3,1.7l-10.5-1.8l0.3-1.7L418,613.7z
		 M360.7,616.7c-2.2,2.4-4.6,4.9-7,7.3c-2.4,2.4-4.8,4.7-7.2,6.9c4.5-0.3,8.8-0.7,13-1.2C360,625.5,360.4,621.1,360.7,616.7z
		 M306.6,616.8c0.3,4.5,0.7,8.7,1.2,12.8c4.1,0.5,8.4,1,12.8,1.2c-2.4-2.2-4.8-4.5-7.2-6.9C311.1,621.6,308.8,619.2,306.6,616.8z
		 M250.1,623.7l-1.4,0.5l0.6,1.8l-10.4,7.8l0.7,1.9l13,0.1l0.6,1.7l1.4-0.6l-1.6-4.7l-1.2,0.5l0.5,1.5h-2.9l-1.5-4.4l2.4-1.8
		l0.5,1.6l1.4-0.5L250.1,623.7z M283.3,625.9c-5.8,12.4-6.5,22.9-0.6,28.8c2.8,2.8,6.6,4.2,11.2,4.2c0.2-0.4,0.4-0.9,0.8-1.2
		c1.5-1.5,3.8-1.5,5.3,0c0.1,0.1,0.3,0.3,0.5,0.5c3.5-0.8,7.2-2.1,11.2-3.9c-2.1-6.8-3.7-14.7-4.7-23.4
		C298.1,629.7,290.1,628,283.3,625.9z M383.9,625.9c-6.8,2.1-14.7,3.8-23.4,4.8c-1.1,8.7-2.7,16.6-4.8,23.4
		c12.4,5.8,22.9,6.5,28.8,0.6c2.8-2.8,4.1-6.4,4.2-10.8c-0.8-0.1-1.6-0.5-2.3-1.1c-1.5-1.5-1.5-3.8,0-5.3c0.4-0.4,0.8-0.7,1.4-0.9
		C386.9,633.3,385.7,629.7,383.9,625.9z M415.6,626.7l-1.7,5l1.4,0.5l0.6-1.7l4.1,1.5c0.6,0.2,3.9,1.3,5.7,1.9
		c-0.5,0.1-1,0.2-1.5,0.2c-2.8,0.3-3.5,0.4-6,0.8l-5.7,0.9l-0.7,1.9l11.4,4.1l-0.6,1.7l1.4,0.5l1.8-5l-1.4-0.6l-0.6,1.8l-3.7-1.4
		c-2-0.7-3.9-1.3-5.4-1.8c2.3-0.3,5.6-0.7,7.4-1l5-0.8l1.4-3.9l-1.4-0.5l-0.7,1.6l-10-3.5l0.7-1.7L415.6,626.7z M246.5,630.4
		l1.2,3.6h-2.4c-2.2,0-3.5,0.1-4.3,0.2c0.9-0.5,1.4-0.9,3.5-2.4L246.5,630.4z M308,630.9c1.2,8.4,2.8,16,5.1,22.5
		c6.2-3,12.8-7.1,19.6-12.3c-3.5-2.8-7.1-5.9-10.7-9.1C317.1,631.7,312.4,631.4,308,630.9z M359.2,630.9c-4.5,0.5-9.1,0.9-14,1.1
		c-3.6,3.3-7.2,6.3-10.7,9.1c6.8,5.2,13.4,9.4,19.6,12.4C356.4,647,358.1,639.3,359.2,630.9z M323.6,632.1c3.3,3,6.7,5.7,10,8.2
		c3.3-2.6,6.6-5.3,9.9-8.2c-3.3,0.1-6.5,0.2-9.9,0.2C330.3,632.3,326.9,632.2,323.6,632.1z M255.1,638.6l-1.2,0.7l0.8,1.6l-3.2,4.4
		c-1.5-1.6-2.9-1.8-4.5-0.9c-1.2,0.7-1.8,1.7-1.8,3c0,1.1,0.2,1.8,1.6,4.3l2.4,4.4l1.2-0.8l-0.8-1.5l9.4-5.1l0.8,1.5l1.4-0.7
		l-2.6-4.7l-1.2,0.7l0.8,1.5l-4.2,2.3l-1.2-2.4l4.1-5.3L255.1,638.6z M333.7,641.8c-6.9,5.4-13.7,9.9-20.1,13.2
		c4.7,12.9,11.6,21,20.1,21c3.9,0,7.4-1.7,10.6-4.8c-0.3-0.6-0.5-1.2-0.5-1.9c0-2.1,1.6-3.8,3.7-3.8c0.4,0,0.8,0,1.1,0.1
		c1.9-3,3.5-6.5,5-10.5C347.3,651.6,340.6,647.2,333.7,641.8z M409.7,642.1l-2.3,3.6c-1.3,2.2-1.7,3.2-1.7,4.6
		c0,2.3,1.3,4.5,3.5,5.9c2,1.2,4.1,1.4,6,0.7c1.5-0.6,2.2-1.4,3.7-3.8l2.4-3.8l-1.2-0.8l-1,1.6l-9-5.6l0.9-1.5L409.7,642.1z
		 M249,646c0.4,0,0.7,0,1,0.2c0.5,0.3,0.9,0.7,1.7,2.1l0.9,1.6l-3.9,2.1l-0.9-1.5c-0.8-1.4-0.9-2-0.9-2.5c-0.1-0.8,0.3-1.5,1.1-1.9
		C248.4,646,248.7,646,249,646z M409,646.2l9,5.5l-0.6,0.9c-0.9,1.5-1.5,2-2.4,2.4c-1.4,0.6-3.1,0.4-4.7-0.7c-1.6-1-2.7-2.2-2.9-3.6
		c-0.2-1.2,0-2.1,1-3.7L409,646.2z M263.1,655.2c-1,0-1.8,0.4-3.6,1.9l-5.1,4.2l-1.1-1.4l-1.1,1l3.4,4.1l1.1-1l-1.1-1.4l5-4.2
		c1.6-1.3,1.9-1.4,2.4-1.6c1-0.3,2.2,0.2,3,1.2c0.8,1,1,1.9,0.7,2.8c-0.2,0.6-0.3,0.7-2.3,2.4l-5,4.1l-1.1-1.4l-1.1,0.9l3.6,4.4
		l1.1-1l-1.1-1.4l5-4.1c1.9-1.6,2.3-2,2.6-2.8c0.6-1.5,0.2-3.3-1.1-4.8C266.1,655.9,264.5,655.1,263.1,655.2z M401.5,657.9
		c-1.6,0-3.2,0.5-4.4,1.9c-2.4,2.7-1.9,6.4,1.2,9.2c3.2,2.8,6.9,3,9.4,0.2c2.4-2.7,1.9-6.5-1.2-9.2
		C404.8,658.6,403.1,657.9,401.5,657.9z M400.4,659.7c1.3-0.2,2.9,0.5,4.6,2c2.6,2.3,3.2,4.7,1.6,6.5c-1.6,1.8-4.1,1.5-6.8-0.8
		c-2.6-2.3-3.2-4.8-1.6-6.6C398.8,660.1,399.5,659.8,400.4,659.7z M274.2,666.2c-0.3,0-0.7,0-1,0.1c-1.1,0.2-1.9,0.8-2.9,1.9
		l1.4,1.1c1.7-1.7,3.2-1.9,4.6-0.7c1.7,1.5,1.4,4.1-0.9,6.6c-2.4,2.7-4.7,3.3-6.5,1.7c-1.4-1.2-1.4-2.5-0.2-4.2l-1.2-1.1l-2.8,3.2
		l1.2,1.1l0.7-0.8c0.1,1.3,0.6,2.3,1.6,3.2c2.6,2.3,6.1,1.7,9-1.6c2.9-3.3,3-6.8,0.2-9.2C276.2,666.7,275.2,666.3,274.2,666.2z
		 M386.4,670.7l-3.5,2.4c-2.1,1.5-2.9,2.3-3.5,3.6c-1,2.1-0.6,4.5,0.9,6.6c1.3,1.9,3.1,3,5.1,3c1.6,0,2.7-0.3,5.1-1.9l3.6-2.6
		l-0.8-1.1l-1.5,0.9l-6-8.8l1.5-0.9L386.4,670.7z M392.8,671.5c-0.5,0-1,0.2-1.4,0.6c-0.7,0.7-0.7,1.9,0,2.6c0.7,0.7,2,0.7,2.7,0
		c0.7-0.7,0.7-1.9,0-2.6C393.8,671.7,393.3,671.5,392.8,671.5z M384.1,674.1l6,8.8l-0.9,0.6c-1.5,1-2.1,1.3-3,1.2
		c-1.5,0-3.1-1-4.2-2.6c-1.1-1.5-1.4-3.2-1.1-4.5c0.3-1.1,0.9-1.9,2.5-2.9L384.1,674.1z M282.2,678.3c-0.5,0-1,0.2-1.4,0.6
		c-0.7,0.7-0.7,2,0,2.7c0.7,0.7,2,0.7,2.7,0c0.7-0.7,0.7-2,0-2.7C283.2,678.5,282.7,678.3,282.2,678.3z M292.4,679
		c-2.4-0.1-4.8,1.4-6.2,4.3c-1.9,3.8-1,7.5,2.3,9.1c3.2,1.6,6.7,0.1,8.6-3.6c1.9-3.9,1-7.5-2.3-9.1C294,679.2,293.2,679,292.4,679z
		 M292.5,680.7c0.5,0,1,0.1,1.6,0.3c2.2,1.1,2.6,3.5,1,6.8c-1.5,3.1-3.8,4.2-6,3.2c-2.2-1.1-2.5-3.5-0.9-6.6
		C289.4,681.9,290.9,680.7,292.5,680.7z M370,681.1c-0.8,0-1.6,0.2-2.5,0.6c-3.3,1.5-4.5,5-2.8,8.9c1.7,3.9,5.1,5.5,8.4,4.1
		c3.3-1.4,4.4-5,2.7-8.8C374.6,682.8,372.5,681.1,370,681.1z M369.8,682.7c1.6,0.1,3,1.5,4.1,3.9c1.4,3.1,0.9,5.7-1.4,6.6
		c-2.2,1-4.3-0.4-5.7-3.6c-1.4-3.2-0.9-5.7,1.4-6.6C368.7,682.8,369.3,682.7,369.8,682.7z M307.1,685.6c-0.3,0-0.7,0-1,0.1
		c-2.2,0.6-3.9,2.3-4.6,4.8c-0.7,2.3-0.4,4.4,0.8,6c1,1.3,2,1.9,4.7,2.7l4.3,1.2l0.5-1.5l-1.7-0.5l3-10.3l1.7,0.6l0.3-1.5l-4.1-1.2
		C309.2,685.6,308.1,685.5,307.1,685.6z M354.3,686.4c-0.4,0-0.8,0.1-1.2,0.2c-1.7,0.4-2.8,1.3-3.4,2.7c-0.4,1-0.4,1.9,0,3.4
		l1.7-0.5c-0.4-2.4,0.2-3.7,2-4.2c2.2-0.6,4.1,1.1,5,4.4c0.9,3.5,0.1,5.7-2.3,6.3c-1.7,0.5-2.9-0.3-3.6-2.1l-1.6,0.5l1,4.1l1.6-0.3
		l-0.2-1c1.1,0.6,2.2,0.8,3.5,0.5c3.3-0.9,4.8-4.1,3.7-8.3C359.5,688.2,357.2,686.2,354.3,686.4z M308,687.1c0.6,0,1.2,0.2,2.1,0.5
		l0.9,0.2l-3,10.1l-1-0.2c-1.7-0.5-2.2-0.8-2.8-1.6c-0.9-1.2-1.2-3-0.7-4.8c0.5-1.8,1.6-3.1,2.8-3.7
		C306.8,687.3,307.4,687.1,308,687.1z M320.2,688.2l-1.2,12.1l-1.7-0.1l-0.2,1.5l5.3,0.6l0.1-1.5l-1.8-0.2l0.5-3.9
		c0.2-2.1,0.2-3.9,0.3-5.5c0.8,2.1,2.1,5.2,2.8,7l2,4.5l4.1,0.3l0.2-1.5l-1.8-0.1l1-10.6l1.8,0.1l0.1-1.5l-5.3-0.5l-0.1,1.4l1.8,0.2
		l-0.3,4.3c-0.1,0.6-0.4,4.2-0.6,6.1c-0.2-0.5-0.4-1-0.6-1.5c-1-2.6-1.2-3.4-2.1-5.6l-2.4-5.3L320.2,688.2z M345.1,688.4l-9.9,0.8
		l0.2,3.7l1.7-0.1l-0.1-2.3l4.4-0.3l0.3,4.8l-4.8,0.5l0.1,1.5l4.8-0.3l0.3,4.2l-4.2,0.3l-0.2-1.8l-1.7,0.1l0.2,3.4l9.8-0.8l-0.1-1.5
		l-1.7,0.1l-0.9-10.6l1.8-0.1L345.1,688.4z"/>
</g>
</svg>
