<svg height='300px' width='300px'  fill="#000000" xmlns="http://www.w3.org/2000/svg" xmlns:xlink="http://www.w3.org/1999/xlink" version="1.1" x="0px" y="0px" viewBox="0 0 64 64" style="enable-background:new 0 0 64 64;" xml:space="preserve"><path d="M61,53h-1V22c0-2.757-2.243-5-5-5h-6v-2h-2v2h-2v-3h-2v3h-6v-2h-2v2h-6v-4h-2v4h-6v-2h-2v2h-2v-3h-2v3h-5  c-2.757,0-5,2.243-5,5v31H3c-0.553,0-1,0.448-1,1v3c0,2.757,2.243,5,5,5h50c2.757,0,5-2.243,5-5v-3C62,53.448,61.553,53,61,53z   M7,22c0-1.654,1.346-3,3-3h45c1.654,0,3,1.346,3,3v31H39c-0.379,0-0.725,0.214-0.895,0.553L37.382,55H26.618l-0.724-1.447  C25.725,53.214,25.379,53,25,53H7V22z M60,57c0,1.654-1.346,3-3,3H7c-1.654,0-3-1.346-3-3v-2h20.382l0.724,1.447  C25.275,56.786,25.621,57,26,57h12c0.379,0,0.725-0.214,0.895-0.553L39.618,55H60V57z"></path><path d="M56,50V22c0-0.552-0.447-1-1-1H10c-0.553,0-1,0.448-1,1v28c0,0.552,0.447,1,1,1h45C55.553,51,56,50.552,56,50z M54,39.586  l-3.707,3.707C50.105,43.48,50,43.735,50,44v5h-3v-5.586l2.707-2.707C49.895,40.52,50,40.265,50,40v-9.184  c1.161-0.414,2-1.514,2-2.816s-0.839-2.402-2-2.816V23h4V39.586z M22,42c0-0.551,0.448-1,1-1s1,0.449,1,1s-0.448,1-1,1  S22,42.551,22,42z M24,44.816c1.161-0.414,2-1.514,2-2.816c0-1.654-1.346-3-3-3s-3,1.346-3,3c0,1.302,0.839,2.402,2,2.816V49h-4  v-9.586l4.707-4.707C22.895,34.52,23,34.265,23,34V23h2v13c0,0.265,0.105,0.52,0.293,0.707L31,42.414V49h-7V44.816z M32,34  c-0.552,0-1-0.449-1-1s0.448-1,1-1s1,0.449,1,1S32.552,34,32,34z M31,30.184c-1.161,0.414-2,1.514-2,2.816s0.839,2.402,2,2.816v3.77  l-4-4V23h4V30.184z M33,35.816c1.161-0.414,2-1.514,2-2.816s-0.839-2.402-2-2.816V23h4v2c0,0.265,0.105,0.52,0.293,0.707L40,28.414  v3.77c-1.161,0.414-2,1.514-2,2.816s0.839,2.402,2,2.816v1.77l-4.707,4.707C35.105,44.48,35,44.735,35,45v4h-2V35.816z M41,36  c-0.552,0-1-0.449-1-1s0.448-1,1-1s1,0.449,1,1S41.552,36,41,36z M41,26.586l-2-2V23h4v1.586L41,26.586z M37,45.414l3-3V49h-3  V45.414z M42,37.816c1.161-0.414,2-1.514,2-2.816s-0.839-2.402-2-2.816v-3.77l2.707-2.707C44.895,25.52,45,25.265,45,25v-2h3v2.184  c-1.161,0.414-2,1.514-2,2.816s0.839,2.402,2,2.816v8.77l-2.707,2.707C45.105,42.48,45,42.735,45,43v6h-3V37.816z M49,29  c-0.552,0-1-0.449-1-1s0.448-1,1-1s1,0.449,1,1S49.552,29,49,29z M16,29c-0.552,0-1-0.449-1-1s0.448-1,1-1s1,0.449,1,1  S16.552,29,16,29z M15,23v2.184c-1.161,0.414-2,1.514-2,2.816s0.839,2.402,2,2.816v1.77l-4,4V23H15z M11,39.414l5.707-5.707  C16.895,33.52,17,33.265,17,33v-2.184c1.161-0.414,2-1.514,2-2.816s-0.839-2.402-2-2.816V23h4v10.586l-4.707,4.707  C16.105,38.48,16,38.735,16,39v10h-5V39.414z M52,49v-4.586l2-2V49H52z"></path><rect x="31" y="13" width="2" height="2"></rect><rect x="31" y="6" width="2" height="5"></rect><rect x="31" y="2" width="2" height="2"></rect><rect x="35" y="11" width="2" height="2"></rect><rect x="35" y="2" width="2" height="7"></rect><rect x="47" y="11" width="2" height="2"></rect><rect x="47" y="2" width="2" height="7"></rect><rect x="19" y="11" width="2" height="2"></rect><rect x="19" y="2" width="2" height="3"></rect><rect x="39" y="10" width="2" height="5"></rect><rect x="39" y="6" width="2" height="2"></rect><rect x="39" y="2" width="2" height="2"></rect><rect x="23" y="2" width="2" height="3"></rect><rect x="23" y="7" width="2" height="2"></rect><rect x="23" y="11" width="2" height="4"></rect><rect x="27" y="2" width="2" height="5"></rect><rect x="27" y="9" width="2" height="2"></rect><rect x="19" y="7" width="2" height="2"></rect><rect x="43" y="2" width="2" height="10"></rect><rect x="15" y="2" width="2" height="10"></rect></svg>