<svg height='300px' width='300px'  fill="#000000" xmlns="http://www.w3.org/2000/svg" xmlns:xlink="http://www.w3.org/1999/xlink" version="1.1" x="0px" y="0px" viewBox="0 0 64 64" style="enable-background:new 0 0 64 64;" xml:space="preserve"><path d="M2.08,43.608c0.035,0.44,0.354,0.805,0.786,0.898l3.485,0.752c0.123,0.594,0.279,1.18,0.468,1.752l-2.638,2.39  c-0.327,0.296-0.421,0.772-0.231,1.171c0.482,1.014,1.019,1.951,1.596,2.785c0.25,0.362,0.708,0.518,1.129,0.383l3.387-1.091  c0.405,0.454,0.836,0.885,1.29,1.29l-1.091,3.387c-0.135,0.419,0.02,0.878,0.383,1.129c0.834,0.577,1.771,1.114,2.785,1.596  c0.4,0.19,0.875,0.095,1.171-0.231l2.39-2.638c0.573,0.188,1.159,0.345,1.753,0.468l0.752,3.485c0.093,0.431,0.458,0.75,0.897,0.786  C20.924,61.962,21.457,62,22,62s1.076-0.038,1.608-0.08c0.44-0.035,0.805-0.354,0.898-0.786l0.752-3.485  c0.594-0.123,1.181-0.279,1.753-0.468l2.39,2.638c0.297,0.327,0.773,0.422,1.171,0.231c1.014-0.482,1.951-1.02,2.785-1.596  c0.363-0.251,0.518-0.71,0.383-1.129l-1.091-3.387c0.454-0.405,0.885-0.836,1.29-1.289l3.387,1.091  c0.419,0.136,0.878-0.02,1.129-0.383c0.577-0.834,1.114-1.771,1.596-2.785c0.19-0.399,0.096-0.875-0.231-1.171l-2.638-2.39  c0.188-0.573,0.345-1.159,0.468-1.753l3.485-0.752c0.431-0.093,0.75-0.458,0.786-0.897C41.962,43.076,42,42.543,42,42  s-0.038-1.076-0.08-1.608c-0.035-0.44-0.354-0.805-0.786-0.898l-3.485-0.752c-0.123-0.594-0.279-1.181-0.468-1.753l2.638-2.39  c0.327-0.296,0.421-0.772,0.231-1.171c-0.482-1.014-1.02-1.951-1.596-2.785c-0.251-0.363-0.71-0.519-1.129-0.383l-3.387,1.091  c-0.405-0.454-0.836-0.885-1.29-1.29l1.091-3.387c0.135-0.419-0.02-0.878-0.383-1.129c-0.834-0.577-1.771-1.114-2.785-1.596  c-0.4-0.191-0.875-0.096-1.171,0.231l-2.39,2.638c-0.573-0.188-1.159-0.345-1.753-0.468l-0.752-3.485  c-0.093-0.431-0.458-0.75-0.897-0.786c-1.065-0.086-2.152-0.084-3.217,0c-0.44,0.035-0.805,0.354-0.898,0.786l-0.752,3.485  c-0.594,0.123-1.18,0.279-1.752,0.468l-2.39-2.638c-0.296-0.327-0.771-0.421-1.171-0.231c-1.014,0.482-1.951,1.019-2.785,1.596  c-0.363,0.251-0.518,0.71-0.383,1.129l1.091,3.387c-0.454,0.405-0.885,0.836-1.29,1.29L6.675,30.26  c-0.42-0.136-0.879,0.02-1.129,0.383c-0.577,0.834-1.114,1.771-1.596,2.785c-0.19,0.399-0.096,0.875,0.231,1.171l2.638,2.39  c-0.188,0.573-0.345,1.159-0.468,1.753l-3.485,0.752c-0.431,0.093-0.75,0.458-0.786,0.897C2.038,40.924,2,41.457,2,42  S2.038,43.076,2.08,43.608z M4.021,41.291l3.402-0.735c0.402-0.087,0.71-0.411,0.776-0.817c0.15-0.922,0.392-1.827,0.719-2.691  c0.146-0.384,0.041-0.819-0.264-1.095l-2.569-2.328c0.224-0.429,0.458-0.84,0.7-1.229l3.296,1.062c0.39,0.125,0.82,0,1.081-0.318  c0.59-0.722,1.256-1.387,1.978-1.978c0.318-0.26,0.445-0.689,0.318-1.081l-1.062-3.296c0.389-0.243,0.799-0.477,1.229-0.7  l2.328,2.57c0.277,0.305,0.713,0.41,1.096,0.264c0.862-0.327,1.767-0.569,2.69-0.719c0.406-0.066,0.73-0.374,0.817-0.776  l0.734-3.402c0.471-0.025,0.95-0.026,1.419,0l0.735,3.402c0.087,0.402,0.411,0.71,0.817,0.776c0.922,0.15,1.827,0.392,2.691,0.719  c0.382,0.146,0.818,0.042,1.095-0.264l2.328-2.569c0.429,0.224,0.84,0.458,1.229,0.7l-1.062,3.296c-0.126,0.392,0,0.82,0.318,1.081  c0.722,0.59,1.387,1.256,1.978,1.978c0.261,0.319,0.69,0.446,1.081,0.318l3.296-1.062c0.243,0.389,0.477,0.799,0.7,1.228  l-2.57,2.328c-0.305,0.276-0.41,0.711-0.264,1.096c0.327,0.862,0.569,1.767,0.719,2.69c0.066,0.406,0.374,0.73,0.776,0.817  l3.402,0.734C39.991,41.525,40,41.762,40,42s-0.008,0.475-0.021,0.709l-3.402,0.735c-0.402,0.087-0.71,0.411-0.776,0.817  c-0.15,0.922-0.392,1.827-0.719,2.691c-0.146,0.384-0.041,0.819,0.264,1.095l2.569,2.328c-0.224,0.429-0.458,0.84-0.7,1.229  l-3.296-1.062c-0.393-0.128-0.82-0.001-1.081,0.318c-0.589,0.72-1.255,1.386-1.978,1.978c-0.318,0.26-0.444,0.689-0.318,1.08  l1.062,3.296c-0.389,0.243-0.799,0.477-1.228,0.7l-2.328-2.57c-0.276-0.305-0.711-0.408-1.096-0.264  c-0.862,0.327-1.767,0.569-2.69,0.719c-0.406,0.066-0.73,0.374-0.817,0.776l-0.734,3.402c-0.471,0.025-0.95,0.026-1.419,0  l-0.735-3.402c-0.087-0.402-0.411-0.71-0.817-0.776c-0.922-0.15-1.827-0.392-2.691-0.719c-0.383-0.146-0.819-0.042-1.095,0.264  l-2.328,2.569c-0.429-0.224-0.84-0.458-1.229-0.7l1.062-3.296c0.126-0.392,0-0.82-0.318-1.081c-0.722-0.59-1.387-1.256-1.978-1.978  c-0.261-0.319-0.691-0.445-1.081-0.318l-3.296,1.062c-0.243-0.389-0.477-0.799-0.7-1.229l2.57-2.328  c0.305-0.276,0.41-0.711,0.264-1.096c-0.327-0.862-0.569-1.767-0.719-2.69c-0.066-0.406-0.374-0.73-0.776-0.817L4.021,42.71  C4.009,42.475,4,42.238,4,42S4.008,41.525,4.021,41.291z"></path><path d="M54.219,16.235c0.376-0.118,0.648-0.447,0.693-0.839C54.972,14.891,55,14.434,55,14s-0.028-0.891-0.087-1.396  c-0.045-0.392-0.317-0.721-0.693-0.839l-2.773-0.871c-0.083-0.227-0.175-0.45-0.276-0.668l1.344-2.575  c0.182-0.349,0.142-0.773-0.102-1.083c-0.579-0.732-1.245-1.398-1.979-1.979c-0.31-0.245-0.734-0.284-1.083-0.103L46.774,5.83  c-0.218-0.1-0.441-0.192-0.668-0.275l-0.871-2.773c-0.118-0.376-0.447-0.648-0.839-0.693c-1.012-0.118-1.781-0.118-2.793,0  c-0.392,0.045-0.721,0.317-0.839,0.693l-0.871,2.773c-0.227,0.083-0.45,0.175-0.668,0.276l-2.575-1.344  c-0.349-0.181-0.772-0.142-1.083,0.102c-0.732,0.579-1.398,1.245-1.979,1.979c-0.245,0.31-0.285,0.733-0.103,1.083l1.343,2.575  c-0.1,0.218-0.192,0.441-0.275,0.668l-2.773,0.871c-0.376,0.118-0.648,0.447-0.693,0.839C31.028,13.109,31,13.566,31,14  s0.028,0.891,0.087,1.396c0.045,0.392,0.317,0.721,0.693,0.839l2.773,0.871c0.083,0.227,0.175,0.45,0.276,0.668l-1.344,2.575  c-0.182,0.349-0.142,0.773,0.102,1.083c0.579,0.732,1.245,1.398,1.979,1.979c0.309,0.245,0.734,0.284,1.083,0.103l2.575-1.343  c0.218,0.1,0.441,0.192,0.668,0.275l0.871,2.773c0.118,0.376,0.447,0.648,0.839,0.693C42.109,25.972,42.566,26,43,26  s0.891-0.028,1.396-0.087c0.392-0.045,0.721-0.317,0.839-0.693l0.871-2.773c0.227-0.083,0.45-0.175,0.668-0.276l2.575,1.344  c0.349,0.182,0.773,0.143,1.083-0.102c0.732-0.579,1.398-1.245,1.979-1.979c0.245-0.31,0.285-0.733,0.103-1.083l-1.344-2.575  c0.101-0.218,0.193-0.441,0.276-0.668L54.219,16.235z M50.359,15.351c-0.316,0.1-0.562,0.349-0.658,0.667  c-0.136,0.452-0.316,0.887-0.534,1.294c-0.157,0.292-0.16,0.643-0.006,0.936l1.269,2.432c-0.237,0.263-0.488,0.514-0.75,0.75  l-2.432-1.269c-0.294-0.154-0.645-0.15-0.936,0.006c-0.407,0.218-0.842,0.398-1.294,0.534c-0.317,0.095-0.567,0.342-0.667,0.658  l-0.824,2.624c-0.365,0.022-0.688,0.022-1.054,0l-0.824-2.624c-0.1-0.316-0.349-0.562-0.667-0.658  c-0.453-0.136-0.888-0.316-1.293-0.534c-0.292-0.157-0.643-0.16-0.937-0.006L36.32,21.43c-0.263-0.237-0.514-0.488-0.75-0.75  l1.269-2.432c0.153-0.293,0.151-0.645-0.006-0.936c-0.218-0.407-0.398-0.842-0.534-1.294c-0.095-0.317-0.342-0.567-0.658-0.667  l-2.624-0.824C33.005,14.344,33,14.169,33,14s0.005-0.344,0.017-0.527l2.624-0.824c0.316-0.1,0.562-0.349,0.658-0.667  c0.136-0.453,0.316-0.888,0.534-1.293c0.157-0.292,0.16-0.643,0.006-0.937L35.57,7.32c0.237-0.263,0.488-0.514,0.75-0.75  l2.432,1.269c0.293,0.153,0.645,0.15,0.936-0.006c0.407-0.218,0.842-0.398,1.294-0.534c0.317-0.095,0.567-0.342,0.667-0.658  l0.824-2.624c0.365-0.022,0.688-0.022,1.054,0l0.824,2.624c0.1,0.316,0.349,0.562,0.667,0.658c0.453,0.136,0.888,0.316,1.293,0.534  c0.292,0.157,0.643,0.16,0.937,0.006L49.68,6.57c0.263,0.237,0.514,0.488,0.75,0.75l-1.269,2.432  c-0.153,0.293-0.151,0.645,0.006,0.936c0.218,0.407,0.398,0.842,0.534,1.294c0.095,0.317,0.342,0.567,0.658,0.667l2.624,0.824  C52.995,13.656,53,13.831,53,14s-0.005,0.344-0.017,0.527L50.359,15.351z"></path><path d="M61.262,34.964l-1.718-0.61c-0.098-0.279-0.21-0.552-0.337-0.817l0.781-1.645c0.163-0.342,0.118-0.746-0.116-1.044  c-0.5-0.639-1.078-1.218-1.719-1.72c-0.299-0.234-0.705-0.278-1.045-0.116l-1.646,0.781c-0.264-0.126-0.537-0.239-0.816-0.336  l-0.611-1.718c-0.127-0.357-0.446-0.612-0.822-0.658c-0.891-0.107-1.536-0.107-2.427,0c-0.376,0.045-0.695,0.3-0.822,0.658  l-0.61,1.718c-0.279,0.098-0.552,0.21-0.817,0.337l-1.645-0.781c-0.34-0.162-0.745-0.117-1.044,0.116  c-0.639,0.5-1.218,1.078-1.72,1.719c-0.233,0.298-0.278,0.703-0.116,1.045l0.781,1.646c-0.126,0.264-0.239,0.537-0.336,0.816  l-1.718,0.611c-0.357,0.127-0.612,0.446-0.658,0.822C42.026,36.231,42,36.628,42,37c0,0.372,0.026,0.768,0.08,1.213  c0.045,0.376,0.3,0.695,0.658,0.822l1.718,0.61c0.098,0.279,0.21,0.552,0.337,0.817l-0.781,1.645  c-0.163,0.342-0.118,0.746,0.116,1.044c0.5,0.639,1.078,1.218,1.719,1.72c0.298,0.233,0.704,0.278,1.045,0.116l1.646-0.781  c0.264,0.126,0.537,0.239,0.816,0.336l0.611,1.718c0.127,0.357,0.446,0.612,0.822,0.658C51.232,46.974,51.628,47,52,47  s0.768-0.026,1.213-0.08c0.376-0.045,0.695-0.3,0.822-0.658l0.61-1.718c0.279-0.098,0.552-0.21,0.817-0.337l1.645,0.781  c0.341,0.163,0.747,0.119,1.044-0.116c0.639-0.5,1.218-1.078,1.72-1.719c0.233-0.298,0.278-0.703,0.116-1.045l-0.781-1.646  c0.126-0.264,0.239-0.537,0.336-0.816l1.718-0.611c0.357-0.127,0.612-0.446,0.658-0.822C61.974,37.768,62,37.372,62,37  s-0.026-0.768-0.08-1.213C61.875,35.41,61.62,35.092,61.262,34.964z M59.99,37.365l-1.585,0.563  c-0.307,0.109-0.542,0.361-0.629,0.675c-0.131,0.475-0.318,0.928-0.555,1.347c-0.16,0.283-0.172,0.627-0.033,0.921l0.718,1.513  c-0.166,0.182-0.34,0.356-0.521,0.521l-1.513-0.718c-0.292-0.139-0.637-0.127-0.921,0.033c-0.42,0.238-0.873,0.424-1.346,0.555  c-0.314,0.087-0.566,0.322-0.676,0.629l-0.563,1.585c-0.242,0.013-0.488,0.013-0.73,0l-0.563-1.585  c-0.109-0.307-0.361-0.542-0.675-0.629c-0.475-0.131-0.928-0.318-1.347-0.555c-0.283-0.159-0.626-0.171-0.921-0.033l-1.513,0.718  c-0.182-0.166-0.356-0.34-0.521-0.521l0.718-1.513c0.14-0.294,0.127-0.638-0.033-0.921c-0.238-0.42-0.424-0.873-0.555-1.346  c-0.087-0.314-0.322-0.566-0.629-0.676l-1.585-0.563C44.004,37.244,44,37.123,44,37s0.004-0.245,0.01-0.365l1.585-0.564  c0.307-0.109,0.542-0.361,0.628-0.675c0.132-0.476,0.319-0.928,0.556-1.347c0.16-0.283,0.172-0.627,0.033-0.921l-0.718-1.513  c0.166-0.182,0.34-0.356,0.521-0.521l1.513,0.718c0.294,0.14,0.638,0.128,0.921-0.033c0.42-0.238,0.873-0.424,1.346-0.555  c0.314-0.087,0.566-0.322,0.676-0.629l0.563-1.585c0.242-0.013,0.488-0.013,0.73,0l0.563,1.585c0.109,0.307,0.361,0.542,0.675,0.629  c0.475,0.131,0.928,0.318,1.347,0.555c0.284,0.161,0.627,0.173,0.921,0.033l1.513-0.718c0.182,0.166,0.356,0.34,0.521,0.521  l-0.718,1.513c-0.14,0.294-0.127,0.638,0.033,0.921c0.238,0.42,0.424,0.873,0.555,1.346c0.087,0.314,0.322,0.566,0.629,0.676  l1.585,0.563C59.996,36.756,60,36.877,60,37S59.996,37.244,59.99,37.365z"></path><path d="M22,53c6.065,0,11-4.935,11-11s-4.935-11-11-11s-11,4.935-11,11S15.935,53,22,53z M22,33c4.962,0,9,4.038,9,9s-4.038,9-9,9  s-9-4.038-9-9S17.038,33,22,33z"></path><path d="M2.022,25.359l1.536,1.281C8.137,21.149,14.858,18,22,18c0.509,0,1.017,0.029,1.525,0.061l-1.232,1.232l1.414,1.414l3-3  c0.391-0.391,0.391-1.023,0-1.414l-3-3l-1.414,1.414l1.359,1.359C23.102,16.031,22.551,16,22,16  C14.264,16,6.982,19.411,2.022,25.359z"></path><path d="M43,9c-2.757,0-5,2.243-5,5s2.243,5,5,5s5-2.243,5-5S45.757,9,43,9z M43,17c-1.654,0-3-1.346-3-3s1.346-3,3-3s3,1.346,3,3  S44.654,17,43,17z"></path><path d="M52,33c-2.206,0-4,1.794-4,4s1.794,4,4,4s4-1.794,4-4S54.206,33,52,33z M52,39c-1.103,0-2-0.897-2-2s0.897-2,2-2  s2,0.897,2,2S53.103,39,52,39z"></path><path d="M61.196,5.02l-5-1c-0.544-0.11-1.069,0.243-1.177,0.784l-1,5l1.961,0.393l0.539-2.692C57.488,9.521,58,11.743,58,14  c0,3.448-1.138,6.69-3.29,9.375l1.561,1.251C58.676,21.625,60,17.852,60,14c0-2.619-0.605-5.201-1.756-7.531l2.56,0.512L61.196,5.02  z"></path></svg>