<svg height='300px' width='300px'  fill="#000000" xmlns="http://www.w3.org/2000/svg" xmlns:xlink="http://www.w3.org/1999/xlink" version="1.1" x="0px" y="0px" viewBox="0 0 64 64" style="enable-background:new 0 0 64 64;" xml:space="preserve"><path d="M32,62c16.542,0,30-13.458,30-30c0-7.912-3.084-15.114-8.107-20.479l7.814-7.814l-1.414-1.414l-7.814,7.814  C47.114,5.084,39.912,2,32,2H3C2.448,2,2,2.448,2,3v29C2,48.542,15.458,62,32,62z M51,31h-2V16.414l2-2V31z M53,13.509  c4.146,4.703,6.738,10.8,6.975,17.491H53V13.509z M47,31h-2V20.414l2-2V31z M43,31h-2v-6.586l2-2V31z M39,31h-4.586L39,26.414V31z   M13,33h2v21.228c-0.693-0.531-1.36-1.093-2-1.685V33z M17,33h2v23.788c-0.684-0.36-1.351-0.749-2-1.163V33z M21,33h2v25.508  c-0.678-0.231-1.346-0.482-2-0.762V33z M25,33h2v26.544c-0.674-0.122-1.343-0.26-2-0.43V33z M29,33h2v26.975  c-0.673-0.024-1.34-0.067-2-0.137V33z M31,29.586L12.934,11.52C17.709,7.072,24.034,4.272,31,4.025V29.586z M29.586,31H4.025  c0.246-6.966,3.046-13.291,7.495-18.066L29.586,31z M7,33v11.586C5.228,41.08,4.172,37.155,4.025,33H7z M9,33h2v17.491  c-0.714-0.81-1.382-1.661-2-2.549V33z M33,59.975V33h26.975C59.457,47.645,47.645,59.457,33,59.975z M33,29.586V4.025  c6.966,0.246,13.291,3.046,18.066,7.495L33,29.586z M11.521,10.107L5.414,4h15.834C17.612,5.401,14.317,7.489,11.521,10.107z   M4,5.414l6.107,6.107C7.489,14.317,5.401,17.612,4,21.248V5.414z"></path><path d="M39,42h2v8h2v-8h2v6c0,0.265,0.105,0.52,0.293,0.707l2,2l1.414-1.414L47,47.586V42h2v-2H39V42z"></path><rect x="51" y="35" width="2" height="2"></rect><rect x="47" y="35" width="2" height="2"></rect><rect x="55" y="35" width="2" height="2"></rect></svg>