<?xml version="1.0" encoding="utf-8"?>
<!-- Generator: Adobe Illustrator 25.1.0, SVG Export Plug-In . SVG Version: 6.00 Build 0)  -->
<svg version="1.1" id="Ebene_2_1_" xmlns="http://www.w3.org/2000/svg" xmlns:xlink="http://www.w3.org/1999/xlink" x="0px" y="0px"
	 viewBox="0 0 1635.8 457.4" style="enable-background:new 0 0 1635.8 457.4;" xml:space="preserve">
<style type="text/css">
	.st0{fill:none;stroke:#E5007E;stroke-miterlimit:10;}
	.st1{fill:none;stroke:#00FF00;stroke-miterlimit:10;}
	.st2{fill:#00FF00;}
	.st3{fill:#E5007E;}
</style>
<line class="st0" x1="27" y1="203.3" x2="60.4" y2="173.7"/>
<line class="st0" x1="60.4" y1="173.7" x2="88.3" y2="147.8"/>
<line class="st0" x1="60.4" y1="173.7" x2="60.4" y2="203.3"/>
<line class="st0" x1="88.3" y1="173.7" x2="88.3" y2="203.3"/>
<line class="st0" x1="60.4" y1="173.7" x2="88.3" y2="173.7"/>
<line class="st0" x1="88.3" y1="203.3" x2="60.4" y2="173.7"/>
<line class="st0" x1="88.3" y1="147.8" x2="88.3" y2="173.7"/>
<line class="st0" x1="88.3" y1="203.3" x2="119.5" y2="172.4"/>
<line class="st0" x1="119.5" y1="172.4" x2="119.5" y2="146"/>
<line class="st0" x1="88.3" y1="147.8" x2="119.5" y2="146"/>
<line class="st0" x1="119.5" y1="172.4" x2="119.5" y2="203.3"/>
<line class="st0" x1="119.5" y1="172.4" x2="148.3" y2="172.4"/>
<line class="st0" x1="119.5" y1="146" x2="148.3" y2="144.1"/>
<line class="st0" x1="119.5" y1="172.4" x2="148.3" y2="144.1"/>
<line class="st0" x1="148.3" y1="172.4" x2="148.3" y2="203.3"/>
<line class="st0" x1="119.5" y1="172.4" x2="148.3" y2="203.3"/>
<line class="st0" x1="148.3" y1="144.1" x2="148.3" y2="172.4"/>
<line class="st0" x1="148.3" y1="203.3" x2="179.7" y2="169.8"/>
<line class="st0" x1="179.7" y1="169.8" x2="179.7" y2="140.5"/>
<line class="st0" x1="148.3" y1="144.1" x2="179.7" y2="140.5"/>
<line class="st0" x1="179.7" y1="169.8" x2="179.7" y2="203.3"/>
<line class="st0" x1="179.7" y1="169.8" x2="211.7" y2="136.9"/>
<line class="st0" x1="179.7" y1="140.5" x2="211.7" y2="136.9"/>
<line class="st0" x1="211.7" y1="136.9" x2="211.7" y2="169.8"/>
<line class="st0" x1="179.7" y1="169.8" x2="211.7" y2="169.8"/>
<line class="st0" x1="211.7" y1="169.8" x2="211.7" y2="203.3"/>
<line class="st0" x1="179.7" y1="169.8" x2="211.7" y2="203.3"/>
<line class="st0" x1="248.9" y1="163.3" x2="248.9" y2="130.1"/>
<line class="st0" x1="211.7" y1="136.9" x2="248.9" y2="130.1"/>
<line class="st0" x1="248.9" y1="163.3" x2="248.9" y2="203.3"/>
<line class="st0" x1="211.7" y1="203.3" x2="248.9" y2="163.3"/>
<line class="st0" x1="248.9" y1="130.1" x2="291.3" y2="118.5"/>
<line class="st0" x1="248.9" y1="163.3" x2="291.3" y2="118.5"/>
<line class="st0" x1="291.3" y1="118.5" x2="291.3" y2="203.3"/>
<line class="st0" x1="248.9" y1="163.3" x2="291.3" y2="203.3"/>
<line class="st0" x1="329.3" y1="103.2" x2="329.3" y2="160.9"/>
<line class="st0" x1="329.3" y1="160.9" x2="329.3" y2="203.3"/>
<line class="st0" x1="291.3" y1="118.5" x2="329.3" y2="160.9"/>
<line class="st0" x1="291.3" y1="203.3" x2="329.3" y2="160.9"/>
<line class="st0" x1="291.3" y1="118.5" x2="329.3" y2="103.2"/>
<line class="st0" x1="329.3" y1="160.9" x2="368.9" y2="203.3"/>
<line class="st0" x1="368.9" y1="203.3" x2="368.9" y2="163.3"/>
<line class="st0" x1="368.9" y1="163.3" x2="368.9" y2="123.3"/>
<line class="st0" x1="368.9" y1="123.3" x2="368.9" y2="81.8"/>
<line class="st0" x1="368.9" y1="123.3" x2="409.6" y2="123.3"/>
<line class="st0" x1="368.9" y1="163.3" x2="409.6" y2="163.3"/>
<line class="st0" x1="329.3" y1="103.2" x2="368.9" y2="81.8"/>
<line class="st0" x1="368.9" y1="123.3" x2="409.6" y2="81.8"/>
<line class="st0" x1="409.6" y1="123.3" x2="409.6" y2="81.8"/>
<line class="st0" x1="368.9" y1="81.8" x2="409.6" y2="81.8"/>
<line class="st0" x1="409.6" y1="123.3" x2="368.9" y2="81.8"/>
<line class="st0" x1="368.9" y1="163.3" x2="409.6" y2="123.3"/>
<line class="st0" x1="368.9" y1="123.3" x2="409.6" y2="163.3"/>
<line class="st0" x1="409.6" y1="123.3" x2="409.6" y2="163.3"/>
<line class="st0" x1="368.9" y1="163.3" x2="409.6" y2="203.3"/>
<line class="st0" x1="409.6" y1="163.3" x2="368.9" y2="203.3"/>
<line class="st0" x1="409.6" y1="203.3" x2="409.6" y2="163.3"/>
<line class="st0" x1="368.9" y1="203.3" x2="409.6" y2="259.7"/>
<line class="st0" x1="409.6" y1="259.7" x2="368.9" y2="259.7"/>
<line class="st0" x1="409.6" y1="203.3" x2="368.9" y2="259.7"/>
<line class="st0" x1="368.9" y1="203.3" x2="368.9" y2="259.7"/>
<line class="st0" x1="409.6" y1="203.3" x2="409.6" y2="259.7"/>
<line class="st0" x1="368.9" y1="259.7" x2="409.6" y2="316.4"/>
<line class="st0" x1="409.6" y1="316.4" x2="368.9" y2="316.4"/>
<line class="st0" x1="409.6" y1="259.7" x2="368.9" y2="316.4"/>
<line class="st0" x1="368.9" y1="259.7" x2="368.9" y2="316.4"/>
<line class="st0" x1="409.6" y1="259.7" x2="409.6" y2="316.4"/>
<line class="st0" x1="452.2" y1="107.2" x2="452.2" y2="163.3"/>
<line class="st0" x1="452.2" y1="163.3" x2="452.2" y2="203.3"/>
<line class="st0" x1="492.8" y1="123.3" x2="492.8" y2="203.3"/>
<line class="st0" x1="533.1" y1="133.4" x2="533.1" y2="165.8"/>
<line class="st0" x1="533.1" y1="165.8" x2="533.1" y2="203.3"/>
<line class="st0" x1="571.3" y1="140.4" x2="571.3" y2="173.1"/>
<line class="st0" x1="571.3" y1="173.1" x2="571.3" y2="203.3"/>
<line class="st0" x1="603" y1="142.9" x2="603" y2="173.1"/>
<line class="st0" x1="603" y1="173.1" x2="603" y2="203.3"/>
<line class="st0" x1="630.5" y1="144.5" x2="630.5" y2="203.3"/>
<line class="st0" x1="661.6" y1="146.2" x2="661.6" y2="173.9"/>
<line class="st0" x1="689.1" y1="146.2" x2="689.1" y2="203.3"/>
<line class="st0" x1="719.7" y1="146.2" x2="719.7" y2="174.7"/>
<line class="st0" x1="719.7" y1="174.7" x2="719.7" y2="203.3"/>
<line class="st0" x1="750.9" y1="147.2" x2="750.9" y2="174.7"/>
<line class="st0" x1="750.9" y1="174.7" x2="750.9" y2="203.3"/>
<line class="st0" x1="780.6" y1="147.2" x2="780.6" y2="174.7"/>
<line class="st0" x1="780.6" y1="174.7" x2="780.6" y2="203.3"/>
<line class="st0" x1="813.3" y1="147.2" x2="813.3" y2="174.7"/>
<line class="st0" x1="813.3" y1="174.7" x2="813.3" y2="203.3"/>
<line class="st0" x1="409.6" y1="81.8" x2="452.2" y2="107.2"/>
<line class="st0" x1="409.6" y1="203.3" x2="452.2" y2="163.3"/>
<line class="st0" x1="452.2" y1="107.2" x2="492.8" y2="123.3"/>
<line class="st0" x1="452.2" y1="163.3" x2="492.8" y2="123.3"/>
<line class="st0" x1="492.8" y1="203.3" x2="452.2" y2="163.3"/>
<line class="st0" x1="492.8" y1="123.3" x2="533.1" y2="165.8"/>
<line class="st0" x1="492.8" y1="203.3" x2="533.1" y2="165.8"/>
<line class="st0" x1="492.8" y1="123.3" x2="533.1" y2="133.4"/>
<line class="st0" x1="533.1" y1="165.8" x2="571.3" y2="203.3"/>
<line class="st0" x1="533.1" y1="133.4" x2="571.3" y2="140.4"/>
<line class="st0" x1="571.3" y1="203.3" x2="603" y2="173.1"/>
<line class="st0" x1="571.3" y1="173.1" x2="603" y2="173.1"/>
<line class="st0" x1="571.3" y1="140.4" x2="603" y2="173.1"/>
<line class="st0" x1="603" y1="142.9" x2="630.5" y2="144.5"/>
<line class="st0" x1="603" y1="173.1" x2="630.5" y2="144.5"/>
<line class="st0" x1="571.3" y1="140.4" x2="603" y2="142.9"/>
<line class="st0" x1="630.5" y1="203.3" x2="661.6" y2="173.9"/>
<line class="st0" x1="630.5" y1="144.5" x2="661.6" y2="146.2"/>
<line class="st0" x1="689.1" y1="146.2" x2="661.6" y2="146.2"/>
<line class="st0" x1="661.6" y1="173.9" x2="689.1" y2="203.3"/>
<line class="st0" x1="689.1" y1="146.2" x2="719.7" y2="146.2"/>
<line class="st0" x1="661.6" y1="173.9" x2="689.1" y2="146.2"/>
<line class="st0" x1="689.1" y1="203.3" x2="719.7" y2="174.7"/>
<line class="st0" x1="689.1" y1="146.2" x2="719.7" y2="174.7"/>
<line class="st0" x1="719.7" y1="146.2" x2="750.9" y2="147.2"/>
<line class="st0" x1="719.7" y1="174.7" x2="750.9" y2="174.7"/>
<line class="st0" x1="750.9" y1="203.3" x2="719.7" y2="174.7"/>
<line class="st0" x1="750.9" y1="147.2" x2="780.6" y2="174.7"/>
<line class="st0" x1="780.6" y1="147.2" x2="813.3" y2="147.2"/>
<line class="st0" x1="750.9" y1="203.3" x2="780.6" y2="174.7"/>
<line class="st0" x1="813.3" y1="203.3" x2="780.6" y2="174.7"/>
<line class="st0" x1="813.3" y1="174.7" x2="780.6" y2="174.7"/>
<line class="st0" x1="750.9" y1="147.2" x2="780.6" y2="147.2"/>
<line class="st1" x1="27" y1="203.3" x2="60.4" y2="203.3"/>
<line class="st1" x1="88.3" y1="203.3" x2="119.5" y2="203.3"/>
<line class="st1" x1="60.4" y1="203.3" x2="88.3" y2="203.3"/>
<line class="st1" x1="148.3" y1="203.3" x2="119.5" y2="203.3"/>
<line class="st1" x1="179.7" y1="203.3" x2="148.3" y2="203.3"/>
<line class="st1" x1="211.7" y1="203.3" x2="179.7" y2="203.3"/>
<line class="st1" x1="248.9" y1="203.3" x2="211.7" y2="203.3"/>
<line class="st1" x1="291.3" y1="203.3" x2="248.9" y2="203.3"/>
<line class="st1" x1="329.3" y1="203.3" x2="291.3" y2="203.3"/>
<line class="st1" x1="368.9" y1="203.3" x2="329.3" y2="203.3"/>
<line class="st1" x1="409.6" y1="203.3" x2="368.9" y2="203.3"/>
<line class="st1" x1="452.2" y1="203.3" x2="409.6" y2="203.3"/>
<line class="st1" x1="492.8" y1="203.3" x2="452.2" y2="203.3"/>
<line class="st1" x1="533.1" y1="203.3" x2="492.8" y2="203.3"/>
<line class="st1" x1="571.3" y1="203.3" x2="533.1" y2="203.3"/>
<line class="st1" x1="603" y1="203.3" x2="571.3" y2="203.3"/>
<line class="st1" x1="630.5" y1="203.3" x2="603" y2="203.3"/>
<line class="st1" x1="689.1" y1="203.3" x2="630.5" y2="203.3"/>
<line class="st1" x1="719.7" y1="203.3" x2="689.1" y2="203.3"/>
<line class="st1" x1="750.9" y1="203.3" x2="719.7" y2="203.3"/>
<line class="st1" x1="780.6" y1="203.3" x2="750.9" y2="203.3"/>
<line class="st1" x1="813.3" y1="203.3" x2="780.6" y2="203.3"/>
<circle class="st2" cx="27" cy="203.3" r="3.5"/>
<circle class="st3" cx="368.9" cy="316.4" r="3.5"/>
<circle class="st3" cx="409.6" cy="316.4" r="3.5"/>
<line class="st0" x1="1599.7" y1="203.3" x2="1566.2" y2="173.7"/>
<line class="st0" x1="1566.2" y1="173.7" x2="1538.4" y2="147.8"/>
<line class="st0" x1="1566.2" y1="173.7" x2="1566.2" y2="203.3"/>
<line class="st0" x1="1538.4" y1="173.7" x2="1538.4" y2="203.3"/>
<line class="st0" x1="1566.2" y1="173.7" x2="1538.4" y2="173.7"/>
<line class="st0" x1="1538.4" y1="203.3" x2="1566.2" y2="173.7"/>
<line class="st0" x1="1538.4" y1="147.8" x2="1538.4" y2="173.7"/>
<line class="st0" x1="1538.4" y1="203.3" x2="1507.2" y2="172.4"/>
<line class="st0" x1="1507.2" y1="172.4" x2="1507.2" y2="146"/>
<line class="st0" x1="1538.4" y1="147.8" x2="1507.2" y2="146"/>
<line class="st0" x1="1507.2" y1="172.4" x2="1507.2" y2="203.3"/>
<line class="st0" x1="1507.2" y1="172.4" x2="1478.3" y2="172.4"/>
<line class="st0" x1="1507.2" y1="146" x2="1478.3" y2="144.1"/>
<line class="st0" x1="1507.2" y1="172.4" x2="1478.3" y2="144.1"/>
<line class="st0" x1="1478.3" y1="172.4" x2="1478.3" y2="203.3"/>
<line class="st0" x1="1507.2" y1="172.4" x2="1478.3" y2="203.3"/>
<line class="st0" x1="1478.3" y1="144.1" x2="1478.3" y2="172.4"/>
<line class="st0" x1="1478.3" y1="203.3" x2="1447" y2="169.8"/>
<line class="st0" x1="1447" y1="169.8" x2="1447" y2="140.5"/>
<line class="st0" x1="1478.3" y1="144.1" x2="1447" y2="140.5"/>
<line class="st0" x1="1447" y1="169.8" x2="1447" y2="203.3"/>
<line class="st0" x1="1447" y1="169.8" x2="1414.9" y2="136.9"/>
<line class="st0" x1="1447" y1="140.5" x2="1414.9" y2="136.9"/>
<line class="st0" x1="1414.9" y1="136.9" x2="1414.9" y2="169.8"/>
<line class="st0" x1="1447" y1="169.8" x2="1414.9" y2="169.8"/>
<line class="st0" x1="1414.9" y1="169.8" x2="1414.9" y2="203.3"/>
<line class="st0" x1="1447" y1="169.8" x2="1414.9" y2="203.3"/>
<line class="st0" x1="1377.7" y1="163.3" x2="1377.7" y2="130.1"/>
<line class="st0" x1="1414.9" y1="136.9" x2="1377.7" y2="130.1"/>
<line class="st0" x1="1377.7" y1="163.3" x2="1377.7" y2="203.3"/>
<line class="st0" x1="1414.9" y1="203.3" x2="1377.7" y2="163.3"/>
<line class="st0" x1="1377.7" y1="130.1" x2="1335.3" y2="118.5"/>
<line class="st0" x1="1377.7" y1="163.3" x2="1335.3" y2="118.5"/>
<line class="st0" x1="1335.3" y1="118.5" x2="1335.3" y2="203.3"/>
<line class="st0" x1="1377.7" y1="163.3" x2="1335.3" y2="203.3"/>
<line class="st0" x1="1297.4" y1="103.2" x2="1297.4" y2="160.9"/>
<line class="st0" x1="1297.4" y1="160.9" x2="1297.4" y2="203.3"/>
<line class="st0" x1="1335.3" y1="118.5" x2="1297.4" y2="160.9"/>
<line class="st0" x1="1335.3" y1="203.3" x2="1297.4" y2="160.9"/>
<line class="st0" x1="1335.3" y1="118.5" x2="1297.4" y2="103.2"/>
<line class="st0" x1="1297.4" y1="160.9" x2="1257.7" y2="203.3"/>
<line class="st0" x1="1257.7" y1="203.3" x2="1257.7" y2="163.3"/>
<line class="st0" x1="1257.7" y1="163.3" x2="1257.7" y2="123.3"/>
<line class="st0" x1="1257.7" y1="123.3" x2="1257.7" y2="81.8"/>
<line class="st0" x1="1257.7" y1="123.3" x2="1217" y2="123.3"/>
<line class="st0" x1="1257.7" y1="163.3" x2="1217" y2="163.3"/>
<line class="st0" x1="1297.4" y1="103.2" x2="1257.7" y2="81.8"/>
<line class="st0" x1="1257.7" y1="123.3" x2="1217" y2="81.8"/>
<line class="st0" x1="1217" y1="123.3" x2="1217" y2="81.8"/>
<line class="st0" x1="1257.7" y1="81.8" x2="1217" y2="81.8"/>
<line class="st0" x1="1217" y1="123.3" x2="1257.7" y2="81.8"/>
<line class="st0" x1="1257.7" y1="163.3" x2="1217" y2="123.3"/>
<line class="st0" x1="1257.7" y1="123.3" x2="1217" y2="163.3"/>
<line class="st0" x1="1217" y1="123.3" x2="1217" y2="163.3"/>
<line class="st0" x1="1257.7" y1="163.3" x2="1217" y2="203.3"/>
<line class="st0" x1="1217" y1="163.3" x2="1257.7" y2="203.3"/>
<line class="st0" x1="1217" y1="203.3" x2="1217" y2="163.3"/>
<line class="st0" x1="1257.7" y1="203.3" x2="1217" y2="259.7"/>
<line class="st0" x1="1217" y1="259.7" x2="1257.7" y2="259.7"/>
<line class="st0" x1="1217" y1="203.3" x2="1257.7" y2="259.7"/>
<line class="st0" x1="1257.7" y1="203.3" x2="1257.7" y2="259.7"/>
<line class="st0" x1="1217" y1="203.3" x2="1217" y2="259.7"/>
<line class="st0" x1="1257.7" y1="259.7" x2="1217" y2="316.4"/>
<line class="st0" x1="1217" y1="316.4" x2="1257.7" y2="316.4"/>
<line class="st0" x1="1217" y1="259.7" x2="1257.7" y2="316.4"/>
<line class="st0" x1="1257.7" y1="259.7" x2="1257.7" y2="316.4"/>
<line class="st0" x1="1217" y1="259.7" x2="1217" y2="316.4"/>
<line class="st0" x1="1174.5" y1="107.2" x2="1174.5" y2="163.3"/>
<line class="st0" x1="1174.5" y1="163.3" x2="1174.5" y2="203.3"/>
<line class="st0" x1="1133.9" y1="123.3" x2="1133.9" y2="203.3"/>
<line class="st0" x1="1093.6" y1="133.4" x2="1093.6" y2="165.8"/>
<line class="st0" x1="1093.6" y1="165.8" x2="1093.6" y2="203.3"/>
<line class="st0" x1="1055.3" y1="140.4" x2="1055.3" y2="173.1"/>
<line class="st0" x1="1055.3" y1="173.1" x2="1055.3" y2="203.3"/>
<line class="st0" x1="1023.7" y1="142.9" x2="1023.7" y2="173.1"/>
<line class="st0" x1="1023.7" y1="173.1" x2="1023.7" y2="203.3"/>
<line class="st0" x1="996.2" y1="144.5" x2="996.2" y2="203.3"/>
<line class="st0" x1="965.1" y1="146.2" x2="965.1" y2="173.9"/>
<line class="st0" x1="937.5" y1="146.2" x2="937.5" y2="203.3"/>
<line class="st0" x1="907" y1="146.2" x2="907" y2="174.7"/>
<line class="st0" x1="907" y1="174.7" x2="907" y2="203.3"/>
<line class="st0" x1="875.7" y1="147.2" x2="875.7" y2="174.7"/>
<line class="st0" x1="875.7" y1="174.7" x2="875.7" y2="203.3"/>
<line class="st0" x1="846" y1="147.2" x2="846" y2="174.7"/>
<line class="st0" x1="846" y1="174.7" x2="846" y2="203.3"/>
<line class="st0" x1="1217" y1="81.8" x2="1174.5" y2="107.2"/>
<line class="st0" x1="1217" y1="203.3" x2="1174.5" y2="163.3"/>
<line class="st0" x1="1174.5" y1="107.2" x2="1133.9" y2="123.3"/>
<line class="st0" x1="1174.5" y1="163.3" x2="1133.9" y2="123.3"/>
<line class="st0" x1="1133.9" y1="203.3" x2="1174.5" y2="163.3"/>
<line class="st0" x1="1133.9" y1="123.3" x2="1093.6" y2="165.8"/>
<line class="st0" x1="1133.9" y1="203.3" x2="1093.6" y2="165.8"/>
<line class="st0" x1="1133.9" y1="123.3" x2="1093.6" y2="133.4"/>
<line class="st0" x1="1093.6" y1="165.8" x2="1055.3" y2="203.3"/>
<line class="st0" x1="1093.6" y1="133.4" x2="1055.3" y2="140.4"/>
<line class="st0" x1="1055.3" y1="203.3" x2="1023.7" y2="173.1"/>
<line class="st0" x1="1055.3" y1="173.1" x2="1023.7" y2="173.1"/>
<line class="st0" x1="1055.3" y1="140.4" x2="1023.7" y2="173.1"/>
<line class="st0" x1="1023.7" y1="142.9" x2="996.2" y2="144.5"/>
<line class="st0" x1="1023.7" y1="173.1" x2="996.2" y2="144.5"/>
<line class="st0" x1="1055.3" y1="140.4" x2="1023.7" y2="142.9"/>
<line class="st0" x1="996.2" y1="203.3" x2="965.1" y2="173.9"/>
<line class="st0" x1="996.2" y1="144.5" x2="965.1" y2="146.2"/>
<line class="st0" x1="937.5" y1="146.2" x2="965.1" y2="146.2"/>
<line class="st0" x1="965.1" y1="173.9" x2="937.5" y2="203.3"/>
<line class="st0" x1="937.5" y1="146.2" x2="907" y2="146.2"/>
<line class="st0" x1="965.1" y1="173.9" x2="937.5" y2="146.2"/>
<line class="st0" x1="937.5" y1="203.3" x2="907" y2="174.7"/>
<line class="st0" x1="937.5" y1="146.2" x2="907" y2="174.7"/>
<line class="st0" x1="907" y1="146.2" x2="875.7" y2="147.2"/>
<line class="st0" x1="907" y1="174.7" x2="875.7" y2="174.7"/>
<line class="st0" x1="875.7" y1="203.3" x2="907" y2="174.7"/>
<line class="st0" x1="875.7" y1="147.2" x2="846" y2="174.7"/>
<line class="st0" x1="846" y1="147.2" x2="813.3" y2="147.2"/>
<line class="st0" x1="875.7" y1="203.3" x2="846" y2="174.7"/>
<line class="st0" x1="813.3" y1="203.3" x2="846" y2="174.7"/>
<line class="st0" x1="813.3" y1="174.7" x2="846" y2="174.7"/>
<line class="st0" x1="875.7" y1="147.2" x2="846" y2="147.2"/>
<line class="st1" x1="1599.7" y1="203.3" x2="1566.2" y2="203.3"/>
<line class="st1" x1="1538.4" y1="203.3" x2="1507.2" y2="203.3"/>
<line class="st1" x1="1566.2" y1="203.3" x2="1538.4" y2="203.3"/>
<line class="st1" x1="1478.3" y1="203.3" x2="1507.2" y2="203.3"/>
<line class="st1" x1="1447" y1="203.3" x2="1478.3" y2="203.3"/>
<line class="st1" x1="1414.9" y1="203.3" x2="1447" y2="203.3"/>
<line class="st1" x1="1377.7" y1="203.3" x2="1414.9" y2="203.3"/>
<line class="st1" x1="1335.3" y1="203.3" x2="1377.7" y2="203.3"/>
<line class="st1" x1="1297.4" y1="203.3" x2="1335.3" y2="203.3"/>
<line class="st1" x1="1257.7" y1="203.3" x2="1297.4" y2="203.3"/>
<line class="st1" x1="1217" y1="203.3" x2="1257.7" y2="203.3"/>
<line class="st1" x1="1174.5" y1="203.3" x2="1217" y2="203.3"/>
<line class="st1" x1="1133.9" y1="203.3" x2="1174.5" y2="203.3"/>
<line class="st1" x1="1093.6" y1="203.3" x2="1133.9" y2="203.3"/>
<line class="st1" x1="1055.3" y1="203.3" x2="1093.6" y2="203.3"/>
<line class="st1" x1="1023.7" y1="203.3" x2="1055.3" y2="203.3"/>
<line class="st1" x1="996.2" y1="203.3" x2="1023.7" y2="203.3"/>
<line class="st1" x1="937.5" y1="203.3" x2="996.2" y2="203.3"/>
<line class="st1" x1="907" y1="203.3" x2="937.5" y2="203.3"/>
<line class="st1" x1="875.7" y1="203.3" x2="907" y2="203.3"/>
<line class="st1" x1="846" y1="203.3" x2="875.7" y2="203.3"/>
<line class="st1" x1="813.3" y1="203.3" x2="846" y2="203.3"/>
<circle class="st2" cx="1599.7" cy="203.3" r="3.5"/>
<circle class="st3" cx="1257.7" cy="316.4" r="3.5"/>
<circle class="st3" cx="1217" cy="316.4" r="3.5"/>
</svg>
