<?xml version="1.0" encoding="utf-8"?>
<!-- Generator: Adobe Illustrator 25.1.0, SVG Export Plug-In . SVG Version: 6.00 Build 0)  -->
<svg version="1.1" id="Ebene_2_1_" xmlns="http://www.w3.org/2000/svg" xmlns:xlink="http://www.w3.org/1999/xlink" x="0px" y="0px"
	 viewBox="0 0 1635.8 457.4" style="enable-background:new 0 0 1635.8 457.4;" xml:space="preserve">
<style type="text/css">
	.st0{fill:none;stroke:#E5007E;stroke-miterlimit:10;}
	.st1{fill:none;stroke:#00FF00;stroke-miterlimit:10;}
	.st2{fill:#00FF00;}
	.st3{fill:#E5007E;}
</style>
<line class="st0" x1="311.7" y1="203.3" x2="343.1" y2="169.8"/>
<line class="st0" x1="343.1" y1="169.8" x2="343.1" y2="203.3"/>
<line class="st0" x1="343.1" y1="169.8" x2="375.1" y2="136.9"/>
<line class="st0" x1="375.1" y1="136.9" x2="375.1" y2="169.8"/>
<line class="st0" x1="343.1" y1="169.8" x2="375.1" y2="169.8"/>
<line class="st0" x1="375.1" y1="169.8" x2="375.1" y2="203.3"/>
<line class="st0" x1="343.1" y1="169.8" x2="375.1" y2="203.3"/>
<line class="st0" x1="412.3" y1="163.3" x2="412.3" y2="130.1"/>
<line class="st0" x1="375.1" y1="136.9" x2="412.3" y2="130.1"/>
<line class="st0" x1="412.3" y1="163.3" x2="412.3" y2="203.3"/>
<line class="st0" x1="375.1" y1="203.3" x2="412.3" y2="163.3"/>
<line class="st0" x1="412.3" y1="130.1" x2="454.7" y2="118.5"/>
<line class="st0" x1="412.3" y1="163.3" x2="454.7" y2="118.5"/>
<line class="st0" x1="454.7" y1="118.5" x2="454.7" y2="203.3"/>
<line class="st0" x1="412.3" y1="163.3" x2="454.7" y2="203.3"/>
<line class="st0" x1="492.6" y1="103.2" x2="492.6" y2="160.9"/>
<line class="st0" x1="492.6" y1="160.9" x2="492.6" y2="203.3"/>
<line class="st0" x1="454.7" y1="118.5" x2="492.6" y2="160.9"/>
<line class="st0" x1="454.7" y1="203.3" x2="492.6" y2="160.9"/>
<line class="st0" x1="454.7" y1="118.5" x2="492.6" y2="103.2"/>
<line class="st0" x1="492.6" y1="160.9" x2="532.3" y2="203.3"/>
<line class="st0" x1="532.3" y1="203.3" x2="532.3" y2="81.8"/>
<line class="st0" x1="492.6" y1="103.2" x2="532.3" y2="81.8"/>
<line class="st0" x1="532.3" y1="81.8" x2="593" y2="81.8"/>
<line class="st0" x1="532.3" y1="81.8" x2="593" y2="203.3"/>
<line class="st0" x1="593" y1="81.8" x2="532.3" y2="203.3"/>
<line class="st0" x1="593" y1="203.3" x2="593" y2="81.8"/>
<line class="st0" x1="532.3" y1="203.3" x2="593" y2="316.4"/>
<line class="st0" x1="593" y1="316.4" x2="532.3" y2="316.4"/>
<line class="st0" x1="593" y1="203.3" x2="532.3" y2="316.4"/>
<line class="st0" x1="532.3" y1="203.3" x2="532.3" y2="316.4"/>
<line class="st0" x1="593" y1="203.3" x2="593" y2="316.4"/>
<line class="st0" x1="635.5" y1="107.2" x2="635.5" y2="163.3"/>
<line class="st0" x1="635.5" y1="163.3" x2="635.5" y2="203.3"/>
<line class="st0" x1="676.2" y1="123.3" x2="676.2" y2="203.3"/>
<line class="st0" x1="716.4" y1="133.4" x2="716.4" y2="165.8"/>
<line class="st0" x1="716.4" y1="165.8" x2="716.4" y2="203.3"/>
<line class="st0" x1="593" y1="81.8" x2="635.5" y2="107.2"/>
<line class="st0" x1="593" y1="203.3" x2="635.5" y2="163.3"/>
<line class="st0" x1="635.5" y1="107.2" x2="676.2" y2="123.3"/>
<line class="st0" x1="635.5" y1="163.3" x2="676.2" y2="123.3"/>
<line class="st0" x1="676.2" y1="203.3" x2="635.5" y2="163.3"/>
<line class="st0" x1="676.2" y1="123.3" x2="716.4" y2="165.8"/>
<line class="st0" x1="676.2" y1="203.3" x2="716.4" y2="165.8"/>
<line class="st0" x1="676.2" y1="123.3" x2="716.4" y2="133.4"/>
<line class="st0" x1="716.4" y1="165.8" x2="754.7" y2="203.3"/>
<line class="st0" x1="716.4" y1="133.4" x2="754.7" y2="140.4"/>
<line class="st1" x1="343.1" y1="203.3" x2="311.7" y2="203.3"/>
<line class="st1" x1="375.1" y1="203.3" x2="343.1" y2="203.3"/>
<line class="st1" x1="412.3" y1="203.3" x2="375.1" y2="203.3"/>
<line class="st1" x1="454.7" y1="203.3" x2="412.3" y2="203.3"/>
<line class="st1" x1="492.6" y1="203.3" x2="454.7" y2="203.3"/>
<line class="st1" x1="532.3" y1="203.3" x2="492.6" y2="203.3"/>
<line class="st1" x1="593" y1="203.3" x2="532.3" y2="203.3"/>
<line class="st1" x1="635.5" y1="203.3" x2="593" y2="203.3"/>
<line class="st1" x1="676.2" y1="203.3" x2="635.5" y2="203.3"/>
<line class="st1" x1="716.4" y1="203.3" x2="676.2" y2="203.3"/>
<line class="st1" x1="754.7" y1="203.3" x2="716.4" y2="203.3"/>
<line class="st0" x1="785.8" y1="144.2" x2="785.8" y2="173.9"/>
<line class="st0" x1="813.3" y1="146.2" x2="813.3" y2="203.3"/>
<line class="st0" x1="754.7" y1="203.3" x2="785.8" y2="173.9"/>
<line class="st0" x1="754.7" y1="140.4" x2="785.8" y2="144.2"/>
<line class="st0" x1="813.3" y1="146.2" x2="785.8" y2="144.2"/>
<line class="st0" x1="785.8" y1="173.9" x2="813.3" y2="203.3"/>
<line class="st0" x1="785.8" y1="173.9" x2="813.3" y2="146.2"/>
<line class="st1" x1="813.3" y1="203.3" x2="754.7" y2="203.3"/>
<circle class="st2" cx="311.7" cy="203.3" r="3.5"/>
<circle class="st3" cx="532.3" cy="316.4" r="3.5"/>
<circle class="st3" cx="593" cy="316.4" r="3.5"/>
<line class="st0" x1="754.7" y1="203.3" x2="754.7" y2="140.4"/>
<line class="st0" x1="1283.5" y1="169.8" x2="1314.9" y2="203.3"/>
<line class="st0" x1="1283.5" y1="203.3" x2="1283.5" y2="169.8"/>
<line class="st0" x1="1251.5" y1="136.9" x2="1283.5" y2="169.8"/>
<line class="st0" x1="1251.5" y1="169.8" x2="1251.5" y2="136.9"/>
<line class="st0" x1="1251.5" y1="169.8" x2="1283.5" y2="169.8"/>
<line class="st0" x1="1251.5" y1="203.3" x2="1251.5" y2="169.8"/>
<line class="st0" x1="1251.5" y1="203.3" x2="1283.5" y2="169.8"/>
<line class="st0" x1="1214.3" y1="130.1" x2="1214.3" y2="163.3"/>
<line class="st0" x1="1214.3" y1="130.1" x2="1251.5" y2="136.9"/>
<line class="st0" x1="1214.3" y1="203.3" x2="1214.3" y2="163.3"/>
<line class="st0" x1="1214.3" y1="163.3" x2="1251.5" y2="203.3"/>
<line class="st0" x1="1171.9" y1="118.5" x2="1214.3" y2="130.1"/>
<line class="st0" x1="1171.9" y1="118.5" x2="1214.3" y2="163.3"/>
<line class="st0" x1="1171.9" y1="203.3" x2="1171.9" y2="118.5"/>
<line class="st0" x1="1171.9" y1="203.3" x2="1214.3" y2="163.3"/>
<line class="st0" x1="1134" y1="160.9" x2="1134" y2="103.2"/>
<line class="st0" x1="1134" y1="203.3" x2="1134" y2="160.9"/>
<line class="st0" x1="1134" y1="160.9" x2="1171.9" y2="118.5"/>
<line class="st0" x1="1134" y1="160.9" x2="1171.9" y2="203.3"/>
<line class="st0" x1="1134" y1="103.2" x2="1171.9" y2="118.5"/>
<line class="st0" x1="1094.3" y1="203.3" x2="1134" y2="160.9"/>
<line class="st0" x1="1094.3" y1="81.8" x2="1094.3" y2="203.3"/>
<line class="st0" x1="1094.3" y1="81.8" x2="1134" y2="103.2"/>
<line class="st0" x1="1033.6" y1="81.8" x2="1094.3" y2="81.8"/>
<line class="st0" x1="1033.6" y1="203.3" x2="1094.3" y2="81.8"/>
<line class="st0" x1="1094.3" y1="203.3" x2="1033.6" y2="81.8"/>
<line class="st0" x1="1033.6" y1="81.8" x2="1033.6" y2="203.3"/>
<line class="st0" x1="1033.6" y1="316.4" x2="1094.3" y2="203.3"/>
<line class="st0" x1="1094.3" y1="316.4" x2="1033.6" y2="316.4"/>
<line class="st0" x1="1094.3" y1="316.4" x2="1033.6" y2="203.3"/>
<line class="st0" x1="1094.3" y1="316.4" x2="1094.3" y2="203.3"/>
<line class="st0" x1="1033.6" y1="316.4" x2="1033.6" y2="203.3"/>
<line class="st0" x1="991.1" y1="163.3" x2="991.1" y2="107.2"/>
<line class="st0" x1="991.1" y1="203.3" x2="991.1" y2="163.3"/>
<line class="st0" x1="950.4" y1="203.3" x2="950.4" y2="123.3"/>
<line class="st0" x1="910.2" y1="165.8" x2="910.2" y2="133.4"/>
<line class="st0" x1="910.2" y1="203.3" x2="910.2" y2="165.8"/>
<line class="st0" x1="991.1" y1="107.2" x2="1033.6" y2="81.8"/>
<line class="st0" x1="991.1" y1="163.3" x2="1033.6" y2="203.3"/>
<line class="st0" x1="950.4" y1="123.3" x2="991.1" y2="107.2"/>
<line class="st0" x1="950.4" y1="123.3" x2="991.1" y2="163.3"/>
<line class="st0" x1="991.1" y1="163.3" x2="950.4" y2="203.3"/>
<line class="st0" x1="910.2" y1="165.8" x2="950.4" y2="123.3"/>
<line class="st0" x1="910.2" y1="165.8" x2="950.4" y2="203.3"/>
<line class="st0" x1="910.2" y1="133.4" x2="950.4" y2="123.3"/>
<line class="st0" x1="871.9" y1="203.3" x2="910.2" y2="165.8"/>
<line class="st0" x1="871.9" y1="140.4" x2="910.2" y2="133.4"/>
<line class="st1" x1="1314.9" y1="203.3" x2="1283.5" y2="203.3"/>
<line class="st1" x1="1283.5" y1="203.3" x2="1251.5" y2="203.3"/>
<line class="st1" x1="1251.5" y1="203.3" x2="1214.3" y2="203.3"/>
<line class="st1" x1="1214.3" y1="203.3" x2="1171.9" y2="203.3"/>
<line class="st1" x1="1171.9" y1="203.3" x2="1134" y2="203.3"/>
<line class="st1" x1="1134" y1="203.3" x2="1094.3" y2="203.3"/>
<line class="st1" x1="1094.3" y1="203.3" x2="1033.6" y2="203.3"/>
<line class="st1" x1="1033.6" y1="203.3" x2="991.1" y2="203.3"/>
<line class="st1" x1="991.1" y1="203.3" x2="950.4" y2="203.3"/>
<line class="st1" x1="950.4" y1="203.3" x2="910.2" y2="203.3"/>
<line class="st1" x1="910.2" y1="203.3" x2="871.9" y2="203.3"/>
<line class="st0" x1="840.8" y1="173.9" x2="840.8" y2="144.2"/>
<line class="st0" x1="840.8" y1="173.9" x2="871.9" y2="203.3"/>
<line class="st0" x1="840.8" y1="144.2" x2="871.9" y2="140.4"/>
<line class="st0" x1="840.8" y1="144.2" x2="813.3" y2="146.2"/>
<line class="st0" x1="813.3" y1="203.3" x2="840.8" y2="173.9"/>
<line class="st0" x1="813.3" y1="146.2" x2="840.8" y2="173.9"/>
<line class="st1" x1="871.9" y1="203.3" x2="813.3" y2="203.3"/>
<circle class="st2" cx="1314.9" cy="203.3" r="3.5"/>
<circle class="st3" cx="1094.3" cy="316.4" r="3.5"/>
<circle class="st3" cx="1033.6" cy="316.4" r="3.5"/>
<line class="st0" x1="871.9" y1="203.3" x2="871.9" y2="140.4"/>
</svg>
