<?xml version="1.0" encoding="utf-8"?>
<!-- Generator: Adobe Illustrator 25.1.0, SVG Export Plug-In . SVG Version: 6.00 Build 0)  -->
<svg version="1.1" id="Ebene_2_1_" xmlns="http://www.w3.org/2000/svg" xmlns:xlink="http://www.w3.org/1999/xlink" x="0px" y="0px"
	 viewBox="0 0 1635.8 457.35" style="enable-background:new 0 0 1635.8 457.35;" xml:space="preserve">
<style type="text/css">
	.st0{fill:none;stroke:#E5007E;stroke-miterlimit:10;}
	.st1{fill:none;stroke:#00FF00;stroke-miterlimit:10;}
	.st3{fill:#00FF00;}
	.st2{fill:#E5007E;}
</style>
<line class="st0" x1="26.99" y1="203.33" x2="60.43" y2="173.66"/>
<line class="st0" x1="60.43" y1="173.66" x2="88.29" y2="147.78"/>
<line class="st0" x1="60.43" y1="173.66" x2="60.43" y2="203.33"/>
<line class="st0" x1="88.29" y1="173.66" x2="88.29" y2="203.33"/>
<line class="st0" x1="60.43" y1="173.66" x2="88.29" y2="173.66"/>
<line class="st0" x1="88.29" y1="203.33" x2="60.43" y2="173.66"/>
<line class="st0" x1="88.29" y1="147.78" x2="88.29" y2="173.66"/>
<line class="st0" x1="88.29" y1="203.33" x2="119.48" y2="172.45"/>
<line class="st0" x1="119.48" y1="172.45" x2="119.48" y2="146.02"/>
<line class="st0" x1="88.29" y1="147.78" x2="119.48" y2="146.02"/>
<line class="st0" x1="119.48" y1="172.45" x2="119.48" y2="203.33"/>
<line class="st0" x1="119.48" y1="172.45" x2="148.34" y2="172.45"/>
<line class="st0" x1="119.48" y1="146.02" x2="148.34" y2="144.13"/>
<line class="st0" x1="119.48" y1="172.45" x2="148.34" y2="144.13"/>
<line class="st0" x1="148.34" y1="172.45" x2="148.34" y2="203.33"/>
<line class="st0" x1="119.48" y1="172.45" x2="148.34" y2="203.33"/>
<line class="st0" x1="148.34" y1="144.13" x2="148.34" y2="172.45"/>
<line class="st0" x1="148.34" y1="203.33" x2="179.7" y2="169.75"/>
<line class="st0" x1="179.7" y1="169.75" x2="179.7" y2="140.49"/>
<line class="st0" x1="148.34" y1="144.13" x2="179.7" y2="140.49"/>
<line class="st0" x1="179.7" y1="169.75" x2="179.7" y2="203.33"/>
<line class="st0" x1="179.7" y1="169.75" x2="211.71" y2="136.85"/>
<line class="st0" x1="179.7" y1="140.49" x2="211.71" y2="136.85"/>
<line class="st0" x1="211.71" y1="136.85" x2="211.71" y2="169.75"/>
<line class="st0" x1="179.7" y1="169.75" x2="211.71" y2="169.75"/>
<line class="st0" x1="211.71" y1="169.75" x2="211.71" y2="203.33"/>
<line class="st0" x1="179.7" y1="169.75" x2="211.71" y2="203.33"/>
<line class="st0" x1="248.92" y1="163.28" x2="248.92" y2="130.11"/>
<line class="st0" x1="211.71" y1="136.85" x2="248.92" y2="130.11"/>
<line class="st0" x1="248.92" y1="163.28" x2="248.92" y2="203.33"/>
<line class="st0" x1="211.71" y1="203.33" x2="248.92" y2="163.28"/>
<line class="st0" x1="248.92" y1="130.11" x2="291.34" y2="118.52"/>
<line class="st0" x1="248.92" y1="163.28" x2="291.34" y2="118.52"/>
<line class="st0" x1="291.34" y1="118.52" x2="291.34" y2="203.33"/>
<line class="st0" x1="248.92" y1="163.28" x2="291.34" y2="203.33"/>
<line class="st0" x1="329.28" y1="103.15" x2="329.28" y2="160.92"/>
<line class="st0" x1="329.28" y1="160.92" x2="329.28" y2="203.33"/>
<line class="st0" x1="291.34" y1="118.52" x2="329.28" y2="160.92"/>
<line class="st0" x1="291.34" y1="203.33" x2="329.28" y2="160.92"/>
<line class="st0" x1="291.34" y1="118.52" x2="329.28" y2="103.15"/>
<line class="st0" x1="329.28" y1="160.92" x2="368.92" y2="203.33"/>
<line class="st0" x1="368.92" y1="203.33" x2="368.92" y2="163.28"/>
<line class="st0" x1="368.92" y1="163.28" x2="368.92" y2="123.31"/>
<line class="st0" x1="368.92" y1="123.31" x2="368.92" y2="81.84"/>
<line class="st0" x1="368.92" y1="123.31" x2="409.64" y2="123.31"/>
<line class="st0" x1="368.92" y1="163.28" x2="409.64" y2="163.28"/>
<line class="st0" x1="329.28" y1="103.15" x2="368.92" y2="81.84"/>
<line class="st0" x1="368.92" y1="123.31" x2="409.64" y2="81.84"/>
<line class="st0" x1="409.64" y1="123.31" x2="409.64" y2="81.84"/>
<line class="st0" x1="368.92" y1="81.84" x2="409.64" y2="81.84"/>
<line class="st0" x1="409.64" y1="123.31" x2="368.92" y2="81.84"/>
<line class="st0" x1="368.92" y1="163.28" x2="409.64" y2="123.31"/>
<line class="st0" x1="368.92" y1="123.31" x2="409.64" y2="163.28"/>
<line class="st0" x1="409.64" y1="123.31" x2="409.64" y2="163.28"/>
<line class="st0" x1="368.92" y1="163.28" x2="409.64" y2="203.33"/>
<line class="st0" x1="409.64" y1="163.28" x2="368.92" y2="203.33"/>
<line class="st0" x1="409.64" y1="203.33" x2="409.64" y2="163.28"/>
<line class="st0" x1="368.92" y1="203.33" x2="409.64" y2="259.69"/>
<line class="st0" x1="409.64" y1="259.69" x2="368.92" y2="259.69"/>
<line class="st0" x1="409.64" y1="203.33" x2="368.92" y2="259.69"/>
<line class="st0" x1="368.92" y1="203.33" x2="368.92" y2="259.69"/>
<line class="st0" x1="409.64" y1="203.33" x2="409.64" y2="259.69"/>
<line class="st0" x1="368.92" y1="259.69" x2="409.64" y2="316.36"/>
<line class="st0" x1="409.64" y1="316.36" x2="368.92" y2="316.36"/>
<line class="st0" x1="409.64" y1="259.69" x2="368.92" y2="316.36"/>
<line class="st0" x1="368.92" y1="259.69" x2="368.92" y2="316.36"/>
<line class="st0" x1="409.64" y1="259.69" x2="409.64" y2="316.36"/>
<line class="st0" x1="452.16" y1="107.15" x2="452.16" y2="163.28"/>
<line class="st0" x1="452.16" y1="163.28" x2="452.16" y2="203.33"/>
<line class="st0" x1="492.79" y1="123.31" x2="492.79" y2="203.33"/>
<line class="st0" x1="533.06" y1="133.39" x2="533.06" y2="165.75"/>
<line class="st0" x1="533.06" y1="165.75" x2="533.06" y2="203.33"/>
<line class="st0" x1="571.35" y1="140.4" x2="571.35" y2="173.12"/>
<line class="st0" x1="571.35" y1="173.12" x2="571.35" y2="203.33"/>
<line class="st0" x1="602.99" y1="142.92" x2="602.99" y2="173.12"/>
<line class="st0" x1="602.99" y1="173.12" x2="602.99" y2="203.33"/>
<line class="st0" x1="630.49" y1="144.54" x2="630.49" y2="203.33"/>
<line class="st0" x1="661.6" y1="146.16" x2="661.6" y2="173.93"/>
<line class="st0" x1="689.1" y1="146.16" x2="689.1" y2="203.33"/>
<line class="st0" x1="719.66" y1="146.16" x2="719.66" y2="174.74"/>
<line class="st0" x1="719.66" y1="174.74" x2="719.66" y2="203.33"/>
<line class="st0" x1="750.94" y1="147.16" x2="750.94" y2="174.74"/>
<line class="st0" x1="750.94" y1="174.74" x2="750.94" y2="203.33"/>
<line class="st0" x1="780.61" y1="147.16" x2="780.61" y2="174.74"/>
<line class="st0" x1="780.61" y1="174.74" x2="780.61" y2="203.33"/>
<line class="st0" x1="813.33" y1="147.16" x2="813.33" y2="174.74"/>
<line class="st0" x1="813.33" y1="174.74" x2="813.33" y2="203.33"/>
<line class="st0" x1="409.64" y1="81.84" x2="452.16" y2="107.15"/>
<line class="st0" x1="409.64" y1="203.33" x2="452.16" y2="163.28"/>
<line class="st0" x1="452.16" y1="107.15" x2="492.79" y2="123.31"/>
<line class="st0" x1="452.16" y1="163.28" x2="492.79" y2="123.31"/>
<line class="st0" x1="492.79" y1="203.33" x2="452.16" y2="163.28"/>
<line class="st0" x1="492.79" y1="123.31" x2="533.06" y2="165.75"/>
<line class="st0" x1="492.79" y1="203.33" x2="533.06" y2="165.75"/>
<line class="st0" x1="492.79" y1="123.31" x2="533.06" y2="133.39"/>
<line class="st0" x1="533.06" y1="165.75" x2="571.35" y2="203.33"/>
<line class="st0" x1="533.06" y1="133.39" x2="571.35" y2="140.4"/>
<line class="st0" x1="571.35" y1="203.33" x2="602.99" y2="173.12"/>
<line class="st0" x1="571.35" y1="173.12" x2="602.99" y2="173.12"/>
<line class="st0" x1="571.35" y1="140.4" x2="602.99" y2="173.12"/>
<line class="st0" x1="602.99" y1="142.92" x2="630.49" y2="144.54"/>
<line class="st0" x1="602.99" y1="173.12" x2="630.49" y2="144.54"/>
<line class="st0" x1="571.35" y1="140.4" x2="602.99" y2="142.92"/>
<line class="st0" x1="630.49" y1="203.33" x2="661.6" y2="173.93"/>
<line class="st0" x1="630.49" y1="144.54" x2="661.6" y2="146.16"/>
<line class="st0" x1="689.1" y1="146.16" x2="661.6" y2="146.16"/>
<line class="st0" x1="661.6" y1="173.93" x2="689.1" y2="203.33"/>
<line class="st0" x1="689.1" y1="146.16" x2="719.66" y2="146.16"/>
<line class="st0" x1="661.6" y1="173.93" x2="689.1" y2="146.16"/>
<line class="st0" x1="689.1" y1="203.33" x2="719.66" y2="174.74"/>
<line class="st0" x1="689.1" y1="146.16" x2="719.66" y2="174.74"/>
<line class="st0" x1="719.66" y1="146.16" x2="750.94" y2="147.16"/>
<line class="st0" x1="719.66" y1="174.74" x2="750.94" y2="174.74"/>
<line class="st0" x1="750.94" y1="203.33" x2="719.66" y2="174.74"/>
<line class="st0" x1="750.94" y1="147.16" x2="780.61" y2="174.74"/>
<line class="st0" x1="780.61" y1="147.16" x2="813.33" y2="147.16"/>
<line class="st0" x1="750.94" y1="203.33" x2="780.61" y2="174.74"/>
<line class="st0" x1="813.33" y1="203.33" x2="780.61" y2="174.74"/>
<line class="st0" x1="813.33" y1="174.74" x2="780.61" y2="174.74"/>
<line class="st0" x1="750.94" y1="147.16" x2="780.61" y2="147.16"/>
<line class="st1" x1="26.99" y1="203.33" x2="60.43" y2="203.33"/>
<line class="st1" x1="88.29" y1="203.33" x2="119.48" y2="203.33"/>
<line class="st1" x1="60.43" y1="203.33" x2="88.29" y2="203.33"/>
<line class="st1" x1="148.34" y1="203.33" x2="119.48" y2="203.33"/>
<line class="st1" x1="179.7" y1="203.33" x2="148.34" y2="203.33"/>
<line class="st1" x1="211.71" y1="203.33" x2="179.7" y2="203.33"/>
<line class="st1" x1="248.92" y1="203.33" x2="211.71" y2="203.33"/>
<line class="st1" x1="291.34" y1="203.33" x2="248.92" y2="203.33"/>
<line class="st1" x1="329.28" y1="203.33" x2="291.34" y2="203.33"/>
<line class="st1" x1="368.92" y1="203.33" x2="329.28" y2="203.33"/>
<line class="st1" x1="409.64" y1="203.33" x2="368.92" y2="203.33"/>
<line class="st1" x1="452.16" y1="203.33" x2="409.64" y2="203.33"/>
<line class="st1" x1="492.79" y1="203.33" x2="452.16" y2="203.33"/>
<line class="st1" x1="533.06" y1="203.33" x2="492.79" y2="203.33"/>
<line class="st1" x1="571.35" y1="203.33" x2="533.06" y2="203.33"/>
<line class="st1" x1="602.99" y1="203.33" x2="571.35" y2="203.33"/>
<line class="st1" x1="630.49" y1="203.33" x2="602.99" y2="203.33"/>
<line class="st1" x1="689.1" y1="203.33" x2="630.49" y2="203.33"/>
<line class="st1" x1="719.66" y1="203.33" x2="689.1" y2="203.33"/>
<line class="st1" x1="750.94" y1="203.33" x2="719.66" y2="203.33"/>
<line class="st1" x1="780.61" y1="203.33" x2="750.94" y2="203.33"/>
<line class="st1" x1="813.33" y1="203.33" x2="780.61" y2="203.33"/>
<circle class="st3" cx="26.99" cy="203.33" r="3.51"/>
<circle class="st2" cx="368.92" cy="316.36" r="3.51"/>
<circle class="st2" cx="409.64" cy="316.36" r="3.51"/>
<line class="st0" x1="1599.66" y1="203.33" x2="1566.22" y2="173.66"/>
<line class="st0" x1="1566.22" y1="173.66" x2="1538.36" y2="147.78"/>
<line class="st0" x1="1566.22" y1="173.66" x2="1566.22" y2="203.33"/>
<line class="st0" x1="1538.36" y1="173.66" x2="1538.36" y2="203.33"/>
<line class="st0" x1="1566.22" y1="173.66" x2="1538.36" y2="173.66"/>
<line class="st0" x1="1538.36" y1="203.33" x2="1566.22" y2="173.66"/>
<line class="st0" x1="1538.36" y1="147.78" x2="1538.36" y2="173.66"/>
<line class="st0" x1="1538.36" y1="203.33" x2="1507.17" y2="172.45"/>
<line class="st0" x1="1507.17" y1="172.45" x2="1507.17" y2="146.02"/>
<line class="st0" x1="1538.36" y1="147.78" x2="1507.17" y2="146.02"/>
<line class="st0" x1="1507.17" y1="172.45" x2="1507.17" y2="203.33"/>
<line class="st0" x1="1507.17" y1="172.45" x2="1478.31" y2="172.45"/>
<line class="st0" x1="1507.17" y1="146.02" x2="1478.31" y2="144.13"/>
<line class="st0" x1="1507.17" y1="172.45" x2="1478.31" y2="144.13"/>
<line class="st0" x1="1478.31" y1="172.45" x2="1478.31" y2="203.33"/>
<line class="st0" x1="1507.17" y1="172.45" x2="1478.31" y2="203.33"/>
<line class="st0" x1="1478.31" y1="144.13" x2="1478.31" y2="172.45"/>
<line class="st0" x1="1478.31" y1="203.33" x2="1446.96" y2="169.75"/>
<line class="st0" x1="1446.96" y1="169.75" x2="1446.96" y2="140.49"/>
<line class="st0" x1="1478.31" y1="144.13" x2="1446.96" y2="140.49"/>
<line class="st0" x1="1446.96" y1="169.75" x2="1446.96" y2="203.33"/>
<line class="st0" x1="1446.96" y1="169.75" x2="1414.94" y2="136.85"/>
<line class="st0" x1="1446.96" y1="140.49" x2="1414.94" y2="136.85"/>
<line class="st0" x1="1414.94" y1="136.85" x2="1414.94" y2="169.75"/>
<line class="st0" x1="1446.96" y1="169.75" x2="1414.94" y2="169.75"/>
<line class="st0" x1="1414.94" y1="169.75" x2="1414.94" y2="203.33"/>
<line class="st0" x1="1446.96" y1="169.75" x2="1414.94" y2="203.33"/>
<line class="st0" x1="1377.73" y1="163.28" x2="1377.73" y2="130.11"/>
<line class="st0" x1="1414.94" y1="136.85" x2="1377.73" y2="130.11"/>
<line class="st0" x1="1377.73" y1="163.28" x2="1377.73" y2="203.33"/>
<line class="st0" x1="1414.94" y1="203.33" x2="1377.73" y2="163.28"/>
<line class="st0" x1="1377.73" y1="130.11" x2="1335.31" y2="118.52"/>
<line class="st0" x1="1377.73" y1="163.28" x2="1335.31" y2="118.52"/>
<line class="st0" x1="1335.31" y1="118.52" x2="1335.31" y2="203.33"/>
<line class="st0" x1="1377.73" y1="163.28" x2="1335.31" y2="203.33"/>
<line class="st0" x1="1297.37" y1="103.15" x2="1297.37" y2="160.92"/>
<line class="st0" x1="1297.37" y1="160.92" x2="1297.37" y2="203.33"/>
<line class="st0" x1="1335.31" y1="118.52" x2="1297.37" y2="160.92"/>
<line class="st0" x1="1335.31" y1="203.33" x2="1297.37" y2="160.92"/>
<line class="st0" x1="1335.31" y1="118.52" x2="1297.37" y2="103.15"/>
<line class="st0" x1="1297.37" y1="160.92" x2="1257.73" y2="203.33"/>
<line class="st0" x1="1257.73" y1="203.33" x2="1257.73" y2="163.28"/>
<line class="st0" x1="1257.73" y1="163.28" x2="1257.73" y2="123.31"/>
<line class="st0" x1="1257.73" y1="123.31" x2="1257.73" y2="81.84"/>
<line class="st0" x1="1257.73" y1="123.31" x2="1217.01" y2="123.31"/>
<line class="st0" x1="1257.73" y1="163.28" x2="1217.01" y2="163.28"/>
<line class="st0" x1="1297.37" y1="103.15" x2="1257.73" y2="81.84"/>
<line class="st0" x1="1257.73" y1="123.31" x2="1217.01" y2="81.84"/>
<line class="st0" x1="1217.01" y1="123.31" x2="1217.01" y2="81.84"/>
<line class="st0" x1="1257.73" y1="81.84" x2="1217.01" y2="81.84"/>
<line class="st0" x1="1217.01" y1="123.31" x2="1257.73" y2="81.84"/>
<line class="st0" x1="1257.73" y1="163.28" x2="1217.01" y2="123.31"/>
<line class="st0" x1="1257.73" y1="123.31" x2="1217.01" y2="163.28"/>
<line class="st0" x1="1217.01" y1="123.31" x2="1217.01" y2="163.28"/>
<line class="st0" x1="1257.73" y1="163.28" x2="1217.01" y2="203.33"/>
<line class="st0" x1="1217.01" y1="163.28" x2="1257.73" y2="203.33"/>
<line class="st0" x1="1217.01" y1="203.33" x2="1217.01" y2="163.28"/>
<line class="st0" x1="1257.73" y1="203.33" x2="1217.01" y2="259.69"/>
<line class="st0" x1="1217.01" y1="259.69" x2="1257.73" y2="259.69"/>
<line class="st0" x1="1217.01" y1="203.33" x2="1257.73" y2="259.69"/>
<line class="st0" x1="1257.73" y1="203.33" x2="1257.73" y2="259.69"/>
<line class="st0" x1="1217.01" y1="203.33" x2="1217.01" y2="259.69"/>
<line class="st0" x1="1257.73" y1="259.69" x2="1217.01" y2="316.36"/>
<line class="st0" x1="1217.01" y1="316.36" x2="1257.73" y2="316.36"/>
<line class="st0" x1="1217.01" y1="259.69" x2="1257.73" y2="316.36"/>
<line class="st0" x1="1257.73" y1="259.69" x2="1257.73" y2="316.36"/>
<line class="st0" x1="1217.01" y1="259.69" x2="1217.01" y2="316.36"/>
<line class="st0" x1="1174.49" y1="107.15" x2="1174.49" y2="163.28"/>
<line class="st0" x1="1174.49" y1="163.28" x2="1174.49" y2="203.33"/>
<line class="st0" x1="1133.87" y1="123.31" x2="1133.87" y2="203.33"/>
<line class="st0" x1="1093.6" y1="133.39" x2="1093.6" y2="165.75"/>
<line class="st0" x1="1093.6" y1="165.75" x2="1093.6" y2="203.33"/>
<line class="st0" x1="1055.3" y1="140.4" x2="1055.3" y2="173.12"/>
<line class="st0" x1="1055.3" y1="173.12" x2="1055.3" y2="203.33"/>
<line class="st0" x1="1023.66" y1="142.92" x2="1023.66" y2="173.12"/>
<line class="st0" x1="1023.66" y1="173.12" x2="1023.66" y2="203.33"/>
<line class="st0" x1="996.16" y1="144.54" x2="996.16" y2="203.33"/>
<line class="st0" x1="965.06" y1="146.16" x2="965.06" y2="173.93"/>
<line class="st0" x1="937.55" y1="146.16" x2="937.55" y2="203.33"/>
<line class="st0" x1="906.99" y1="146.16" x2="906.99" y2="174.74"/>
<line class="st0" x1="906.99" y1="174.74" x2="906.99" y2="203.33"/>
<line class="st0" x1="875.71" y1="147.16" x2="875.71" y2="174.74"/>
<line class="st0" x1="875.71" y1="174.74" x2="875.71" y2="203.33"/>
<line class="st0" x1="846.04" y1="147.16" x2="846.04" y2="174.74"/>
<line class="st0" x1="846.04" y1="174.74" x2="846.04" y2="203.33"/>
<line class="st0" x1="1217.01" y1="81.84" x2="1174.49" y2="107.15"/>
<line class="st0" x1="1217.01" y1="203.33" x2="1174.49" y2="163.28"/>
<line class="st0" x1="1174.49" y1="107.15" x2="1133.87" y2="123.31"/>
<line class="st0" x1="1174.49" y1="163.28" x2="1133.87" y2="123.31"/>
<line class="st0" x1="1133.87" y1="203.33" x2="1174.49" y2="163.28"/>
<line class="st0" x1="1133.87" y1="123.31" x2="1093.6" y2="165.75"/>
<line class="st0" x1="1133.87" y1="203.33" x2="1093.6" y2="165.75"/>
<line class="st0" x1="1133.87" y1="123.31" x2="1093.6" y2="133.39"/>
<line class="st0" x1="1093.6" y1="165.75" x2="1055.3" y2="203.33"/>
<line class="st0" x1="1093.6" y1="133.39" x2="1055.3" y2="140.4"/>
<line class="st0" x1="1055.3" y1="203.33" x2="1023.66" y2="173.12"/>
<line class="st0" x1="1055.3" y1="173.12" x2="1023.66" y2="173.12"/>
<line class="st0" x1="1055.3" y1="140.4" x2="1023.66" y2="173.12"/>
<line class="st0" x1="1023.66" y1="142.92" x2="996.16" y2="144.54"/>
<line class="st0" x1="1023.66" y1="173.12" x2="996.16" y2="144.54"/>
<line class="st0" x1="1055.3" y1="140.4" x2="1023.66" y2="142.92"/>
<line class="st0" x1="996.16" y1="203.33" x2="965.06" y2="173.93"/>
<line class="st0" x1="996.16" y1="144.54" x2="965.06" y2="146.16"/>
<line class="st0" x1="937.55" y1="146.16" x2="965.06" y2="146.16"/>
<line class="st0" x1="965.06" y1="173.93" x2="937.55" y2="203.33"/>
<line class="st0" x1="937.55" y1="146.16" x2="906.99" y2="146.16"/>
<line class="st0" x1="965.06" y1="173.93" x2="937.55" y2="146.16"/>
<line class="st0" x1="937.55" y1="203.33" x2="906.99" y2="174.74"/>
<line class="st0" x1="937.55" y1="146.16" x2="906.99" y2="174.74"/>
<line class="st0" x1="906.99" y1="146.16" x2="875.71" y2="147.16"/>
<line class="st0" x1="906.99" y1="174.74" x2="875.71" y2="174.74"/>
<line class="st0" x1="875.71" y1="203.33" x2="906.99" y2="174.74"/>
<line class="st0" x1="875.71" y1="147.16" x2="846.04" y2="174.74"/>
<line class="st0" x1="846.04" y1="147.16" x2="813.33" y2="147.16"/>
<line class="st0" x1="875.71" y1="203.33" x2="846.04" y2="174.74"/>
<line class="st0" x1="813.33" y1="203.33" x2="846.04" y2="174.74"/>
<line class="st0" x1="813.33" y1="174.74" x2="846.04" y2="174.74"/>
<line class="st0" x1="875.71" y1="147.16" x2="846.04" y2="147.16"/>
<line class="st1" x1="1599.66" y1="203.33" x2="1566.22" y2="203.33"/>
<line class="st1" x1="1538.36" y1="203.33" x2="1507.17" y2="203.33"/>
<line class="st1" x1="1566.22" y1="203.33" x2="1538.36" y2="203.33"/>
<line class="st1" x1="1478.31" y1="203.33" x2="1507.17" y2="203.33"/>
<line class="st1" x1="1446.96" y1="203.33" x2="1478.31" y2="203.33"/>
<line class="st1" x1="1414.94" y1="203.33" x2="1446.96" y2="203.33"/>
<line class="st1" x1="1377.73" y1="203.33" x2="1414.94" y2="203.33"/>
<line class="st1" x1="1335.31" y1="203.33" x2="1377.73" y2="203.33"/>
<line class="st1" x1="1297.37" y1="203.33" x2="1335.31" y2="203.33"/>
<line class="st1" x1="1257.73" y1="203.33" x2="1297.37" y2="203.33"/>
<line class="st1" x1="1217.01" y1="203.33" x2="1257.73" y2="203.33"/>
<line class="st1" x1="1174.49" y1="203.33" x2="1217.01" y2="203.33"/>
<line class="st1" x1="1133.87" y1="203.33" x2="1174.49" y2="203.33"/>
<line class="st1" x1="1093.6" y1="203.33" x2="1133.87" y2="203.33"/>
<line class="st1" x1="1055.3" y1="203.33" x2="1093.6" y2="203.33"/>
<line class="st1" x1="1023.66" y1="203.33" x2="1055.3" y2="203.33"/>
<line class="st1" x1="996.16" y1="203.33" x2="1023.66" y2="203.33"/>
<line class="st1" x1="937.55" y1="203.33" x2="996.16" y2="203.33"/>
<line class="st1" x1="906.99" y1="203.33" x2="937.55" y2="203.33"/>
<line class="st1" x1="875.71" y1="203.33" x2="906.99" y2="203.33"/>
<line class="st1" x1="846.04" y1="203.33" x2="875.71" y2="203.33"/>
<line class="st1" x1="813.33" y1="203.33" x2="846.04" y2="203.33"/>
<circle class="st3" cx="1599.66" cy="203.33" r="3.51"/>
<circle class="st2" cx="1257.73" cy="316.36" r="3.51"/>
<circle class="st2" cx="1217.01" cy="316.36" r="3.51"/>
</svg>
