<?xml version="1.0" encoding="utf-8"?>
<!-- Generator: Adobe Illustrator 25.1.0, SVG Export Plug-In . SVG Version: 6.00 Build 0)  -->
<svg version="1.1" id="crescent_arch" xmlns="http://www.w3.org/2000/svg" xmlns:xlink="http://www.w3.org/1999/xlink" x="0px"
	 y="0px" viewBox="0 0 1099.9 383.8" style="enable-background:new 0 0 1099.9 383.8;" xml:space="preserve">
<style type="text/css">
	.st0{fill:none;stroke:#E5007E;stroke-miterlimit:10;}
	.st1{fill:none;stroke:#00FF00;stroke-miterlimit:10;}
	.st2{fill:#E5007E;}
	.st3{fill:#00FF00;}
</style>
<line class="st0" x1="69.8" y1="299.5" x2="112.3" y2="253"/>
<line class="st0" x1="112.3" y1="253" x2="112.3" y2="206.1"/>
<line class="st0" x1="112.3" y1="206.1" x2="112.3" y2="192.9"/>
<line class="st0" x1="153.6" y1="206.1" x2="153.6" y2="192.9"/>
<line class="st0" x1="239.6" y1="206.1" x2="239.6" y2="192.9"/>
<line class="st0" x1="112.3" y1="253" x2="153.6" y2="212.7"/>
<line class="st0" x1="153.6" y1="206.1" x2="153.6" y2="212.7"/>
<line class="st0" x1="153.6" y1="212.7" x2="195.7" y2="171.1"/>
<line class="st0" x1="153.6" y1="212.7" x2="196" y2="200.5"/>
<line class="st0" x1="153.6" y1="206.1" x2="239.6" y2="206.1"/>
<line class="st0" x1="153.6" y1="212.7" x2="153.6" y2="229.5"/>
<line class="st0" x1="153.6" y1="229.5" x2="196" y2="200.5"/>
<line class="st0" x1="196" y1="200.5" x2="239.6" y2="172.3"/>
<line class="st1" x1="153.6" y1="192.9" x2="239.6" y2="192.9"/>
<line class="st0" x1="195.7" y1="171.1" x2="196" y2="200.5"/>
<line class="st1" x1="112.3" y1="192.9" x2="153.6" y2="192.9"/>
<line class="st0" x1="112.3" y1="206.1" x2="153.6" y2="206.1"/>
<line class="st1" x1="112.3" y1="192.9" x2="69.8" y2="192.9"/>
<line class="st0" x1="112.3" y1="206.1" x2="69.8" y2="206.1"/>
<line class="st0" x1="195.7" y1="171.1" x2="239.6" y2="138.4"/>
<line class="st0" x1="239.6" y1="138.4" x2="280.7" y2="109.7"/>
<line class="st0" x1="280.7" y1="109.7" x2="324.8" y2="83.6"/>
<line class="st0" x1="239.6" y1="138.4" x2="239.6" y2="172.3"/>
<line class="st0" x1="324.8" y1="83.6" x2="365.8" y2="63.1"/>
<line class="st0" x1="280.7" y1="109.7" x2="280.7" y2="149.9"/>
<line class="st0" x1="365.8" y1="63.1" x2="409.3" y2="43.3"/>
<line class="st0" x1="324.8" y1="83.6" x2="324.8" y2="127.5"/>
<line class="st0" x1="409.3" y1="43.3" x2="451.2" y2="30"/>
<line class="st0" x1="365.8" y1="63.1" x2="365.8" y2="111.2"/>
<line class="st0" x1="451.2" y1="30" x2="493" y2="23.5"/>
<line class="st0" x1="409.3" y1="43.3" x2="409.3" y2="96.7"/>
<line class="st0" x1="493" y1="23.5" x2="535.1" y2="19.8"/>
<line class="st0" x1="451.2" y1="30" x2="451.2" y2="86.8"/>
<line class="st0" x1="493" y1="23.5" x2="493" y2="80.5"/>
<line class="st0" x1="535.1" y1="19.8" x2="535.1" y2="77.8"/>
<line class="st0" x1="239.6" y1="172.3" x2="280.7" y2="149.9"/>
<line class="st0" x1="324.8" y1="127.5" x2="365.8" y2="111.2"/>
<line class="st0" x1="280.7" y1="149.9" x2="324.8" y2="127.5"/>
<line class="st0" x1="365.8" y1="111.2" x2="409.3" y2="96.7"/>
<line class="st0" x1="409.3" y1="43.3" x2="451.2" y2="86.8"/>
<line class="st0" x1="409.3" y1="96.7" x2="451.2" y2="86.8"/>
<line class="st0" x1="451.2" y1="30" x2="493" y2="80.5"/>
<line class="st0" x1="451.2" y1="86.8" x2="493" y2="80.5"/>
<line class="st0" x1="493" y1="23.5" x2="535.1" y2="77.8"/>
<line class="st0" x1="493" y1="80.5" x2="535.1" y2="77.8"/>
<line class="st0" x1="324.8" y1="83.6" x2="365.8" y2="111.2"/>
<line class="st0" x1="280.7" y1="109.7" x2="324.8" y2="127.5"/>
<line class="st0" x1="239.6" y1="138.4" x2="280.7" y2="149.9"/>
<line class="st0" x1="195.7" y1="171.1" x2="239.6" y2="172.3"/>
<line class="st0" x1="112.3" y1="253" x2="112.3" y2="264.2"/>
<line class="st0" x1="153.6" y1="229.5" x2="112.3" y2="264.2"/>
<line class="st0" x1="69.8" y1="299.5" x2="112.3" y2="264.2"/>
<line class="st0" x1="112.3" y1="253" x2="153.6" y2="229.5"/>
<line class="st0" x1="280.7" y1="149.9" x2="280.7" y2="192.9"/>
<line class="st0" x1="324.8" y1="127.5" x2="324.8" y2="192.9"/>
<line class="st0" x1="365.8" y1="111.2" x2="365.8" y2="192.9"/>
<line class="st0" x1="409.3" y1="96.7" x2="409.3" y2="192.9"/>
<line class="st0" x1="451.2" y1="86.8" x2="451.2" y2="192.9"/>
<line class="st0" x1="493" y1="80.5" x2="493" y2="192.9"/>
<line class="st0" x1="535.1" y1="77.8" x2="535.1" y2="192.9"/>
<line class="st1" x1="239.6" y1="192.9" x2="280.7" y2="192.9"/>
<line class="st0" x1="239.6" y1="206.1" x2="280.7" y2="206.1"/>
<line class="st1" x1="280.7" y1="192.9" x2="324.8" y2="192.9"/>
<line class="st0" x1="280.7" y1="206.1" x2="324.8" y2="206.1"/>
<line class="st1" x1="324.8" y1="192.9" x2="365.8" y2="192.9"/>
<line class="st0" x1="324.8" y1="206.1" x2="365.8" y2="206.1"/>
<line class="st1" x1="365.8" y1="192.9" x2="409.3" y2="192.9"/>
<line class="st0" x1="365.8" y1="206.1" x2="409.3" y2="206.1"/>
<line class="st1" x1="409.3" y1="192.9" x2="451.2" y2="192.9"/>
<line class="st0" x1="409.3" y1="206.1" x2="451.2" y2="206.1"/>
<line class="st1" x1="451.2" y1="192.9" x2="493" y2="192.9"/>
<line class="st0" x1="451.2" y1="206.1" x2="493" y2="206.1"/>
<line class="st1" x1="493" y1="192.9" x2="535.1" y2="192.9"/>
<line class="st0" x1="493" y1="206.1" x2="535.1" y2="206.1"/>
<line class="st0" x1="239.6" y1="172.3" x2="239.6" y2="192.9"/>
<line class="st0" x1="280.7" y1="192.9" x2="280.7" y2="206.1"/>
<line class="st0" x1="324.8" y1="192.9" x2="324.8" y2="206.1"/>
<line class="st0" x1="365.8" y1="192.9" x2="365.8" y2="206.1"/>
<line class="st0" x1="409.3" y1="192.9" x2="409.3" y2="206.1"/>
<line class="st0" x1="451.2" y1="192.9" x2="451.2" y2="206.1"/>
<line class="st0" x1="493" y1="192.9" x2="493" y2="206.1"/>
<line class="st0" x1="535.1" y1="192.9" x2="535.1" y2="206.1"/>
<line class="st0" x1="1046.3" y1="299.5" x2="1003.7" y2="253"/>
<line class="st0" x1="1003.7" y1="253" x2="1003.7" y2="206.1"/>
<line class="st0" x1="1003.7" y1="206.1" x2="1003.7" y2="192.9"/>
<line class="st0" x1="962.5" y1="206.1" x2="962.5" y2="192.9"/>
<line class="st0" x1="876.5" y1="206.1" x2="876.5" y2="192.9"/>
<line class="st0" x1="1003.7" y1="253" x2="962.5" y2="212.7"/>
<line class="st0" x1="962.5" y1="206.1" x2="962.5" y2="212.7"/>
<line class="st0" x1="962.5" y1="212.7" x2="920.3" y2="172.1"/>
<line class="st0" x1="962.5" y1="212.7" x2="920.1" y2="200.5"/>
<line class="st0" x1="962.5" y1="206.1" x2="876.5" y2="206.1"/>
<line class="st0" x1="962.5" y1="212.7" x2="962.5" y2="229.5"/>
<line class="st0" x1="962.5" y1="229.5" x2="920.1" y2="200.5"/>
<line class="st0" x1="920.1" y1="200.5" x2="876.5" y2="172.3"/>
<line class="st1" x1="962.5" y1="192.9" x2="876.5" y2="192.9"/>
<line class="st0" x1="920.3" y1="172.1" x2="920.1" y2="200.5"/>
<line class="st1" x1="1003.7" y1="192.9" x2="962.5" y2="192.9"/>
<line class="st0" x1="1003.7" y1="206.1" x2="962.5" y2="206.1"/>
<line class="st1" x1="1003.7" y1="192.9" x2="1046.3" y2="192.9"/>
<line class="st0" x1="1003.7" y1="206.1" x2="1046.3" y2="206.1"/>
<line class="st0" x1="920.3" y1="172.1" x2="876.5" y2="138.4"/>
<line class="st0" x1="876.5" y1="138.4" x2="835.4" y2="109.7"/>
<line class="st0" x1="835.4" y1="109.7" x2="791.2" y2="83.6"/>
<line class="st0" x1="876.5" y1="138.4" x2="876.5" y2="172.3"/>
<line class="st0" x1="791.2" y1="83.6" x2="750.3" y2="63.1"/>
<line class="st0" x1="835.4" y1="109.7" x2="835.4" y2="149.9"/>
<line class="st0" x1="750.3" y1="63.1" x2="706.8" y2="43.3"/>
<line class="st0" x1="791.2" y1="83.6" x2="791.2" y2="127.5"/>
<line class="st0" x1="706.8" y1="43.3" x2="664.9" y2="30"/>
<line class="st0" x1="750.3" y1="63.1" x2="750.3" y2="111.2"/>
<line class="st0" x1="664.9" y1="30" x2="623.1" y2="23.5"/>
<line class="st0" x1="706.8" y1="43.3" x2="706.8" y2="96.7"/>
<line class="st0" x1="623.1" y1="23.5" x2="581" y2="19.8"/>
<line class="st0" x1="664.9" y1="30" x2="664.9" y2="86.8"/>
<line class="st0" x1="623.1" y1="23.5" x2="623.1" y2="80.5"/>
<line class="st0" x1="581" y1="19.8" x2="581" y2="77.8"/>
<line class="st0" x1="876.5" y1="172.3" x2="835.4" y2="149.9"/>
<line class="st0" x1="791.2" y1="127.5" x2="750.3" y2="111.2"/>
<line class="st0" x1="835.4" y1="149.9" x2="791.2" y2="127.5"/>
<line class="st0" x1="750.3" y1="111.2" x2="706.8" y2="96.7"/>
<line class="st0" x1="706.8" y1="43.3" x2="664.9" y2="86.8"/>
<line class="st0" x1="706.8" y1="96.7" x2="664.9" y2="86.8"/>
<line class="st0" x1="664.9" y1="30" x2="623.1" y2="80.5"/>
<line class="st0" x1="664.9" y1="86.8" x2="623.1" y2="80.5"/>
<line class="st0" x1="623.1" y1="23.5" x2="581" y2="77.8"/>
<line class="st0" x1="623.1" y1="80.5" x2="581" y2="77.8"/>
<line class="st0" x1="791.2" y1="83.6" x2="750.3" y2="111.2"/>
<line class="st0" x1="835.4" y1="109.7" x2="791.2" y2="127.5"/>
<line class="st0" x1="876.5" y1="138.4" x2="835.4" y2="149.9"/>
<line class="st0" x1="920.3" y1="172.1" x2="876.5" y2="172.3"/>
<line class="st0" x1="1003.7" y1="253" x2="1003.7" y2="264.2"/>
<line class="st0" x1="962.5" y1="229.5" x2="1003.7" y2="264.2"/>
<line class="st0" x1="1046.3" y1="299.5" x2="1003.7" y2="264.2"/>
<line class="st0" x1="1003.7" y1="253" x2="962.5" y2="229.5"/>
<line class="st0" x1="835.4" y1="149.9" x2="835.4" y2="192.9"/>
<line class="st0" x1="791.2" y1="127.5" x2="791.2" y2="192.9"/>
<line class="st0" x1="750.3" y1="111.2" x2="750.3" y2="192.9"/>
<line class="st0" x1="706.8" y1="96.7" x2="706.8" y2="192.9"/>
<line class="st0" x1="664.9" y1="86.8" x2="664.9" y2="192.9"/>
<line class="st0" x1="623.1" y1="80.5" x2="623.1" y2="192.9"/>
<line class="st0" x1="581" y1="77.8" x2="581" y2="192.9"/>
<line class="st1" x1="876.5" y1="192.9" x2="835.4" y2="192.9"/>
<line class="st0" x1="876.5" y1="206.1" x2="835.4" y2="206.1"/>
<line class="st1" x1="835.4" y1="192.9" x2="791.2" y2="192.9"/>
<line class="st0" x1="835.4" y1="206.1" x2="791.2" y2="206.1"/>
<line class="st1" x1="791.2" y1="192.9" x2="750.3" y2="192.9"/>
<line class="st0" x1="791.2" y1="206.1" x2="750.3" y2="206.1"/>
<line class="st1" x1="750.3" y1="192.9" x2="706.8" y2="192.9"/>
<line class="st0" x1="750.3" y1="206.1" x2="706.8" y2="206.1"/>
<line class="st1" x1="706.8" y1="192.9" x2="664.9" y2="192.9"/>
<line class="st0" x1="706.8" y1="206.1" x2="664.9" y2="206.1"/>
<line class="st1" x1="664.9" y1="192.9" x2="623.1" y2="192.9"/>
<line class="st0" x1="664.9" y1="206.1" x2="623.1" y2="206.1"/>
<line class="st1" x1="623.1" y1="192.9" x2="581" y2="192.9"/>
<line class="st0" x1="623.1" y1="206.1" x2="581" y2="206.1"/>
<line class="st0" x1="876.5" y1="172.3" x2="876.5" y2="192.9"/>
<line class="st0" x1="835.4" y1="192.9" x2="835.4" y2="206.1"/>
<line class="st0" x1="791.2" y1="192.9" x2="791.2" y2="206.1"/>
<line class="st0" x1="750.3" y1="192.9" x2="750.3" y2="206.1"/>
<line class="st0" x1="706.8" y1="192.9" x2="706.8" y2="206.1"/>
<line class="st0" x1="664.9" y1="192.9" x2="664.9" y2="206.1"/>
<line class="st0" x1="623.1" y1="192.9" x2="623.1" y2="206.1"/>
<line class="st0" x1="581" y1="192.9" x2="581" y2="206.1"/>
<line class="st1" x1="535.1" y1="192.9" x2="581" y2="192.9"/>
<line class="st0" x1="535.1" y1="206.1" x2="581" y2="206.1"/>
<line class="st0" x1="535.1" y1="19.8" x2="581" y2="19.8"/>
<line class="st0" x1="535.1" y1="77.8" x2="581" y2="77.8"/>
<line class="st0" x1="535.1" y1="19.8" x2="581" y2="77.8"/>
<line class="st0" x1="581" y1="19.8" x2="535.1" y2="77.8"/>
<circle class="st2" cx="69.8" cy="299.5" r="2.6"/>
<circle class="st3" cx="69.8" cy="206.1" r="2.6"/>
<circle class="st3" cx="69.8" cy="192.9" r="2.6"/>
<circle class="st2" cx="1046.3" cy="299.5" r="2.6"/>
<circle class="st3" cx="1046.3" cy="206.1" r="2.6"/>
<circle class="st3" cx="1046.3" cy="192.9" r="2.6"/>
<line class="st0" x1="706.8" y1="96.7" x2="750.3" y2="63.1"/>
<line class="st0" x1="365.8" y1="63.1" x2="409.3" y2="96.7"/>
<line class="st0" x1="69.8" y1="206.1" x2="69.8" y2="192.9"/>
<line class="st0" x1="1046.3" y1="206.1" x2="1046.3" y2="192.9"/>
</svg>
