<?xml version="1.0" encoding="utf-8"?>
<!-- Generator: Adobe Illustrator 25.1.0, SVG Export Plug-In . SVG Version: 6.00 Build 0)  -->
<svg version="1.1" id="Ebene_2" xmlns="http://www.w3.org/2000/svg" xmlns:xlink="http://www.w3.org/1999/xlink" x="0px" y="0px"
	 viewBox="0 0 1099.9 360.3" style="enable-background:new 0 0 1099.9 360.3;" xml:space="preserve">
<style type="text/css">
	.st0{fill:none;stroke:#E5007E;stroke-miterlimit:10;}
	.st1{fill:none;stroke:#00FF00;stroke-miterlimit:10;}
	.st2{fill:#E5007E;}
	.st3{fill:#00FF00;}
</style>
<line class="st0" x1="493.8" y1="24.6" x2="624.6" y2="56.8"/>
<line class="st0" x1="624.6" y1="24.6" x2="493.8" y2="56.8"/>
<line class="st0" x1="69.8" y1="132.3" x2="153.2" y2="205"/>
<line class="st0" x1="153.2" y1="99.8" x2="239" y2="148.1"/>
<line class="st0" x1="239" y1="70.3" x2="324" y2="103.7"/>
<line class="st0" x1="324" y1="47.2" x2="409.2" y2="73"/>
<line class="st0" x1="409.2" y1="32" x2="493.8" y2="56.8"/>
<line class="st1" x1="55.5" y1="167.9" x2="153.2" y2="167.9"/>
<line class="st0" x1="69.8" y1="277.2" x2="69.8" y2="132.3"/>
<line class="st0" x1="153.2" y1="205" x2="239" y2="148.1"/>
<line class="st0" x1="69.8" y1="132.3" x2="153.2" y2="99.8"/>
<line class="st0" x1="69.8" y1="277.2" x2="153.2" y2="205"/>
<line class="st0" x1="239" y1="148.1" x2="324" y2="103.7"/>
<line class="st1" x1="153.2" y1="167.9" x2="239" y2="167.9"/>
<line class="st0" x1="153.2" y1="99.8" x2="153.2" y2="167.9"/>
<line class="st0" x1="153.2" y1="205" x2="153.2" y2="167.9"/>
<line class="st0" x1="153.2" y1="99.8" x2="239" y2="70.3"/>
<line class="st0" x1="239" y1="70.3" x2="239" y2="148.1"/>
<line class="st0" x1="239" y1="167.9" x2="239" y2="148.1"/>
<line class="st0" x1="239" y1="70.3" x2="324" y2="47.2"/>
<line class="st0" x1="324" y1="103.7" x2="409.2" y2="73"/>
<line class="st0" x1="324" y1="47.2" x2="324" y2="103.7"/>
<line class="st1" x1="239" y1="167.9" x2="324" y2="167.9"/>
<line class="st0" x1="409.2" y1="73" x2="493.8" y2="56.8"/>
<line class="st0" x1="624.6" y1="56.8" x2="493.8" y2="56.8"/>
<line class="st0" x1="324" y1="47.2" x2="409.2" y2="32"/>
<line class="st0" x1="624.6" y1="24.6" x2="493.8" y2="24.6"/>
<line class="st0" x1="409.2" y1="32" x2="493.8" y2="24.6"/>
<line class="st0" x1="493.8" y1="56.8" x2="493.8" y2="24.6"/>
<line class="st0" x1="409.2" y1="73" x2="409.2" y2="32"/>
<line class="st1" x1="324" y1="167.9" x2="409.2" y2="167.9"/>
<line class="st0" x1="324" y1="103.7" x2="324" y2="167.9"/>
<line class="st0" x1="409.2" y1="73" x2="409.2" y2="167.9"/>
<line class="st0" x1="493.8" y1="56.8" x2="493.8" y2="167.9"/>
<line class="st0" x1="624.6" y1="56.8" x2="624.6" y2="167.9"/>
<line class="st1" x1="409.2" y1="167.9" x2="493.8" y2="167.9"/>
<line class="st0" x1="1048.6" y1="132.3" x2="965.2" y2="205"/>
<line class="st0" x1="965.2" y1="99.8" x2="879.4" y2="148.1"/>
<line class="st0" x1="879.4" y1="70.3" x2="794.4" y2="103.7"/>
<line class="st0" x1="794.4" y1="47.2" x2="709.2" y2="73"/>
<line class="st0" x1="709.2" y1="32" x2="624.6" y2="56.8"/>
<line class="st1" x1="1062.9" y1="167.9" x2="965.2" y2="167.9"/>
<line class="st0" x1="1048.6" y1="277.2" x2="1048.6" y2="132.3"/>
<line class="st0" x1="965.2" y1="205" x2="879.4" y2="148.1"/>
<line class="st0" x1="1048.6" y1="132.3" x2="965.2" y2="99.8"/>
<line class="st0" x1="1048.6" y1="277.2" x2="965.2" y2="205"/>
<line class="st0" x1="879.4" y1="148.1" x2="794.4" y2="103.7"/>
<line class="st1" x1="965.2" y1="167.9" x2="879.4" y2="167.9"/>
<line class="st0" x1="965.2" y1="99.8" x2="965.2" y2="167.9"/>
<line class="st0" x1="965.2" y1="205" x2="965.2" y2="167.9"/>
<line class="st0" x1="965.2" y1="99.8" x2="879.4" y2="70.3"/>
<line class="st0" x1="879.4" y1="70.3" x2="879.4" y2="148.1"/>
<line class="st0" x1="879.4" y1="167.9" x2="879.4" y2="148.1"/>
<line class="st0" x1="879.4" y1="70.3" x2="794.4" y2="47.2"/>
<line class="st0" x1="794.4" y1="103.7" x2="709.2" y2="73"/>
<line class="st0" x1="794.4" y1="47.2" x2="794.4" y2="103.7"/>
<line class="st1" x1="879.4" y1="167.9" x2="794.4" y2="167.9"/>
<line class="st0" x1="709.2" y1="73" x2="624.6" y2="56.8"/>
<line class="st0" x1="794.4" y1="47.2" x2="709.2" y2="32"/>
<line class="st0" x1="709.2" y1="32" x2="624.6" y2="24.6"/>
<line class="st0" x1="709.2" y1="73" x2="709.2" y2="32"/>
<line class="st1" x1="794.4" y1="167.9" x2="709.2" y2="167.9"/>
<line class="st0" x1="794.4" y1="103.7" x2="794.4" y2="167.9"/>
<line class="st0" x1="709.2" y1="73" x2="709.2" y2="167.9"/>
<line class="st1" x1="709.2" y1="167.9" x2="624.6" y2="167.9"/>
<line class="st1" x1="493.8" y1="167.9" x2="624.6" y2="167.9"/>
<line class="st0" x1="624.6" y1="24.6" x2="624.6" y2="56.8"/>
<circle class="st2" cx="69.8" cy="132.3" r="2.6"/>
<circle class="st2" cx="69.8" cy="277.2" r="2.6"/>
<circle class="st2" cx="1048.6" cy="132.3" r="2.6"/>
<circle class="st2" cx="1048.6" cy="277.2" r="2.6"/>
<circle class="st3" cx="55.5" cy="167.9" r="2.6"/>
<circle class="st3" cx="1062.9" cy="167.9" r="2.6"/>
</svg>
