<?xml version="1.0" encoding="utf-8"?>
<!-- Generator: Adobe Illustrator 25.1.0, SVG Export Plug-In . SVG Version: 6.00 Build 0)  -->
<svg version="1.1" id="Ebene_2_1_" xmlns="http://www.w3.org/2000/svg" xmlns:xlink="http://www.w3.org/1999/xlink" x="0px" y="0px"
	 viewBox="0 0 1589.85 768" style="enable-background:new 0 0 1589.85 768;" xml:space="preserve">
<style type="text/css">
	.st0{fill:none;stroke:#E5007E;stroke-miterlimit:10;}
	.st1{fill:none;stroke:#00FF00;stroke-miterlimit:10;}
	.st3{fill:#00FF00;}
	.st2{fill:#E5007E;}
</style>
<line class="st0" x1="127.47" y1="315.25" x2="173.58" y2="287.47"/>
<line class="st0" x1="173.58" y1="301.36" x2="173.58" y2="315.25"/>
<line class="st0" x1="127.47" y1="315.25" x2="127.47" y2="328.46"/>
<line class="st0" x1="173.58" y1="315.25" x2="173.58" y2="328.46"/>
<line class="st0" x1="211.34" y1="315.25" x2="211.34" y2="328.46"/>
<line class="st0" x1="249.63" y1="315.25" x2="249.63" y2="328.46"/>
<line class="st0" x1="289.4" y1="315.25" x2="289.4" y2="328.46"/>
<line class="st0" x1="327.83" y1="315.25" x2="327.83" y2="328.46"/>
<line class="st0" x1="412.78" y1="315.25" x2="412.78" y2="328.46"/>
<line class="st0" x1="454.84" y1="315.25" x2="454.84" y2="328.46"/>
<line class="st0" x1="496.37" y1="315.25" x2="496.37" y2="328.46"/>
<line class="st0" x1="540.33" y1="315.25" x2="540.33" y2="328.46"/>
<line class="st0" x1="584.28" y1="315.25" x2="584.28" y2="328.46"/>
<line class="st0" x1="625.67" y1="315.25" x2="625.67" y2="328.46"/>
<line class="st0" x1="667.61" y1="315.25" x2="667.61" y2="328.46"/>
<line class="st0" x1="709.94" y1="315.25" x2="709.94" y2="328.46"/>
<line class="st0" x1="753.36" y1="315.25" x2="753.36" y2="328.46"/>
<line class="st0" x1="795.98" y1="315.25" x2="795.98" y2="328.46"/>
<line class="st0" x1="127.47" y1="328.46" x2="173.58" y2="328.46"/>
<line class="st1" x1="127.47" y1="315.25" x2="173.58" y2="315.25"/>
<line class="st0" x1="127.47" y1="315.25" x2="173.58" y2="301.36"/>
<line class="st0" x1="173.58" y1="287.47" x2="173.58" y2="301.36"/>
<line class="st0" x1="173.58" y1="287.47" x2="211.34" y2="263.07"/>
<line class="st0" x1="249.63" y1="235.02" x2="211.34" y2="263.07"/>
<line class="st0" x1="289.4" y1="205.9" x2="249.63" y2="235.02"/>
<line class="st0" x1="327.83" y1="176.64" x2="289.4" y2="205.9"/>
<line class="st0" x1="371.98" y1="141.18" x2="327.83" y2="176.64"/>
<line class="st0" x1="371.98" y1="141.18" x2="412.78" y2="176.1"/>
<line class="st0" x1="412.78" y1="176.1" x2="454.84" y2="204.42"/>
<line class="st0" x1="496.37" y1="227.88" x2="454.84" y2="204.42"/>
<line class="st0" x1="540.33" y1="246.89" x2="496.37" y2="227.88"/>
<line class="st0" x1="584.28" y1="262.53" x2="540.33" y2="246.89"/>
<line class="st0" x1="625.67" y1="273.85" x2="584.28" y2="262.53"/>
<line class="st0" x1="667.61" y1="283.02" x2="625.67" y2="273.85"/>
<line class="st0" x1="709.94" y1="289.76" x2="667.61" y2="283.02"/>
<line class="st0" x1="753.36" y1="293.81" x2="709.94" y2="289.76"/>
<line class="st0" x1="795.98" y1="294.89" x2="753.36" y2="293.81"/>
<line class="st0" x1="211.34" y1="263.07" x2="211.34" y2="285.4"/>
<line class="st0" x1="249.63" y1="235.02" x2="249.63" y2="264.91"/>
<line class="st0" x1="289.4" y1="205.9" x2="289.4" y2="236.78"/>
<line class="st0" x1="327.83" y1="176.64" x2="327.83" y2="200.1"/>
<line class="st0" x1="412.78" y1="176.1" x2="412.78" y2="186.08"/>
<line class="st0" x1="454.84" y1="204.42" x2="454.84" y2="224.64"/>
<line class="st0" x1="496.37" y1="227.88" x2="496.37" y2="254.71"/>
<line class="st0" x1="540.33" y1="246.89" x2="540.33" y2="278.44"/>
<line class="st0" x1="584.28" y1="262.53" x2="584.28" y2="299.61"/>
<line class="st0" x1="625.67" y1="273.85" x2="625.67" y2="315.25"/>
<line class="st0" x1="667.61" y1="283.02" x2="667.61" y2="315.25"/>
<line class="st0" x1="709.94" y1="289.76" x2="709.94" y2="315.25"/>
<line class="st0" x1="753.36" y1="293.81" x2="753.36" y2="315.25"/>
<line class="st0" x1="795.98" y1="294.89" x2="795.98" y2="315.25"/>
<line class="st0" x1="753.36" y1="315.25" x2="795.98" y2="294.89"/>
<line class="st0" x1="709.94" y1="289.76" x2="753.36" y2="315.25"/>
<line class="st0" x1="753.36" y1="293.81" x2="709.94" y2="315.25"/>
<line class="st0" x1="667.61" y1="283.02" x2="709.94" y2="315.25"/>
<line class="st0" x1="709.94" y1="289.76" x2="667.61" y2="315.25"/>
<line class="st0" x1="625.67" y1="273.85" x2="667.61" y2="315.25"/>
<line class="st0" x1="667.61" y1="283.02" x2="625.67" y2="315.25"/>
<line class="st0" x1="584.28" y1="262.53" x2="625.67" y2="315.25"/>
<line class="st0" x1="625.67" y1="273.85" x2="584.28" y2="299.61"/>
<line class="st0" x1="625.67" y1="315.25" x2="584.28" y2="299.61"/>
<line class="st0" x1="540.33" y1="246.89" x2="584.28" y2="299.61"/>
<line class="st0" x1="584.28" y1="262.53" x2="540.33" y2="278.44"/>
<line class="st0" x1="584.28" y1="299.61" x2="540.33" y2="278.44"/>
<line class="st0" x1="496.37" y1="227.88" x2="540.33" y2="278.44"/>
<line class="st0" x1="540.33" y1="246.89" x2="496.37" y2="254.71"/>
<line class="st0" x1="540.33" y1="278.44" x2="496.37" y2="254.71"/>
<line class="st0" x1="454.84" y1="204.42" x2="496.37" y2="254.71"/>
<line class="st0" x1="496.37" y1="227.88" x2="454.84" y2="224.64"/>
<line class="st0" x1="496.37" y1="254.71" x2="454.84" y2="224.64"/>
<line class="st0" x1="412.78" y1="176.1" x2="454.84" y2="224.64"/>
<line class="st0" x1="454.84" y1="204.42" x2="412.78" y2="186.08"/>
<line class="st0" x1="454.84" y1="224.64" x2="412.78" y2="186.08"/>
<line class="st0" x1="371.98" y1="141.18" x2="412.78" y2="186.08"/>
<line class="st0" x1="371.98" y1="141.18" x2="327.83" y2="200.1"/>
<line class="st0" x1="289.4" y1="236.78" x2="327.83" y2="176.64"/>
<line class="st0" x1="327.83" y1="200.1" x2="289.4" y2="205.9"/>
<line class="st0" x1="289.4" y1="236.78" x2="327.83" y2="200.1"/>
<line class="st0" x1="249.63" y1="235.02" x2="289.4" y2="236.78"/>
<line class="st0" x1="289.4" y1="205.9" x2="249.63" y2="264.91"/>
<line class="st0" x1="289.4" y1="236.78" x2="249.63" y2="264.91"/>
<line class="st0" x1="249.63" y1="235.02" x2="211.34" y2="285.4"/>
<line class="st0" x1="211.34" y1="263.07" x2="249.63" y2="264.91"/>
<line class="st0" x1="211.34" y1="285.4" x2="249.63" y2="264.91"/>
<line class="st0" x1="173.58" y1="287.47" x2="211.34" y2="285.4"/>
<line class="st0" x1="211.34" y1="263.07" x2="173.58" y2="301.36"/>
<line class="st0" x1="211.34" y1="285.4" x2="173.58" y2="301.36"/>
<line class="st0" x1="211.34" y1="285.4" x2="211.34" y2="315.25"/>
<line class="st0" x1="249.63" y1="264.91" x2="249.63" y2="315.25"/>
<line class="st0" x1="289.4" y1="236.78" x2="289.4" y2="315.25"/>
<line class="st0" x1="327.83" y1="200.1" x2="327.83" y2="315.25"/>
<line class="st0" x1="412.78" y1="186.08" x2="412.78" y2="315.25"/>
<line class="st0" x1="454.84" y1="224.64" x2="454.84" y2="315.25"/>
<line class="st0" x1="496.37" y1="254.71" x2="496.37" y2="315.25"/>
<line class="st0" x1="540.33" y1="278.44" x2="540.33" y2="315.25"/>
<line class="st0" x1="584.28" y1="299.61" x2="584.28" y2="315.25"/>
<line class="st0" x1="173.58" y1="328.46" x2="211.34" y2="328.46"/>
<line class="st0" x1="249.63" y1="328.46" x2="211.34" y2="328.46"/>
<line class="st0" x1="289.4" y1="328.46" x2="249.63" y2="328.46"/>
<line class="st0" x1="327.83" y1="328.46" x2="289.4" y2="328.46"/>
<line class="st0" x1="327.83" y1="328.46" x2="371.98" y2="328.46"/>
<line class="st0" x1="412.78" y1="328.46" x2="371.98" y2="328.46"/>
<line class="st0" x1="412.78" y1="328.46" x2="454.84" y2="328.46"/>
<line class="st0" x1="496.37" y1="328.46" x2="454.84" y2="328.46"/>
<line class="st0" x1="540.33" y1="328.46" x2="496.37" y2="328.46"/>
<line class="st0" x1="584.28" y1="328.46" x2="540.33" y2="328.46"/>
<line class="st0" x1="795.98" y1="328.46" x2="753.36" y2="328.46"/>
<line class="st0" x1="709.94" y1="328.46" x2="753.36" y2="328.46"/>
<line class="st0" x1="667.61" y1="328.46" x2="709.94" y2="328.46"/>
<line class="st0" x1="625.67" y1="328.46" x2="667.61" y2="328.46"/>
<line class="st0" x1="584.28" y1="328.46" x2="625.67" y2="328.46"/>
<line class="st1" x1="173.58" y1="315.25" x2="211.34" y2="315.25"/>
<line class="st1" x1="249.63" y1="315.25" x2="211.34" y2="315.25"/>
<line class="st1" x1="289.4" y1="315.25" x2="249.63" y2="315.25"/>
<line class="st1" x1="327.83" y1="315.25" x2="289.4" y2="315.25"/>
<line class="st1" x1="412.78" y1="315.25" x2="371.98" y2="315.25"/>
<line class="st1" x1="327.83" y1="315.25" x2="371.98" y2="315.25"/>
<line class="st1" x1="412.78" y1="315.25" x2="454.84" y2="315.25"/>
<line class="st1" x1="496.37" y1="315.25" x2="454.84" y2="315.25"/>
<line class="st1" x1="540.33" y1="315.25" x2="496.37" y2="315.25"/>
<line class="st1" x1="584.28" y1="315.25" x2="540.33" y2="315.25"/>
<line class="st1" x1="625.67" y1="315.25" x2="584.28" y2="315.25"/>
<line class="st1" x1="667.61" y1="315.25" x2="625.67" y2="315.25"/>
<line class="st1" x1="709.94" y1="315.25" x2="667.61" y2="315.25"/>
<line class="st1" x1="753.36" y1="315.25" x2="709.94" y2="315.25"/>
<line class="st1" x1="795.98" y1="315.25" x2="753.36" y2="315.25"/>
<circle class="st3" cx="127.47" cy="315.25" r="2.88"/>
<circle class="st3" cx="127.47" cy="328.46" r="2.88"/>
<circle class="st2" cx="371.98" cy="141.18" r="2.88"/>
<line class="st0" x1="1464.48" y1="315.25" x2="1418.37" y2="287.47"/>
<line class="st0" x1="1418.37" y1="301.36" x2="1418.37" y2="315.25"/>
<line class="st0" x1="1464.48" y1="315.25" x2="1464.48" y2="328.46"/>
<line class="st0" x1="1418.37" y1="315.25" x2="1418.37" y2="328.46"/>
<line class="st0" x1="1380.62" y1="315.25" x2="1380.62" y2="328.46"/>
<line class="st0" x1="1342.33" y1="315.25" x2="1342.33" y2="328.46"/>
<line class="st0" x1="1302.55" y1="315.25" x2="1302.55" y2="328.46"/>
<line class="st0" x1="1264.12" y1="315.25" x2="1264.12" y2="328.46"/>
<line class="st0" x1="1179.18" y1="315.25" x2="1179.18" y2="328.46"/>
<line class="st0" x1="1137.11" y1="315.25" x2="1137.11" y2="328.46"/>
<line class="st0" x1="1095.58" y1="315.25" x2="1095.58" y2="328.46"/>
<line class="st0" x1="1051.63" y1="315.25" x2="1051.63" y2="328.46"/>
<line class="st0" x1="1007.67" y1="315.25" x2="1007.67" y2="328.46"/>
<line class="st0" x1="966.28" y1="315.25" x2="966.28" y2="328.46"/>
<line class="st0" x1="924.35" y1="315.25" x2="924.35" y2="328.46"/>
<line class="st0" x1="882.01" y1="315.25" x2="882.01" y2="328.46"/>
<line class="st0" x1="838.6" y1="315.25" x2="838.6" y2="328.46"/>
<line class="st0" x1="1464.48" y1="328.46" x2="1418.37" y2="328.46"/>
<line class="st1" x1="1464.48" y1="315.25" x2="1418.37" y2="315.25"/>
<line class="st0" x1="1464.48" y1="315.25" x2="1418.37" y2="301.36"/>
<line class="st0" x1="1418.37" y1="287.47" x2="1418.37" y2="301.36"/>
<line class="st0" x1="1418.37" y1="287.47" x2="1380.62" y2="263.07"/>
<line class="st0" x1="1342.33" y1="235.02" x2="1380.62" y2="263.07"/>
<line class="st0" x1="1302.55" y1="205.9" x2="1342.33" y2="235.02"/>
<line class="st0" x1="1264.12" y1="176.64" x2="1302.55" y2="205.9"/>
<line class="st0" x1="1219.98" y1="141.18" x2="1264.12" y2="176.64"/>
<line class="st0" x1="1219.98" y1="141.18" x2="1179.18" y2="176.1"/>
<line class="st0" x1="1179.18" y1="176.1" x2="1137.11" y2="204.42"/>
<line class="st0" x1="1095.58" y1="227.88" x2="1137.11" y2="204.42"/>
<line class="st0" x1="1051.63" y1="246.89" x2="1095.58" y2="227.88"/>
<line class="st0" x1="1007.67" y1="262.53" x2="1051.63" y2="246.89"/>
<line class="st0" x1="966.28" y1="273.85" x2="1007.67" y2="262.53"/>
<line class="st0" x1="924.35" y1="283.02" x2="966.28" y2="273.85"/>
<line class="st0" x1="882.01" y1="289.76" x2="924.35" y2="283.02"/>
<line class="st0" x1="838.6" y1="293.81" x2="882.01" y2="289.76"/>
<line class="st0" x1="795.98" y1="294.89" x2="838.6" y2="293.81"/>
<line class="st0" x1="1380.62" y1="263.07" x2="1380.62" y2="285.4"/>
<line class="st0" x1="1342.33" y1="235.02" x2="1342.33" y2="264.91"/>
<line class="st0" x1="1302.55" y1="205.9" x2="1302.55" y2="236.78"/>
<line class="st0" x1="1264.12" y1="176.64" x2="1264.12" y2="200.1"/>
<line class="st0" x1="1179.18" y1="176.1" x2="1179.18" y2="186.08"/>
<line class="st0" x1="1137.11" y1="204.42" x2="1137.11" y2="224.64"/>
<line class="st0" x1="1095.58" y1="227.88" x2="1095.58" y2="254.71"/>
<line class="st0" x1="1051.63" y1="246.89" x2="1051.63" y2="278.44"/>
<line class="st0" x1="1007.67" y1="262.53" x2="1007.67" y2="299.61"/>
<line class="st0" x1="966.28" y1="273.85" x2="966.28" y2="315.25"/>
<line class="st0" x1="924.35" y1="283.02" x2="924.35" y2="315.25"/>
<line class="st0" x1="882.01" y1="289.76" x2="882.01" y2="315.25"/>
<line class="st0" x1="838.6" y1="293.81" x2="838.6" y2="315.25"/>
<line class="st0" x1="838.6" y1="315.25" x2="795.98" y2="294.89"/>
<line class="st0" x1="882.01" y1="289.76" x2="838.6" y2="315.25"/>
<line class="st0" x1="838.6" y1="293.81" x2="882.01" y2="315.25"/>
<line class="st0" x1="924.35" y1="283.02" x2="882.01" y2="315.25"/>
<line class="st0" x1="882.01" y1="289.76" x2="924.35" y2="315.25"/>
<line class="st0" x1="966.28" y1="273.85" x2="924.35" y2="315.25"/>
<line class="st0" x1="924.35" y1="283.02" x2="966.28" y2="315.25"/>
<line class="st0" x1="1007.67" y1="262.53" x2="966.28" y2="315.25"/>
<line class="st0" x1="966.28" y1="273.85" x2="1007.67" y2="299.61"/>
<line class="st0" x1="966.28" y1="315.25" x2="1007.67" y2="299.61"/>
<line class="st0" x1="1051.63" y1="246.89" x2="1007.67" y2="299.61"/>
<line class="st0" x1="1007.67" y1="262.53" x2="1051.63" y2="278.44"/>
<line class="st0" x1="1007.67" y1="299.61" x2="1051.63" y2="278.44"/>
<line class="st0" x1="1095.58" y1="227.88" x2="1051.63" y2="278.44"/>
<line class="st0" x1="1051.63" y1="246.89" x2="1095.58" y2="254.71"/>
<line class="st0" x1="1051.63" y1="278.44" x2="1095.58" y2="254.71"/>
<line class="st0" x1="1137.11" y1="204.42" x2="1095.58" y2="254.71"/>
<line class="st0" x1="1095.58" y1="227.88" x2="1137.11" y2="224.64"/>
<line class="st0" x1="1095.58" y1="254.71" x2="1137.11" y2="224.64"/>
<line class="st0" x1="1179.18" y1="176.1" x2="1137.11" y2="224.64"/>
<line class="st0" x1="1137.11" y1="204.42" x2="1179.18" y2="186.08"/>
<line class="st0" x1="1137.11" y1="224.64" x2="1179.18" y2="186.08"/>
<line class="st0" x1="1219.98" y1="141.18" x2="1179.18" y2="186.08"/>
<line class="st0" x1="1219.98" y1="141.18" x2="1264.12" y2="200.1"/>
<line class="st0" x1="1302.55" y1="236.78" x2="1264.12" y2="176.64"/>
<line class="st0" x1="1264.12" y1="200.1" x2="1302.55" y2="205.9"/>
<line class="st0" x1="1302.55" y1="236.78" x2="1264.12" y2="200.1"/>
<line class="st0" x1="1342.33" y1="235.02" x2="1302.55" y2="236.78"/>
<line class="st0" x1="1302.55" y1="205.9" x2="1342.33" y2="264.91"/>
<line class="st0" x1="1302.55" y1="236.78" x2="1342.33" y2="264.91"/>
<line class="st0" x1="1342.33" y1="235.02" x2="1380.62" y2="285.4"/>
<line class="st0" x1="1380.62" y1="263.07" x2="1342.33" y2="264.91"/>
<line class="st0" x1="1380.62" y1="285.4" x2="1342.33" y2="264.91"/>
<line class="st0" x1="1418.37" y1="287.47" x2="1380.62" y2="285.4"/>
<line class="st0" x1="1380.62" y1="263.07" x2="1418.37" y2="301.36"/>
<line class="st0" x1="1380.62" y1="285.4" x2="1418.37" y2="301.36"/>
<line class="st0" x1="1380.62" y1="285.4" x2="1380.62" y2="315.25"/>
<line class="st0" x1="1342.33" y1="264.91" x2="1342.33" y2="315.25"/>
<line class="st0" x1="1302.55" y1="236.78" x2="1302.55" y2="315.25"/>
<line class="st0" x1="1264.12" y1="200.1" x2="1264.12" y2="315.25"/>
<line class="st0" x1="1179.18" y1="186.08" x2="1179.18" y2="315.25"/>
<line class="st0" x1="1137.11" y1="224.64" x2="1137.11" y2="315.25"/>
<line class="st0" x1="1095.58" y1="254.71" x2="1095.58" y2="315.25"/>
<line class="st0" x1="1051.63" y1="278.44" x2="1051.63" y2="315.25"/>
<line class="st0" x1="1007.67" y1="299.61" x2="1007.67" y2="315.25"/>
<line class="st0" x1="1418.37" y1="328.46" x2="1380.62" y2="328.46"/>
<line class="st0" x1="1342.33" y1="328.46" x2="1380.62" y2="328.46"/>
<line class="st0" x1="1302.55" y1="328.46" x2="1342.33" y2="328.46"/>
<line class="st0" x1="1264.12" y1="328.46" x2="1302.55" y2="328.46"/>
<line class="st0" x1="1264.12" y1="328.46" x2="1219.98" y2="328.46"/>
<line class="st0" x1="1179.18" y1="328.46" x2="1219.98" y2="328.46"/>
<line class="st0" x1="1179.18" y1="328.46" x2="1137.11" y2="328.46"/>
<line class="st0" x1="1095.58" y1="328.46" x2="1137.11" y2="328.46"/>
<line class="st0" x1="1051.63" y1="328.46" x2="1095.58" y2="328.46"/>
<line class="st0" x1="1007.67" y1="328.46" x2="1051.63" y2="328.46"/>
<line class="st0" x1="795.98" y1="328.46" x2="838.6" y2="328.46"/>
<line class="st0" x1="882.01" y1="328.46" x2="838.6" y2="328.46"/>
<line class="st0" x1="924.35" y1="328.46" x2="882.01" y2="328.46"/>
<line class="st0" x1="966.28" y1="328.46" x2="924.35" y2="328.46"/>
<line class="st0" x1="1007.67" y1="328.46" x2="966.28" y2="328.46"/>
<line class="st1" x1="1418.37" y1="315.25" x2="1380.62" y2="315.25"/>
<line class="st1" x1="1342.33" y1="315.25" x2="1380.62" y2="315.25"/>
<line class="st1" x1="1302.55" y1="315.25" x2="1342.33" y2="315.25"/>
<line class="st1" x1="1264.12" y1="315.25" x2="1302.55" y2="315.25"/>
<line class="st1" x1="1179.18" y1="315.25" x2="1219.98" y2="315.25"/>
<line class="st1" x1="1264.12" y1="315.25" x2="1219.98" y2="315.25"/>
<line class="st1" x1="1179.18" y1="315.25" x2="1137.11" y2="315.25"/>
<line class="st1" x1="1095.58" y1="315.25" x2="1137.11" y2="315.25"/>
<line class="st1" x1="1051.63" y1="315.25" x2="1095.58" y2="315.25"/>
<line class="st1" x1="1007.67" y1="315.25" x2="1051.63" y2="315.25"/>
<line class="st1" x1="966.28" y1="315.25" x2="1007.67" y2="315.25"/>
<line class="st1" x1="924.35" y1="315.25" x2="966.28" y2="315.25"/>
<line class="st1" x1="882.01" y1="315.25" x2="924.35" y2="315.25"/>
<line class="st1" x1="838.6" y1="315.25" x2="882.01" y2="315.25"/>
<line class="st1" x1="795.98" y1="315.25" x2="838.6" y2="315.25"/>
<circle class="st3" cx="1464.48" cy="315.25" r="2.88"/>
<circle class="st3" cx="1464.48" cy="328.46" r="2.88"/>
<circle class="st2" cx="1219.98" cy="141.18" r="2.88"/>
<line class="st0" x1="371.98" y1="141.18" x2="371.98" y2="315.25"/>
<line class="st0" x1="371.98" y1="328.46" x2="371.98" y2="315.25"/>
<line class="st0" x1="1219.98" y1="141.18" x2="1219.98" y2="315.25"/>
<line class="st0" x1="1219.98" y1="328.46" x2="1219.98" y2="315.25"/>
</svg>
