<?xml version="1.0" encoding="utf-8"?>
<!-- Generator: Adobe Illustrator 25.1.0, SVG Export Plug-In . SVG Version: 6.00 Build 0)  -->
<svg version="1.1" id="Ebene_2_1_" xmlns="http://www.w3.org/2000/svg" xmlns:xlink="http://www.w3.org/1999/xlink" x="0px" y="0px"
	 viewBox="0 0 1589.8 768" style="enable-background:new 0 0 1589.8 768;" xml:space="preserve">
<style type="text/css">
	.st0{opacity:0.5;fill:none;stroke:#E5007E;stroke-miterlimit:10;}
	.st1{opacity:0.5;fill:#00FF00;}
	.st2{opacity:0.5;fill:#E5007E;}
	.st3{fill:none;stroke:#00FF00;stroke-miterlimit:10;}
</style>
<line class="st0" x1="211.3" y1="263.1" x2="211.3" y2="285.4"/>
<line class="st0" x1="289.4" y1="205.9" x2="289.4" y2="236.8"/>
<line class="st0" x1="454.8" y1="204.4" x2="454.8" y2="224.6"/>
<line class="st0" x1="540.3" y1="246.9" x2="540.3" y2="278.4"/>
<line class="st0" x1="625.7" y1="273.9" x2="625.7" y2="315.2"/>
<line class="st0" x1="709.9" y1="289.8" x2="709.9" y2="315.2"/>
<line class="st0" x1="796" y1="294.9" x2="796" y2="315.2"/>
<line class="st0" x1="211.3" y1="285.4" x2="211.3" y2="315.2"/>
<line class="st0" x1="289.4" y1="236.8" x2="289.4" y2="315.2"/>
<line class="st0" x1="454.8" y1="224.6" x2="454.8" y2="315.2"/>
<line class="st0" x1="540.3" y1="278.4" x2="540.3" y2="315.2"/>
<circle class="st1" cx="127.5" cy="315.2" r="2.9"/>
<circle class="st2" cx="372" cy="141.2" r="2.9"/>
<circle class="st2" cx="372" cy="157.4" r="2.9"/>
<line class="st0" x1="372" y1="141.2" x2="372" y2="157.4"/>
<line class="st0" x1="372" y1="157.4" x2="372" y2="315.2"/>
<line class="st0" x1="127.5" y1="315.2" x2="211.3" y2="263.1"/>
<line class="st0" x1="127.5" y1="315.2" x2="211.3" y2="285.4"/>
<line class="st0" x1="211.3" y1="263.1" x2="289.4" y2="205.9"/>
<line class="st0" x1="211.3" y1="285.4" x2="289.4" y2="236.8"/>
<line class="st0" x1="289.4" y1="205.9" x2="372" y2="141.2"/>
<line class="st0" x1="289.4" y1="236.8" x2="372" y2="157.4"/>
<line class="st0" x1="372" y1="141.2" x2="454.8" y2="204.4"/>
<line class="st0" x1="372" y1="157.4" x2="454.8" y2="224.6"/>
<line class="st0" x1="454.8" y1="204.4" x2="540.3" y2="246.9"/>
<line class="st0" x1="454.8" y1="224.6" x2="540.3" y2="278.4"/>
<line class="st0" x1="540.3" y1="246.9" x2="625.7" y2="273.9"/>
<line class="st0" x1="540.3" y1="278.4" x2="625.7" y2="315.2"/>
<line class="st0" x1="625.7" y1="273.9" x2="709.9" y2="289.8"/>
<line class="st0" x1="709.9" y1="289.8" x2="796" y2="294.9"/>
<line class="st0" x1="211.3" y1="263.1" x2="289.4" y2="236.8"/>
<line class="st0" x1="289.4" y1="205.9" x2="211.3" y2="285.4"/>
<line class="st0" x1="372" y1="141.2" x2="289.4" y2="236.8"/>
<line class="st0" x1="289.4" y1="205.9" x2="372" y2="157.4"/>
<line class="st0" x1="372" y1="141.2" x2="454.8" y2="224.6"/>
<line class="st0" x1="372" y1="157.4" x2="454.8" y2="204.4"/>
<line class="st0" x1="454.8" y1="204.4" x2="540.3" y2="278.4"/>
<line class="st0" x1="454.8" y1="224.6" x2="540.3" y2="246.9"/>
<line class="st0" x1="540.3" y1="246.9" x2="625.7" y2="315.2"/>
<line class="st0" x1="625.7" y1="273.9" x2="540.3" y2="278.4"/>
<line class="st0" x1="625.7" y1="315.2" x2="709.9" y2="289.8"/>
<line class="st0" x1="625.7" y1="273.9" x2="709.9" y2="315.2"/>
<line class="st0" x1="709.9" y1="315.2" x2="796" y2="294.9"/>
<line class="st0" x1="709.9" y1="289.8" x2="796" y2="315.2"/>
<line class="st3" x1="127.5" y1="315.2" x2="211.3" y2="315.2"/>
<line class="st3" x1="211.3" y1="315.2" x2="289.4" y2="315.2"/>
<line class="st3" x1="289.4" y1="315.2" x2="372" y2="315.2"/>
<line class="st3" x1="454.8" y1="315.2" x2="372" y2="315.2"/>
<line class="st3" x1="540.3" y1="315.2" x2="454.8" y2="315.2"/>
<line class="st3" x1="625.7" y1="315.2" x2="540.3" y2="315.2"/>
<line class="st3" x1="709.9" y1="315.2" x2="625.7" y2="315.2"/>
<line class="st3" x1="796" y1="315.2" x2="709.9" y2="315.2"/>
</svg>
