<?xml version="1.0" encoding="utf-8"?>
<!-- Generator: Adobe Illustrator 25.1.0, SVG Export Plug-In . SVG Version: 6.00 Build 0)  -->
<svg version="1.1" id="Ebene_2_1_" xmlns="http://www.w3.org/2000/svg" xmlns:xlink="http://www.w3.org/1999/xlink" x="0px" y="0px"
	 viewBox="0 0 1589.8 768" style="enable-background:new 0 0 1589.8 768;" xml:space="preserve">
<style type="text/css">
	.st0{fill:none;stroke:#E5007E;stroke-miterlimit:10;}
	.st1{fill:none;stroke:#00FF00;stroke-miterlimit:10;}
	.st3{fill:#00FF00;}
	.st2{fill:#E5007E;}
</style>
<line class="st0" x1="127.5" y1="315.2" x2="173.6" y2="287.5"/>
<line class="st0" x1="173.6" y1="301.4" x2="173.6" y2="315.2"/>
<line class="st0" x1="173.6" y1="315.2" x2="173.6" y2="328.5"/>
<line class="st0" x1="211.3" y1="315.2" x2="211.3" y2="328.5"/>
<line class="st0" x1="249.6" y1="315.2" x2="249.6" y2="328.5"/>
<line class="st0" x1="289.4" y1="315.2" x2="289.4" y2="328.5"/>
<line class="st0" x1="327.8" y1="315.2" x2="327.8" y2="328.5"/>
<line class="st0" x1="412.8" y1="315.2" x2="412.8" y2="328.5"/>
<line class="st0" x1="454.8" y1="315.2" x2="454.8" y2="328.5"/>
<line class="st0" x1="496.4" y1="315.2" x2="496.4" y2="328.5"/>
<line class="st0" x1="540.3" y1="315.2" x2="540.3" y2="328.5"/>
<line class="st0" x1="584.3" y1="315.2" x2="584.3" y2="328.5"/>
<line class="st0" x1="625.7" y1="315.2" x2="625.7" y2="328.5"/>
<line class="st0" x1="667.6" y1="315.2" x2="667.6" y2="328.5"/>
<line class="st0" x1="709.9" y1="315.2" x2="709.9" y2="328.5"/>
<line class="st0" x1="753.4" y1="315.2" x2="753.4" y2="328.5"/>
<line class="st0" x1="796" y1="315.2" x2="796" y2="328.5"/>
<line class="st0" x1="127.5" y1="315.2" x2="173.6" y2="328.5"/>
<line class="st1" x1="127.5" y1="315.2" x2="173.6" y2="315.2"/>
<line class="st0" x1="127.5" y1="315.2" x2="173.6" y2="301.4"/>
<line class="st0" x1="173.6" y1="287.5" x2="173.6" y2="301.4"/>
<line class="st0" x1="173.6" y1="287.5" x2="211.3" y2="263.1"/>
<line class="st0" x1="249.6" y1="235" x2="211.3" y2="263.1"/>
<line class="st0" x1="289.4" y1="205.9" x2="249.6" y2="235"/>
<line class="st0" x1="327.8" y1="176.6" x2="289.4" y2="205.9"/>
<line class="st0" x1="372" y1="141.2" x2="327.8" y2="176.6"/>
<line class="st0" x1="372" y1="141.2" x2="412.8" y2="176.1"/>
<line class="st0" x1="412.8" y1="176.1" x2="454.8" y2="204.4"/>
<line class="st0" x1="496.4" y1="227.9" x2="454.8" y2="204.4"/>
<line class="st0" x1="540.3" y1="246.9" x2="496.4" y2="227.9"/>
<line class="st0" x1="584.3" y1="262.5" x2="540.3" y2="246.9"/>
<line class="st0" x1="625.7" y1="273.9" x2="584.3" y2="262.5"/>
<line class="st0" x1="667.6" y1="283" x2="625.7" y2="273.9"/>
<line class="st0" x1="709.9" y1="289.8" x2="667.6" y2="283"/>
<line class="st0" x1="753.4" y1="293.8" x2="709.9" y2="289.8"/>
<line class="st0" x1="796" y1="294.9" x2="753.4" y2="293.8"/>
<line class="st0" x1="211.3" y1="263.1" x2="211.3" y2="285.4"/>
<line class="st0" x1="249.6" y1="235" x2="249.6" y2="264.9"/>
<line class="st0" x1="289.4" y1="205.9" x2="289.4" y2="236.8"/>
<line class="st0" x1="327.8" y1="176.6" x2="327.8" y2="200.1"/>
<line class="st0" x1="412.8" y1="176.1" x2="412.8" y2="186.1"/>
<line class="st0" x1="454.8" y1="204.4" x2="454.8" y2="224.6"/>
<line class="st0" x1="496.4" y1="227.9" x2="496.4" y2="254.7"/>
<line class="st0" x1="540.3" y1="246.9" x2="540.3" y2="278.4"/>
<line class="st0" x1="584.3" y1="262.5" x2="584.3" y2="299.6"/>
<line class="st0" x1="625.7" y1="273.9" x2="625.7" y2="315.2"/>
<line class="st0" x1="667.6" y1="283" x2="667.6" y2="315.2"/>
<line class="st0" x1="709.9" y1="289.8" x2="709.9" y2="315.2"/>
<line class="st0" x1="753.4" y1="293.8" x2="753.4" y2="315.2"/>
<line class="st0" x1="796" y1="294.9" x2="796" y2="315.2"/>
<line class="st0" x1="753.4" y1="315.2" x2="796" y2="294.9"/>
<line class="st0" x1="709.9" y1="289.8" x2="753.4" y2="315.2"/>
<line class="st0" x1="753.4" y1="293.8" x2="709.9" y2="315.2"/>
<line class="st0" x1="667.6" y1="283" x2="709.9" y2="315.2"/>
<line class="st0" x1="709.9" y1="289.8" x2="667.6" y2="315.2"/>
<line class="st0" x1="625.7" y1="273.9" x2="667.6" y2="315.2"/>
<line class="st0" x1="667.6" y1="283" x2="625.7" y2="315.2"/>
<line class="st0" x1="584.3" y1="262.5" x2="625.7" y2="315.2"/>
<line class="st0" x1="625.7" y1="273.9" x2="584.3" y2="299.6"/>
<line class="st0" x1="625.7" y1="315.2" x2="584.3" y2="299.6"/>
<line class="st0" x1="540.3" y1="246.9" x2="584.3" y2="299.6"/>
<line class="st0" x1="584.3" y1="262.5" x2="540.3" y2="278.4"/>
<line class="st0" x1="584.3" y1="299.6" x2="540.3" y2="278.4"/>
<line class="st0" x1="496.4" y1="227.9" x2="540.3" y2="278.4"/>
<line class="st0" x1="540.3" y1="246.9" x2="496.4" y2="254.7"/>
<line class="st0" x1="540.3" y1="278.4" x2="496.4" y2="254.7"/>
<line class="st0" x1="454.8" y1="204.4" x2="496.4" y2="254.7"/>
<line class="st0" x1="496.4" y1="227.9" x2="454.8" y2="224.6"/>
<line class="st0" x1="496.4" y1="254.7" x2="454.8" y2="224.6"/>
<line class="st0" x1="412.8" y1="176.1" x2="454.8" y2="224.6"/>
<line class="st0" x1="454.8" y1="204.4" x2="412.8" y2="186.1"/>
<line class="st0" x1="454.8" y1="224.6" x2="412.8" y2="186.1"/>
<line class="st0" x1="372" y1="141.2" x2="412.8" y2="186.1"/>
<line class="st0" x1="372" y1="141.2" x2="327.8" y2="200.1"/>
<line class="st0" x1="289.4" y1="236.8" x2="327.8" y2="176.6"/>
<line class="st0" x1="327.8" y1="200.1" x2="289.4" y2="205.9"/>
<line class="st0" x1="289.4" y1="236.8" x2="327.8" y2="200.1"/>
<line class="st0" x1="249.6" y1="235" x2="289.4" y2="236.8"/>
<line class="st0" x1="289.4" y1="205.9" x2="249.6" y2="264.9"/>
<line class="st0" x1="289.4" y1="236.8" x2="249.6" y2="264.9"/>
<line class="st0" x1="249.6" y1="235" x2="211.3" y2="285.4"/>
<line class="st0" x1="211.3" y1="263.1" x2="249.6" y2="264.9"/>
<line class="st0" x1="211.3" y1="285.4" x2="249.6" y2="264.9"/>
<line class="st0" x1="173.6" y1="287.5" x2="211.3" y2="285.4"/>
<line class="st0" x1="211.3" y1="263.1" x2="173.6" y2="301.4"/>
<line class="st0" x1="211.3" y1="285.4" x2="173.6" y2="301.4"/>
<line class="st0" x1="211.3" y1="285.4" x2="211.3" y2="315.2"/>
<line class="st0" x1="249.6" y1="264.9" x2="249.6" y2="315.2"/>
<line class="st0" x1="289.4" y1="236.8" x2="289.4" y2="315.2"/>
<line class="st0" x1="327.8" y1="200.1" x2="327.8" y2="315.2"/>
<line class="st0" x1="412.8" y1="186.1" x2="412.8" y2="315.2"/>
<line class="st0" x1="454.8" y1="224.6" x2="454.8" y2="315.2"/>
<line class="st0" x1="496.4" y1="254.7" x2="496.4" y2="315.2"/>
<line class="st0" x1="540.3" y1="278.4" x2="540.3" y2="315.2"/>
<line class="st0" x1="584.3" y1="299.6" x2="584.3" y2="315.2"/>
<line class="st0" x1="173.6" y1="328.5" x2="211.3" y2="328.5"/>
<line class="st0" x1="249.6" y1="328.5" x2="211.3" y2="328.5"/>
<line class="st0" x1="289.4" y1="328.5" x2="249.6" y2="328.5"/>
<line class="st0" x1="327.8" y1="328.5" x2="289.4" y2="328.5"/>
<line class="st0" x1="327.8" y1="328.5" x2="372" y2="328.5"/>
<line class="st0" x1="412.8" y1="328.5" x2="372" y2="328.5"/>
<line class="st0" x1="412.8" y1="328.5" x2="454.8" y2="328.5"/>
<line class="st0" x1="496.4" y1="328.5" x2="454.8" y2="328.5"/>
<line class="st0" x1="540.3" y1="328.5" x2="496.4" y2="328.5"/>
<line class="st0" x1="584.3" y1="328.5" x2="540.3" y2="328.5"/>
<line class="st0" x1="796" y1="328.5" x2="753.4" y2="328.5"/>
<line class="st0" x1="709.9" y1="328.5" x2="753.4" y2="328.5"/>
<line class="st0" x1="667.6" y1="328.5" x2="709.9" y2="328.5"/>
<line class="st0" x1="625.7" y1="328.5" x2="667.6" y2="328.5"/>
<line class="st0" x1="584.3" y1="328.5" x2="625.7" y2="328.5"/>
<line class="st1" x1="173.6" y1="315.2" x2="211.3" y2="315.2"/>
<line class="st1" x1="249.6" y1="315.2" x2="211.3" y2="315.2"/>
<line class="st1" x1="289.4" y1="315.2" x2="249.6" y2="315.2"/>
<line class="st1" x1="327.8" y1="315.2" x2="289.4" y2="315.2"/>
<line class="st1" x1="412.8" y1="315.2" x2="372" y2="315.2"/>
<line class="st1" x1="327.8" y1="315.2" x2="372" y2="315.2"/>
<line class="st1" x1="412.8" y1="315.2" x2="454.8" y2="315.2"/>
<line class="st1" x1="496.4" y1="315.2" x2="454.8" y2="315.2"/>
<line class="st1" x1="540.3" y1="315.2" x2="496.4" y2="315.2"/>
<line class="st1" x1="584.3" y1="315.2" x2="540.3" y2="315.2"/>
<line class="st1" x1="625.7" y1="315.2" x2="584.3" y2="315.2"/>
<line class="st1" x1="667.6" y1="315.2" x2="625.7" y2="315.2"/>
<line class="st1" x1="709.9" y1="315.2" x2="667.6" y2="315.2"/>
<line class="st1" x1="753.4" y1="315.2" x2="709.9" y2="315.2"/>
<line class="st1" x1="796" y1="315.2" x2="753.4" y2="315.2"/>
<circle class="st3" cx="127.5" cy="315.2" r="2.9"/>
<circle class="st2" cx="372" cy="141.2" r="2.9"/>
<line class="st0" x1="1464.5" y1="315.2" x2="1418.4" y2="287.5"/>
<line class="st0" x1="1418.4" y1="301.4" x2="1418.4" y2="315.2"/>
<line class="st0" x1="1418.4" y1="315.2" x2="1418.4" y2="328.5"/>
<line class="st0" x1="1380.6" y1="315.2" x2="1380.6" y2="328.5"/>
<line class="st0" x1="1342.3" y1="315.2" x2="1342.3" y2="328.5"/>
<line class="st0" x1="1302.6" y1="315.2" x2="1302.6" y2="328.5"/>
<line class="st0" x1="1264.1" y1="315.2" x2="1264.1" y2="328.5"/>
<line class="st0" x1="1179.2" y1="315.2" x2="1179.2" y2="328.5"/>
<line class="st0" x1="1137.1" y1="315.2" x2="1137.1" y2="328.5"/>
<line class="st0" x1="1095.6" y1="315.2" x2="1095.6" y2="328.5"/>
<line class="st0" x1="1051.6" y1="315.2" x2="1051.6" y2="328.5"/>
<line class="st0" x1="1007.7" y1="315.2" x2="1007.7" y2="328.5"/>
<line class="st0" x1="966.3" y1="315.2" x2="966.3" y2="328.5"/>
<line class="st0" x1="924.3" y1="315.2" x2="924.3" y2="328.5"/>
<line class="st0" x1="882" y1="315.2" x2="882" y2="328.5"/>
<line class="st0" x1="838.6" y1="315.2" x2="838.6" y2="328.5"/>
<line class="st0" x1="1464.5" y1="315.2" x2="1418.4" y2="328.5"/>
<line class="st1" x1="1464.5" y1="315.2" x2="1418.4" y2="315.2"/>
<line class="st0" x1="1464.5" y1="315.2" x2="1418.4" y2="301.4"/>
<line class="st0" x1="1418.4" y1="287.5" x2="1418.4" y2="301.4"/>
<line class="st0" x1="1418.4" y1="287.5" x2="1380.6" y2="263.1"/>
<line class="st0" x1="1342.3" y1="235" x2="1380.6" y2="263.1"/>
<line class="st0" x1="1302.6" y1="205.9" x2="1342.3" y2="235"/>
<line class="st0" x1="1264.1" y1="176.6" x2="1302.6" y2="205.9"/>
<line class="st0" x1="1220" y1="141.2" x2="1264.1" y2="176.6"/>
<line class="st0" x1="1220" y1="141.2" x2="1179.2" y2="176.1"/>
<line class="st0" x1="1179.2" y1="176.1" x2="1137.1" y2="204.4"/>
<line class="st0" x1="1095.6" y1="227.9" x2="1137.1" y2="204.4"/>
<line class="st0" x1="1051.6" y1="246.9" x2="1095.6" y2="227.9"/>
<line class="st0" x1="1007.7" y1="262.5" x2="1051.6" y2="246.9"/>
<line class="st0" x1="966.3" y1="273.9" x2="1007.7" y2="262.5"/>
<line class="st0" x1="924.3" y1="283" x2="966.3" y2="273.9"/>
<line class="st0" x1="882" y1="289.8" x2="924.3" y2="283"/>
<line class="st0" x1="838.6" y1="293.8" x2="882" y2="289.8"/>
<line class="st0" x1="796" y1="294.9" x2="838.6" y2="293.8"/>
<line class="st0" x1="1380.6" y1="263.1" x2="1380.6" y2="285.4"/>
<line class="st0" x1="1342.3" y1="235" x2="1342.3" y2="264.9"/>
<line class="st0" x1="1302.6" y1="205.9" x2="1302.6" y2="236.8"/>
<line class="st0" x1="1264.1" y1="176.6" x2="1264.1" y2="200.1"/>
<line class="st0" x1="1179.2" y1="176.1" x2="1179.2" y2="186.1"/>
<line class="st0" x1="1137.1" y1="204.4" x2="1137.1" y2="224.6"/>
<line class="st0" x1="1095.6" y1="227.9" x2="1095.6" y2="254.7"/>
<line class="st0" x1="1051.6" y1="246.9" x2="1051.6" y2="278.4"/>
<line class="st0" x1="1007.7" y1="262.5" x2="1007.7" y2="299.6"/>
<line class="st0" x1="966.3" y1="273.9" x2="966.3" y2="315.2"/>
<line class="st0" x1="924.3" y1="283" x2="924.3" y2="315.2"/>
<line class="st0" x1="882" y1="289.8" x2="882" y2="315.2"/>
<line class="st0" x1="838.6" y1="293.8" x2="838.6" y2="315.2"/>
<line class="st0" x1="838.6" y1="315.2" x2="796" y2="294.9"/>
<line class="st0" x1="882" y1="289.8" x2="838.6" y2="315.2"/>
<line class="st0" x1="838.6" y1="293.8" x2="882" y2="315.2"/>
<line class="st0" x1="924.3" y1="283" x2="882" y2="315.2"/>
<line class="st0" x1="882" y1="289.8" x2="924.3" y2="315.2"/>
<line class="st0" x1="966.3" y1="273.9" x2="924.3" y2="315.2"/>
<line class="st0" x1="924.3" y1="283" x2="966.3" y2="315.2"/>
<line class="st0" x1="1007.7" y1="262.5" x2="966.3" y2="315.2"/>
<line class="st0" x1="966.3" y1="273.9" x2="1007.7" y2="299.6"/>
<line class="st0" x1="966.3" y1="315.2" x2="1007.7" y2="299.6"/>
<line class="st0" x1="1051.6" y1="246.9" x2="1007.7" y2="299.6"/>
<line class="st0" x1="1007.7" y1="262.5" x2="1051.6" y2="278.4"/>
<line class="st0" x1="1007.7" y1="299.6" x2="1051.6" y2="278.4"/>
<line class="st0" x1="1095.6" y1="227.9" x2="1051.6" y2="278.4"/>
<line class="st0" x1="1051.6" y1="246.9" x2="1095.6" y2="254.7"/>
<line class="st0" x1="1051.6" y1="278.4" x2="1095.6" y2="254.7"/>
<line class="st0" x1="1137.1" y1="204.4" x2="1095.6" y2="254.7"/>
<line class="st0" x1="1095.6" y1="227.9" x2="1137.1" y2="224.6"/>
<line class="st0" x1="1095.6" y1="254.7" x2="1137.1" y2="224.6"/>
<line class="st0" x1="1179.2" y1="176.1" x2="1137.1" y2="224.6"/>
<line class="st0" x1="1137.1" y1="204.4" x2="1179.2" y2="186.1"/>
<line class="st0" x1="1137.1" y1="224.6" x2="1179.2" y2="186.1"/>
<line class="st0" x1="1220" y1="141.2" x2="1179.2" y2="186.1"/>
<line class="st0" x1="1220" y1="141.2" x2="1264.1" y2="200.1"/>
<line class="st0" x1="1302.6" y1="236.8" x2="1264.1" y2="176.6"/>
<line class="st0" x1="1264.1" y1="200.1" x2="1302.6" y2="205.9"/>
<line class="st0" x1="1302.6" y1="236.8" x2="1264.1" y2="200.1"/>
<line class="st0" x1="1342.3" y1="235" x2="1302.6" y2="236.8"/>
<line class="st0" x1="1302.6" y1="205.9" x2="1342.3" y2="264.9"/>
<line class="st0" x1="1302.6" y1="236.8" x2="1342.3" y2="264.9"/>
<line class="st0" x1="1342.3" y1="235" x2="1380.6" y2="285.4"/>
<line class="st0" x1="1380.6" y1="263.1" x2="1342.3" y2="264.9"/>
<line class="st0" x1="1380.6" y1="285.4" x2="1342.3" y2="264.9"/>
<line class="st0" x1="1418.4" y1="287.5" x2="1380.6" y2="285.4"/>
<line class="st0" x1="1380.6" y1="263.1" x2="1418.4" y2="301.4"/>
<line class="st0" x1="1380.6" y1="285.4" x2="1418.4" y2="301.4"/>
<line class="st0" x1="1380.6" y1="285.4" x2="1380.6" y2="315.2"/>
<line class="st0" x1="1342.3" y1="264.9" x2="1342.3" y2="315.2"/>
<line class="st0" x1="1302.6" y1="236.8" x2="1302.6" y2="315.2"/>
<line class="st0" x1="1264.1" y1="200.1" x2="1264.1" y2="315.2"/>
<line class="st0" x1="1179.2" y1="186.1" x2="1179.2" y2="315.2"/>
<line class="st0" x1="1137.1" y1="224.6" x2="1137.1" y2="315.2"/>
<line class="st0" x1="1095.6" y1="254.7" x2="1095.6" y2="315.2"/>
<line class="st0" x1="1051.6" y1="278.4" x2="1051.6" y2="315.2"/>
<line class="st0" x1="1007.7" y1="299.6" x2="1007.7" y2="315.2"/>
<line class="st0" x1="1418.4" y1="328.5" x2="1380.6" y2="328.5"/>
<line class="st0" x1="1342.3" y1="328.5" x2="1380.6" y2="328.5"/>
<line class="st0" x1="1302.6" y1="328.5" x2="1342.3" y2="328.5"/>
<line class="st0" x1="1264.1" y1="328.5" x2="1302.6" y2="328.5"/>
<line class="st0" x1="1264.1" y1="328.5" x2="1220" y2="328.5"/>
<line class="st0" x1="1179.2" y1="328.5" x2="1220" y2="328.5"/>
<line class="st0" x1="1179.2" y1="328.5" x2="1137.1" y2="328.5"/>
<line class="st0" x1="1095.6" y1="328.5" x2="1137.1" y2="328.5"/>
<line class="st0" x1="1051.6" y1="328.5" x2="1095.6" y2="328.5"/>
<line class="st0" x1="1007.7" y1="328.5" x2="1051.6" y2="328.5"/>
<line class="st0" x1="796" y1="328.5" x2="838.6" y2="328.5"/>
<line class="st0" x1="882" y1="328.5" x2="838.6" y2="328.5"/>
<line class="st0" x1="924.3" y1="328.5" x2="882" y2="328.5"/>
<line class="st0" x1="966.3" y1="328.5" x2="924.3" y2="328.5"/>
<line class="st0" x1="1007.7" y1="328.5" x2="966.3" y2="328.5"/>
<line class="st1" x1="1418.4" y1="315.2" x2="1380.6" y2="315.2"/>
<line class="st1" x1="1342.3" y1="315.2" x2="1380.6" y2="315.2"/>
<line class="st1" x1="1302.6" y1="315.2" x2="1342.3" y2="315.2"/>
<line class="st1" x1="1264.1" y1="315.2" x2="1302.6" y2="315.2"/>
<line class="st1" x1="1179.2" y1="315.2" x2="1220" y2="315.2"/>
<line class="st1" x1="1264.1" y1="315.2" x2="1220" y2="315.2"/>
<line class="st1" x1="1179.2" y1="315.2" x2="1137.1" y2="315.2"/>
<line class="st1" x1="1095.6" y1="315.2" x2="1137.1" y2="315.2"/>
<line class="st1" x1="1051.6" y1="315.2" x2="1095.6" y2="315.2"/>
<line class="st1" x1="1007.7" y1="315.2" x2="1051.6" y2="315.2"/>
<line class="st1" x1="966.3" y1="315.2" x2="1007.7" y2="315.2"/>
<line class="st1" x1="924.3" y1="315.2" x2="966.3" y2="315.2"/>
<line class="st1" x1="882" y1="315.2" x2="924.3" y2="315.2"/>
<line class="st1" x1="838.6" y1="315.2" x2="882" y2="315.2"/>
<line class="st1" x1="796" y1="315.2" x2="838.6" y2="315.2"/>
<circle class="st3" cx="1464.5" cy="315.2" r="2.9"/>
<circle class="st2" cx="1220" cy="141.2" r="2.9"/>
<line class="st0" x1="372" y1="141.2" x2="372" y2="315.2"/>
<line class="st0" x1="372" y1="328.5" x2="372" y2="315.2"/>
<line class="st0" x1="1220" y1="141.2" x2="1220" y2="315.2"/>
<line class="st0" x1="1220" y1="328.5" x2="1220" y2="315.2"/>
</svg>
