<?xml version="1.0" encoding="utf-8"?>
<!-- Generator: Adobe Illustrator 25.1.0, SVG Export Plug-In . SVG Version: 6.00 Build 0)  -->
<svg version="1.1" id="crescent_arch" xmlns="http://www.w3.org/2000/svg" xmlns:xlink="http://www.w3.org/1999/xlink" x="0px"
	 y="0px" viewBox="0 0 1099.92 383.78" style="enable-background:new 0 0 1099.92 383.78;" xml:space="preserve">
<style type="text/css">
	.st0{fill:none;stroke:#E5007E;stroke-miterlimit:10;}
	.st1{fill:none;stroke:#00FF00;stroke-miterlimit:10;}
	.st2{fill:#E5007E;}
	.st3{fill:#00FF00;}
</style>
<line class="st0" x1="69.77" y1="299.51" x2="112.34" y2="252.99"/>
<line class="st0" x1="112.34" y1="252.99" x2="112.34" y2="206.07"/>
<line class="st0" x1="112.34" y1="206.07" x2="112.34" y2="192.86"/>
<line class="st0" x1="153.6" y1="206.07" x2="153.6" y2="192.86"/>
<line class="st0" x1="239.56" y1="206.07" x2="239.56" y2="192.86"/>
<line class="st0" x1="112.34" y1="252.99" x2="153.6" y2="212.68"/>
<line class="st0" x1="153.6" y1="206.07" x2="153.6" y2="212.68"/>
<line class="st0" x1="153.6" y1="212.68" x2="195.74" y2="171.15"/>
<line class="st0" x1="153.6" y1="212.68" x2="196.01" y2="200.46"/>
<line class="st0" x1="153.6" y1="206.07" x2="239.56" y2="206.07"/>
<line class="st0" x1="153.6" y1="212.68" x2="153.6" y2="229.53"/>
<line class="st0" x1="153.6" y1="229.53" x2="196.01" y2="200.46"/>
<line class="st0" x1="196.01" y1="200.46" x2="239.56" y2="172.27"/>
<line class="st1" x1="153.6" y1="192.86" x2="239.56" y2="192.86"/>
<line class="st0" x1="195.74" y1="171.15" x2="196.01" y2="200.46"/>
<line class="st1" x1="112.34" y1="192.86" x2="153.6" y2="192.86"/>
<line class="st0" x1="112.34" y1="206.07" x2="153.6" y2="206.07"/>
<line class="st1" x1="112.34" y1="192.86" x2="69.77" y2="192.86"/>
<line class="st0" x1="112.34" y1="206.07" x2="69.77" y2="206.07"/>
<line class="st0" x1="195.74" y1="171.15" x2="239.56" y2="138.38"/>
<line class="st0" x1="239.56" y1="138.38" x2="280.68" y2="109.71"/>
<line class="st0" x1="280.68" y1="109.71" x2="324.82" y2="83.55"/>
<line class="st0" x1="239.56" y1="138.38" x2="239.56" y2="172.27"/>
<line class="st0" x1="324.82" y1="83.55" x2="365.8" y2="63.06"/>
<line class="st0" x1="280.68" y1="109.71" x2="280.68" y2="149.89"/>
<line class="st0" x1="365.8" y1="63.06" x2="409.31" y2="43.28"/>
<line class="st0" x1="324.82" y1="83.55" x2="324.82" y2="127.51"/>
<line class="st0" x1="409.31" y1="43.28" x2="451.2" y2="29.98"/>
<line class="st0" x1="365.8" y1="63.06" x2="365.8" y2="111.24"/>
<line class="st0" x1="451.2" y1="29.98" x2="493" y2="23.5"/>
<line class="st0" x1="409.31" y1="43.28" x2="409.31" y2="96.68"/>
<line class="st0" x1="493" y1="23.5" x2="535.06" y2="19.82"/>
<line class="st0" x1="451.2" y1="29.98" x2="451.2" y2="86.79"/>
<line class="st0" x1="493" y1="23.5" x2="493" y2="80.5"/>
<line class="st0" x1="535.06" y1="19.82" x2="535.06" y2="77.8"/>
<line class="st0" x1="239.56" y1="172.27" x2="280.68" y2="149.89"/>
<line class="st0" x1="324.82" y1="127.51" x2="365.8" y2="111.24"/>
<line class="st0" x1="280.68" y1="149.89" x2="324.82" y2="127.51"/>
<line class="st0" x1="365.8" y1="111.24" x2="409.31" y2="96.68"/>
<line class="st0" x1="409.31" y1="43.28" x2="451.2" y2="86.79"/>
<line class="st0" x1="409.31" y1="96.68" x2="451.2" y2="86.79"/>
<line class="st0" x1="451.2" y1="29.98" x2="493" y2="80.5"/>
<line class="st0" x1="451.2" y1="86.79" x2="493" y2="80.5"/>
<line class="st0" x1="493" y1="23.5" x2="535.06" y2="77.8"/>
<line class="st0" x1="493" y1="80.5" x2="535.06" y2="77.8"/>
<line class="st0" x1="324.82" y1="83.55" x2="365.8" y2="111.24"/>
<line class="st0" x1="280.68" y1="109.71" x2="324.82" y2="127.51"/>
<line class="st0" x1="239.56" y1="138.38" x2="280.68" y2="149.89"/>
<line class="st0" x1="195.74" y1="171.15" x2="239.56" y2="172.27"/>
<line class="st0" x1="112.34" y1="252.99" x2="112.34" y2="264.18"/>
<line class="st0" x1="153.6" y1="229.53" x2="112.34" y2="264.18"/>
<line class="st0" x1="69.77" y1="299.51" x2="112.34" y2="264.18"/>
<line class="st0" x1="112.34" y1="252.99" x2="153.6" y2="229.53"/>
<line class="st0" x1="280.68" y1="149.89" x2="280.68" y2="192.86"/>
<line class="st0" x1="324.82" y1="127.51" x2="324.82" y2="192.86"/>
<line class="st0" x1="365.8" y1="111.24" x2="365.8" y2="192.86"/>
<line class="st0" x1="409.31" y1="96.68" x2="409.31" y2="192.86"/>
<line class="st0" x1="451.2" y1="86.79" x2="451.2" y2="192.86"/>
<line class="st0" x1="493" y1="80.5" x2="493" y2="192.86"/>
<line class="st0" x1="535.06" y1="77.8" x2="535.06" y2="192.86"/>
<line class="st1" x1="239.56" y1="192.86" x2="280.68" y2="192.86"/>
<line class="st0" x1="239.56" y1="206.07" x2="280.68" y2="206.07"/>
<line class="st1" x1="280.68" y1="192.86" x2="324.82" y2="192.86"/>
<line class="st0" x1="280.68" y1="206.07" x2="324.82" y2="206.07"/>
<line class="st1" x1="324.82" y1="192.86" x2="365.8" y2="192.86"/>
<line class="st0" x1="324.82" y1="206.07" x2="365.8" y2="206.07"/>
<line class="st1" x1="365.8" y1="192.86" x2="409.31" y2="192.86"/>
<line class="st0" x1="365.8" y1="206.07" x2="409.31" y2="206.07"/>
<line class="st1" x1="409.31" y1="192.86" x2="451.2" y2="192.86"/>
<line class="st0" x1="409.31" y1="206.07" x2="451.2" y2="206.07"/>
<line class="st1" x1="451.2" y1="192.86" x2="493" y2="192.86"/>
<line class="st0" x1="451.2" y1="206.07" x2="493" y2="206.07"/>
<line class="st1" x1="493" y1="192.86" x2="535.06" y2="192.86"/>
<line class="st0" x1="493" y1="206.07" x2="535.06" y2="206.07"/>
<line class="st0" x1="239.56" y1="172.27" x2="239.56" y2="192.86"/>
<line class="st0" x1="280.68" y1="192.86" x2="280.68" y2="206.07"/>
<line class="st0" x1="324.82" y1="192.86" x2="324.82" y2="206.07"/>
<line class="st0" x1="365.8" y1="192.86" x2="365.8" y2="206.07"/>
<line class="st0" x1="409.31" y1="192.86" x2="409.31" y2="206.07"/>
<line class="st0" x1="451.2" y1="192.86" x2="451.2" y2="206.07"/>
<line class="st0" x1="493" y1="192.86" x2="493" y2="206.07"/>
<line class="st0" x1="535.06" y1="192.86" x2="535.06" y2="206.07"/>
<line class="st0" x1="1046.3" y1="299.51" x2="1003.73" y2="252.99"/>
<line class="st0" x1="1003.73" y1="252.99" x2="1003.73" y2="206.07"/>
<line class="st0" x1="1003.73" y1="206.07" x2="1003.73" y2="192.86"/>
<line class="st0" x1="962.47" y1="206.07" x2="962.47" y2="192.86"/>
<line class="st0" x1="876.51" y1="206.07" x2="876.51" y2="192.86"/>
<line class="st0" x1="1003.73" y1="252.99" x2="962.47" y2="212.68"/>
<line class="st0" x1="962.47" y1="206.07" x2="962.47" y2="212.68"/>
<line class="st0" x1="962.47" y1="212.68" x2="920.33" y2="172.15"/>
<line class="st0" x1="962.47" y1="212.68" x2="920.06" y2="200.46"/>
<line class="st0" x1="962.47" y1="206.07" x2="876.51" y2="206.07"/>
<line class="st0" x1="962.47" y1="212.68" x2="962.47" y2="229.53"/>
<line class="st0" x1="962.47" y1="229.53" x2="920.06" y2="200.46"/>
<line class="st0" x1="920.06" y1="200.46" x2="876.51" y2="172.27"/>
<line class="st1" x1="962.47" y1="192.86" x2="876.51" y2="192.86"/>
<line class="st0" x1="920.33" y1="172.15" x2="920.06" y2="200.46"/>
<line class="st1" x1="1003.73" y1="192.86" x2="962.47" y2="192.86"/>
<line class="st0" x1="1003.73" y1="206.07" x2="962.47" y2="206.07"/>
<line class="st1" x1="1003.73" y1="192.86" x2="1046.3" y2="192.86"/>
<line class="st0" x1="1003.73" y1="206.07" x2="1046.3" y2="206.07"/>
<line class="st0" x1="920.33" y1="172.15" x2="876.51" y2="138.38"/>
<line class="st0" x1="876.51" y1="138.38" x2="835.39" y2="109.71"/>
<line class="st0" x1="835.39" y1="109.71" x2="791.25" y2="83.55"/>
<line class="st0" x1="876.51" y1="138.38" x2="876.51" y2="172.27"/>
<line class="st0" x1="791.25" y1="83.55" x2="750.27" y2="63.06"/>
<line class="st0" x1="835.39" y1="109.71" x2="835.39" y2="149.89"/>
<line class="st0" x1="750.27" y1="63.06" x2="706.76" y2="43.28"/>
<line class="st0" x1="791.25" y1="83.55" x2="791.25" y2="127.51"/>
<line class="st0" x1="706.76" y1="43.28" x2="664.87" y2="29.98"/>
<line class="st0" x1="750.27" y1="63.06" x2="750.27" y2="111.24"/>
<line class="st0" x1="664.87" y1="29.98" x2="623.07" y2="23.5"/>
<line class="st0" x1="706.76" y1="43.28" x2="706.76" y2="96.68"/>
<line class="st0" x1="623.07" y1="23.5" x2="581.01" y2="19.82"/>
<line class="st0" x1="664.87" y1="29.98" x2="664.87" y2="86.79"/>
<line class="st0" x1="623.07" y1="23.5" x2="623.07" y2="80.5"/>
<line class="st0" x1="581.01" y1="19.82" x2="581.01" y2="77.8"/>
<line class="st0" x1="876.51" y1="172.27" x2="835.39" y2="149.89"/>
<line class="st0" x1="791.25" y1="127.51" x2="750.27" y2="111.24"/>
<line class="st0" x1="835.39" y1="149.89" x2="791.25" y2="127.51"/>
<line class="st0" x1="750.27" y1="111.24" x2="706.76" y2="96.68"/>
<line class="st0" x1="706.76" y1="43.28" x2="664.87" y2="86.79"/>
<line class="st0" x1="706.76" y1="96.68" x2="664.87" y2="86.79"/>
<line class="st0" x1="664.87" y1="29.98" x2="623.07" y2="80.5"/>
<line class="st0" x1="664.87" y1="86.79" x2="623.07" y2="80.5"/>
<line class="st0" x1="623.07" y1="23.5" x2="581.01" y2="77.8"/>
<line class="st0" x1="623.07" y1="80.5" x2="581.01" y2="77.8"/>
<line class="st0" x1="791.25" y1="83.55" x2="750.27" y2="111.24"/>
<line class="st0" x1="835.39" y1="109.71" x2="791.25" y2="127.51"/>
<line class="st0" x1="876.51" y1="138.38" x2="835.39" y2="149.89"/>
<line class="st0" x1="920.33" y1="172.15" x2="876.51" y2="172.27"/>
<line class="st0" x1="1003.73" y1="252.99" x2="1003.73" y2="264.18"/>
<line class="st0" x1="962.47" y1="229.53" x2="1003.73" y2="264.18"/>
<line class="st0" x1="1046.3" y1="299.51" x2="1003.73" y2="264.18"/>
<line class="st0" x1="1003.73" y1="252.99" x2="962.47" y2="229.53"/>
<line class="st0" x1="835.39" y1="149.89" x2="835.39" y2="192.86"/>
<line class="st0" x1="791.25" y1="127.51" x2="791.25" y2="192.86"/>
<line class="st0" x1="750.27" y1="111.24" x2="750.27" y2="192.86"/>
<line class="st0" x1="706.76" y1="96.68" x2="706.76" y2="192.86"/>
<line class="st0" x1="664.87" y1="86.79" x2="664.87" y2="192.86"/>
<line class="st0" x1="623.07" y1="80.5" x2="623.07" y2="192.86"/>
<line class="st0" x1="581.01" y1="77.8" x2="581.01" y2="192.86"/>
<line class="st1" x1="876.51" y1="192.86" x2="835.39" y2="192.86"/>
<line class="st0" x1="876.51" y1="206.07" x2="835.39" y2="206.07"/>
<line class="st1" x1="835.39" y1="192.86" x2="791.25" y2="192.86"/>
<line class="st0" x1="835.39" y1="206.07" x2="791.25" y2="206.07"/>
<line class="st1" x1="791.25" y1="192.86" x2="750.27" y2="192.86"/>
<line class="st0" x1="791.25" y1="206.07" x2="750.27" y2="206.07"/>
<line class="st1" x1="750.27" y1="192.86" x2="706.76" y2="192.86"/>
<line class="st0" x1="750.27" y1="206.07" x2="706.76" y2="206.07"/>
<line class="st1" x1="706.76" y1="192.86" x2="664.87" y2="192.86"/>
<line class="st0" x1="706.76" y1="206.07" x2="664.87" y2="206.07"/>
<line class="st1" x1="664.87" y1="192.86" x2="623.07" y2="192.86"/>
<line class="st0" x1="664.87" y1="206.07" x2="623.07" y2="206.07"/>
<line class="st1" x1="623.07" y1="192.86" x2="581.01" y2="192.86"/>
<line class="st0" x1="623.07" y1="206.07" x2="581.01" y2="206.07"/>
<line class="st0" x1="876.51" y1="172.27" x2="876.51" y2="192.86"/>
<line class="st0" x1="835.39" y1="192.86" x2="835.39" y2="206.07"/>
<line class="st0" x1="791.25" y1="192.86" x2="791.25" y2="206.07"/>
<line class="st0" x1="750.27" y1="192.86" x2="750.27" y2="206.07"/>
<line class="st0" x1="706.76" y1="192.86" x2="706.76" y2="206.07"/>
<line class="st0" x1="664.87" y1="192.86" x2="664.87" y2="206.07"/>
<line class="st0" x1="623.07" y1="192.86" x2="623.07" y2="206.07"/>
<line class="st0" x1="581.01" y1="192.86" x2="581.01" y2="206.07"/>
<line class="st1" x1="535.06" y1="192.86" x2="581.01" y2="192.86"/>
<line class="st0" x1="535.06" y1="206.07" x2="581.01" y2="206.07"/>
<line class="st0" x1="535.06" y1="19.82" x2="581.01" y2="19.82"/>
<line class="st0" x1="535.06" y1="77.8" x2="581.01" y2="77.8"/>
<line class="st0" x1="535.06" y1="19.82" x2="581.01" y2="77.8"/>
<line class="st0" x1="581.01" y1="19.82" x2="535.06" y2="77.8"/>
<circle class="st2" cx="69.77" cy="299.51" r="2.63"/>
<circle class="st3" cx="69.77" cy="206.07" r="2.63"/>
<circle class="st3" cx="69.77" cy="192.86" r="2.63"/>
<circle class="st2" cx="1046.3" cy="299.51" r="2.63"/>
<circle class="st3" cx="1046.3" cy="206.07" r="2.63"/>
<circle class="st3" cx="1046.3" cy="192.86" r="2.63"/>
<line class="st0" x1="706.76" y1="96.68" x2="750.27" y2="63.06"/>
<line class="st0" x1="365.8" y1="63.06" x2="409.31" y2="96.68"/>
</svg>
