<?xml version="1.0" encoding="utf-8"?>
<!-- Generator: Adobe Illustrator 25.1.0, SVG Export Plug-In . SVG Version: 6.00 Build 0)  -->
<svg version="1.1" id="spandal_braced_arch_design" xmlns="http://www.w3.org/2000/svg" xmlns:xlink="http://www.w3.org/1999/xlink"
	 x="0px" y="0px" viewBox="0 0 1099.92 360.27" style="enable-background:new 0 0 1099.92 360.27;" xml:space="preserve">
<style type="text/css">
	.st0{fill:none;stroke:#E5007E;stroke-miterlimit:10;}
	.st1{fill:none;stroke:#00FF00;stroke-miterlimit:10;}
	.st2{fill:#E5007E;}
	.st3{fill:#00FF00;}
</style>
<line class="st0" x1="110.36" y1="182.16" x2="153.25" y2="182.16"/>
<line class="st0" x1="69.78" y1="132.26" x2="69.78" y2="277.19"/>
<line class="st0" x1="195" y1="84.49" x2="195" y2="174.15"/>
<line class="st0" x1="239.04" y1="70.33" x2="239.04" y2="148.06"/>
<line class="st0" x1="280.51" y1="58.33" x2="280.51" y2="124.89"/>
<line class="st0" x1="323.98" y1="47.25" x2="323.98" y2="103.73"/>
<line class="st0" x1="365.15" y1="39.24" x2="365.15" y2="85.78"/>
<line class="st0" x1="409.19" y1="32.02" x2="409.19" y2="72.98"/>
<line class="st0" x1="450.95" y1="26.87" x2="450.95" y2="63.56"/>
<line class="st0" x1="493.84" y1="24.59" x2="493.84" y2="56.83"/>
<line class="st0" x1="537.31" y1="22.87" x2="537.31" y2="52.61"/>
<line class="st0" x1="239.04" y1="148.06" x2="239.04" y2="167.88"/>
<line class="st0" x1="280.51" y1="124.89" x2="280.51" y2="167.88"/>
<line class="st0" x1="323.98" y1="103.73" x2="323.98" y2="167.88"/>
<line class="st0" x1="365.15" y1="85.78" x2="365.15" y2="167.88"/>
<line class="st0" x1="409.19" y1="72.98" x2="409.19" y2="167.88"/>
<line class="st0" x1="450.95" y1="63.56" x2="450.95" y2="167.88"/>
<line class="st0" x1="493.84" y1="56.83" x2="493.84" y2="167.88"/>
<line class="st0" x1="537.31" y1="52.61" x2="537.31" y2="167.88"/>
<line class="st1" x1="239.04" y1="167.88" x2="280.51" y2="167.88"/>
<line class="st1" x1="323.98" y1="167.88" x2="280.51" y2="167.88"/>
<line class="st1" x1="365.15" y1="167.88" x2="323.98" y2="167.88"/>
<line class="st1" x1="409.19" y1="167.88" x2="365.15" y2="167.88"/>
<line class="st1" x1="450.95" y1="167.88" x2="409.19" y2="167.88"/>
<line class="st1" x1="493.84" y1="167.88" x2="450.95" y2="167.88"/>
<line class="st1" x1="537.31" y1="167.88" x2="493.84" y2="167.88"/>
<line class="st0" x1="69.78" y1="132.26" x2="110.36" y2="239.35"/>
<line class="st0" x1="110.36" y1="115.24" x2="153.25" y2="205.03"/>
<line class="st0" x1="153.25" y1="99.8" x2="195" y2="174.15"/>
<line class="st0" x1="195" y1="84.49" x2="239.04" y2="148.06"/>
<line class="st0" x1="239.04" y1="70.33" x2="280.51" y2="124.89"/>
<line class="st0" x1="280.51" y1="58.33" x2="323.98" y2="103.73"/>
<line class="st0" x1="323.98" y1="47.25" x2="365.15" y2="85.78"/>
<line class="st0" x1="365.15" y1="39.24" x2="409.19" y2="72.98"/>
<line class="st0" x1="409.19" y1="32.02" x2="450.95" y2="63.56"/>
<line class="st0" x1="450.95" y1="26.87" x2="493.84" y2="56.83"/>
<line class="st0" x1="493.84" y1="24.59" x2="537.31" y2="52.61"/>
<line class="st0" x1="69.78" y1="277.19" x2="110.36" y2="239.35"/>
<line class="st0" x1="69.78" y1="132.26" x2="110.36" y2="115.24"/>
<line class="st0" x1="110.36" y1="239.35" x2="153.25" y2="205.03"/>
<line class="st0" x1="110.36" y1="115.24" x2="153.25" y2="99.8"/>
<line class="st0" x1="153.25" y1="205.03" x2="195" y2="174.15"/>
<line class="st0" x1="153.25" y1="99.8" x2="195" y2="84.49"/>
<line class="st0" x1="195" y1="174.15" x2="239.04" y2="148.06"/>
<line class="st0" x1="195" y1="84.49" x2="239.04" y2="70.33"/>
<line class="st0" x1="239.04" y1="148.06" x2="280.51" y2="124.89"/>
<line class="st0" x1="239.04" y1="70.33" x2="280.51" y2="58.33"/>
<line class="st0" x1="280.51" y1="124.89" x2="323.98" y2="103.73"/>
<line class="st0" x1="280.51" y1="58.33" x2="323.98" y2="47.25"/>
<line class="st0" x1="323.98" y1="103.73" x2="365.15" y2="85.78"/>
<line class="st0" x1="323.98" y1="47.25" x2="365.15" y2="39.24"/>
<line class="st0" x1="365.15" y1="85.78" x2="409.19" y2="72.98"/>
<line class="st0" x1="365.15" y1="39.24" x2="409.19" y2="32.02"/>
<line class="st0" x1="409.19" y1="72.98" x2="450.95" y2="63.56"/>
<line class="st0" x1="409.19" y1="32.02" x2="450.95" y2="26.87"/>
<line class="st0" x1="450.95" y1="63.56" x2="493.84" y2="56.83"/>
<line class="st0" x1="450.95" y1="26.87" x2="493.84" y2="24.59"/>
<line class="st0" x1="493.84" y1="56.83" x2="537.31" y2="52.61"/>
<line class="st0" x1="493.84" y1="24.59" x2="537.31" y2="22.87"/>
<line class="st0" x1="153.25" y1="99.8" x2="153.25" y2="167.88"/>
<line class="st0" x1="110.36" y1="115.24" x2="110.36" y2="167.88"/>
<line class="st1" x1="153.25" y1="167.88" x2="110.36" y2="167.88"/>
<line class="st1" x1="110.36" y1="167.88" x2="55.55" y2="167.88"/>
<line class="st0" x1="153.25" y1="182.16" x2="153.25" y2="205.03"/>
<line class="st0" x1="110.36" y1="182.16" x2="110.36" y2="239.35"/>
<circle class="st2" cx="69.78" cy="132.26" r="2.63"/>
<circle class="st2" cx="69.78" cy="277.19" r="2.63"/>
<circle class="st3" cx="55.55" cy="167.88" r="2.63"/>
<circle class="st3" cx="55.55" cy="182.16" r="2.63"/>
<line class="st0" x1="110.36" y1="182.16" x2="55.55" y2="182.16"/>
<line class="st0" x1="239.04" y1="167.88" x2="239.04" y2="182.16"/>
<line class="st0" x1="280.51" y1="167.88" x2="280.51" y2="182.16"/>
<line class="st0" x1="323.98" y1="167.88" x2="323.98" y2="182.16"/>
<line class="st0" x1="365.15" y1="167.88" x2="365.15" y2="182.16"/>
<line class="st0" x1="409.19" y1="167.88" x2="409.19" y2="182.16"/>
<line class="st0" x1="450.95" y1="167.88" x2="450.95" y2="182.16"/>
<line class="st0" x1="493.84" y1="167.88" x2="493.84" y2="182.16"/>
<line class="st0" x1="537.31" y1="167.88" x2="537.31" y2="182.16"/>
<line class="st0" x1="153.25" y1="182.16" x2="239.04" y2="182.16"/>
<line class="st0" x1="110.36" y1="167.88" x2="110.36" y2="182.16"/>
<line class="st0" x1="55.55" y1="167.88" x2="110.36" y2="182.16"/>
<line class="st0" x1="110.36" y1="167.88" x2="153.25" y2="182.16"/>
<line class="st0" x1="153.25" y1="167.88" x2="153.25" y2="182.16"/>
<line class="st1" x1="239.04" y1="167.88" x2="153.25" y2="167.88"/>
<line class="st0" x1="239.04" y1="167.88" x2="280.51" y2="182.16"/>
<line class="st0" x1="239.04" y1="182.16" x2="280.51" y2="182.16"/>
<line class="st0" x1="280.51" y1="167.88" x2="323.98" y2="182.16"/>
<line class="st0" x1="323.98" y1="167.88" x2="365.15" y2="182.16"/>
<line class="st0" x1="365.15" y1="167.88" x2="409.19" y2="182.16"/>
<line class="st0" x1="409.19" y1="167.88" x2="450.95" y2="182.16"/>
<line class="st0" x1="450.95" y1="167.88" x2="493.84" y2="182.16"/>
<line class="st0" x1="493.84" y1="167.88" x2="537.31" y2="182.16"/>
<line class="st0" x1="280.51" y1="182.16" x2="323.98" y2="182.16"/>
<line class="st0" x1="365.15" y1="182.16" x2="409.19" y2="182.16"/>
<line class="st0" x1="323.98" y1="182.16" x2="365.15" y2="182.16"/>
<line class="st0" x1="409.19" y1="182.16" x2="450.95" y2="182.16"/>
<line class="st0" x1="493.84" y1="182.16" x2="450.95" y2="182.16"/>
<line class="st0" x1="537.31" y1="182.16" x2="493.84" y2="182.16"/>
<line class="st0" x1="1008.07" y1="182.16" x2="965.17" y2="182.16"/>
<line class="st0" x1="1048.64" y1="132.26" x2="1048.64" y2="277.19"/>
<line class="st0" x1="923.42" y1="84.49" x2="923.42" y2="174.15"/>
<line class="st0" x1="879.38" y1="70.33" x2="879.38" y2="148.06"/>
<line class="st0" x1="837.91" y1="58.33" x2="837.91" y2="124.89"/>
<line class="st0" x1="794.45" y1="47.25" x2="794.45" y2="103.73"/>
<line class="st0" x1="753.27" y1="39.24" x2="753.27" y2="85.78"/>
<line class="st0" x1="709.23" y1="32.02" x2="709.23" y2="72.98"/>
<line class="st0" x1="667.48" y1="26.87" x2="667.48" y2="63.56"/>
<line class="st0" x1="624.58" y1="24.59" x2="624.58" y2="56.83"/>
<line class="st0" x1="581.11" y1="22.87" x2="581.11" y2="52.61"/>
<line class="st0" x1="879.38" y1="148.06" x2="879.38" y2="167.88"/>
<line class="st0" x1="837.91" y1="124.89" x2="837.91" y2="167.88"/>
<line class="st0" x1="794.45" y1="103.73" x2="794.45" y2="167.88"/>
<line class="st0" x1="753.27" y1="85.78" x2="753.27" y2="167.88"/>
<line class="st0" x1="709.23" y1="72.98" x2="709.23" y2="167.88"/>
<line class="st0" x1="667.48" y1="63.56" x2="667.48" y2="167.88"/>
<line class="st0" x1="624.58" y1="56.83" x2="624.58" y2="167.88"/>
<line class="st0" x1="581.11" y1="52.61" x2="581.11" y2="167.88"/>
<line class="st1" x1="879.38" y1="167.88" x2="837.91" y2="167.88"/>
<line class="st1" x1="794.45" y1="167.88" x2="837.91" y2="167.88"/>
<line class="st1" x1="753.27" y1="167.88" x2="794.45" y2="167.88"/>
<line class="st1" x1="709.23" y1="167.88" x2="753.27" y2="167.88"/>
<line class="st1" x1="667.48" y1="167.88" x2="709.23" y2="167.88"/>
<line class="st1" x1="624.58" y1="167.88" x2="667.48" y2="167.88"/>
<line class="st1" x1="581.11" y1="167.88" x2="624.58" y2="167.88"/>
<line class="st0" x1="1048.64" y1="132.26" x2="1008.07" y2="239.35"/>
<line class="st0" x1="1008.07" y1="115.24" x2="965.17" y2="205.03"/>
<line class="st0" x1="965.17" y1="99.8" x2="923.42" y2="174.15"/>
<line class="st0" x1="923.42" y1="84.49" x2="879.38" y2="148.06"/>
<line class="st0" x1="879.38" y1="70.33" x2="837.91" y2="124.89"/>
<line class="st0" x1="837.91" y1="58.33" x2="794.45" y2="103.73"/>
<line class="st0" x1="794.45" y1="47.25" x2="753.27" y2="85.78"/>
<line class="st0" x1="753.27" y1="39.24" x2="709.23" y2="72.98"/>
<line class="st0" x1="709.23" y1="32.02" x2="667.48" y2="63.56"/>
<line class="st0" x1="667.48" y1="26.87" x2="624.58" y2="56.83"/>
<line class="st0" x1="624.58" y1="24.59" x2="581.11" y2="52.61"/>
<line class="st0" x1="1048.64" y1="277.19" x2="1008.07" y2="239.35"/>
<line class="st0" x1="1048.64" y1="132.26" x2="1008.07" y2="115.24"/>
<line class="st0" x1="1008.07" y1="239.35" x2="965.17" y2="205.03"/>
<line class="st0" x1="1008.07" y1="115.24" x2="965.17" y2="99.8"/>
<line class="st0" x1="965.17" y1="205.03" x2="923.42" y2="174.15"/>
<line class="st0" x1="965.17" y1="99.8" x2="923.42" y2="84.49"/>
<line class="st0" x1="923.42" y1="174.15" x2="879.38" y2="148.06"/>
<line class="st0" x1="923.42" y1="84.49" x2="879.38" y2="70.33"/>
<line class="st0" x1="879.38" y1="148.06" x2="837.91" y2="124.89"/>
<line class="st0" x1="879.38" y1="70.33" x2="837.91" y2="58.33"/>
<line class="st0" x1="837.91" y1="124.89" x2="794.45" y2="103.73"/>
<line class="st0" x1="837.91" y1="58.33" x2="794.45" y2="47.25"/>
<line class="st0" x1="794.45" y1="103.73" x2="753.27" y2="85.78"/>
<line class="st0" x1="794.45" y1="47.25" x2="753.27" y2="39.24"/>
<line class="st0" x1="753.27" y1="85.78" x2="709.23" y2="72.98"/>
<line class="st0" x1="753.27" y1="39.24" x2="709.23" y2="32.02"/>
<line class="st0" x1="709.23" y1="72.98" x2="667.48" y2="63.56"/>
<line class="st0" x1="709.23" y1="32.02" x2="667.48" y2="26.87"/>
<line class="st0" x1="667.48" y1="63.56" x2="624.58" y2="56.83"/>
<line class="st0" x1="667.48" y1="26.87" x2="624.58" y2="24.59"/>
<line class="st0" x1="624.58" y1="56.83" x2="581.11" y2="52.61"/>
<line class="st0" x1="624.58" y1="24.59" x2="581.11" y2="22.87"/>
<line class="st0" x1="965.17" y1="99.8" x2="965.17" y2="167.88"/>
<line class="st0" x1="1008.07" y1="115.24" x2="1008.07" y2="167.88"/>
<line class="st1" x1="965.17" y1="167.88" x2="1008.07" y2="167.88"/>
<line class="st1" x1="1008.07" y1="167.88" x2="1062.88" y2="167.88"/>
<line class="st0" x1="965.17" y1="182.16" x2="965.17" y2="205.03"/>
<line class="st0" x1="1008.07" y1="182.16" x2="1008.07" y2="239.35"/>
<circle class="st2" cx="1048.64" cy="132.26" r="2.63"/>
<circle class="st2" cx="1048.64" cy="277.19" r="2.63"/>
<circle class="st3" cx="1062.88" cy="167.88" r="2.63"/>
<circle class="st3" cx="1062.88" cy="182.16" r="2.63"/>
<line class="st0" x1="1008.07" y1="182.16" x2="1062.88" y2="182.16"/>
<line class="st0" x1="879.38" y1="167.88" x2="879.38" y2="182.16"/>
<line class="st0" x1="837.91" y1="167.88" x2="837.91" y2="182.16"/>
<line class="st0" x1="794.45" y1="167.88" x2="794.45" y2="182.16"/>
<line class="st0" x1="753.27" y1="167.88" x2="753.27" y2="182.16"/>
<line class="st0" x1="709.23" y1="167.88" x2="709.23" y2="182.16"/>
<line class="st0" x1="667.48" y1="167.88" x2="667.48" y2="182.16"/>
<line class="st0" x1="624.58" y1="167.88" x2="624.58" y2="182.16"/>
<line class="st0" x1="581.11" y1="167.88" x2="581.11" y2="182.16"/>
<line class="st0" x1="965.17" y1="182.16" x2="879.38" y2="182.16"/>
<line class="st0" x1="1008.07" y1="167.88" x2="1008.07" y2="182.16"/>
<line class="st0" x1="1062.88" y1="167.88" x2="1008.07" y2="182.16"/>
<line class="st0" x1="1008.07" y1="167.88" x2="965.17" y2="182.16"/>
<line class="st0" x1="965.17" y1="167.88" x2="965.17" y2="182.16"/>
<line class="st1" x1="879.38" y1="167.88" x2="965.17" y2="167.88"/>
<line class="st0" x1="879.38" y1="167.88" x2="837.91" y2="182.16"/>
<line class="st0" x1="879.38" y1="182.16" x2="837.91" y2="182.16"/>
<line class="st0" x1="837.91" y1="167.88" x2="794.45" y2="182.16"/>
<line class="st0" x1="794.45" y1="167.88" x2="753.27" y2="182.16"/>
<line class="st0" x1="753.27" y1="167.88" x2="709.23" y2="182.16"/>
<line class="st0" x1="709.23" y1="167.88" x2="667.48" y2="182.16"/>
<line class="st0" x1="667.48" y1="167.88" x2="624.58" y2="182.16"/>
<line class="st0" x1="624.58" y1="167.88" x2="581.11" y2="182.16"/>
<line class="st0" x1="837.91" y1="182.16" x2="794.45" y2="182.16"/>
<line class="st0" x1="753.27" y1="182.16" x2="709.23" y2="182.16"/>
<line class="st0" x1="794.45" y1="182.16" x2="753.27" y2="182.16"/>
<line class="st0" x1="709.23" y1="182.16" x2="667.48" y2="182.16"/>
<line class="st0" x1="624.58" y1="182.16" x2="667.48" y2="182.16"/>
<line class="st0" x1="581.11" y1="182.16" x2="624.58" y2="182.16"/>
<line class="st0" x1="537.31" y1="22.87" x2="581.11" y2="22.87"/>
<line class="st0" x1="537.31" y1="52.61" x2="581.11" y2="52.61"/>
<line class="st0" x1="537.31" y1="22.87" x2="581.11" y2="52.61"/>
<line class="st0" x1="581.11" y1="22.87" x2="537.31" y2="52.61"/>
<line class="st0" x1="537.31" y1="182.16" x2="581.11" y2="182.16"/>
<line class="st1" x1="537.31" y1="167.88" x2="581.11" y2="167.88"/>
<line class="st0" x1="537.31" y1="167.88" x2="581.11" y2="182.16"/>
<line class="st0" x1="581.11" y1="167.88" x2="537.31" y2="182.16"/>
<line class="st0" x1="153.25" y1="167.88" x2="195" y2="174.15"/>
<line class="st0" x1="153.25" y1="182.16" x2="195" y2="174.15"/>
<line class="st0" x1="239.04" y1="167.88" x2="195" y2="174.15"/>
<line class="st0" x1="239.04" y1="182.16" x2="195" y2="174.15"/>
<line class="st0" x1="879.38" y1="167.88" x2="923.42" y2="174.15"/>
<line class="st0" x1="965.17" y1="167.88" x2="923.42" y2="174.15"/>
<line class="st0" x1="879.38" y1="182.16" x2="923.42" y2="174.15"/>
<line class="st0" x1="965.17" y1="182.16" x2="923.42" y2="174.15"/>
</svg>
